SplineFontDB: 3.0
FontName: BoonTook
FullName: BoonTook
FamilyName: BoonTook
Weight: Ultra
Copyright: Copyright 2014-2015, Sungsit Sawaiwan (https://fontuni.com | uni@fontuni.com). This Font Software is licensed under the SIL Open Font License, Version 1.1 (http://scripts.sil.org/OFL).
Version: 2.0-beta2
ItalicAngle: 0
UnderlinePosition: -60
UnderlineWidth: 30
Ascent: 960
Descent: 240
InvalidEm: 0
woffMajor: 2
woffMinor: 0
LayerCount: 4
Layer: 0 0 "Back" 1
Layer: 1 0 "Fore" 0
Layer: 2 0 "Normal" 0
Layer: 3 0 "Mon" 0
FSType: 8
OS2Version: 0
OS2_WeightWidthSlopeOnly: 0
OS2_UseTypoMetrics: 0
CreationTime: 1394017292
ModificationTime: 1445984549
PfmFamily: 33
TTFWeight: 950
TTFWidth: 5
LineGap: 0
VLineGap: 0
Panose: 2 1 1 5 5 0 0 0 0 0
OS2TypoAscent: 1240
OS2TypoAOffset: 0
OS2TypoDescent: -480
OS2TypoDOffset: 0
OS2TypoLinegap: 0
OS2WinAscent: 1240
OS2WinAOffset: 0
OS2WinDescent: 480
OS2WinDOffset: 0
HheadAscent: 1240
HheadAOffset: 0
HheadDescent: -480
HheadDOffset: 0
OS2CapHeight: 840
OS2FamilyClass: 2048
OS2Vendor: 'FUni'
MarkAttachClasses: 1
DEI: 91125
LangName: 1054 "" "" "" "" "" "" "" "" "" "" "" "" "" "" "" "" "" "" "" "+Dh4ONQ5IDhsOSw4zDg4OOQ4ZDjkOSw4ZDkkOMw5ADhsOSA4yDh0OOA5IDhkOKw4NDjkOSA4BDkkOGQ4bDjUOSAAA +DhAOMg4VDjgOTQAA +Dg0OMg4VDjQOTQAA +DhsOOA5NDhsONA5N"
LangName: 1033 "" "" "" "" "" "" "" "" "FontUni" "Sungsit Sawaiwan" "" "https://fontuni.com" "https://sungsit.com" "This Font Software is licensed under the SIL Open Font License, Version 1.1." "http://scripts.sil.org/OFL" "" "BoonTook" "" "BoonTook"
GaspTable: 3 12 14 24 7 65535 15 1
Encoding: Custom
UnicodeInterp: none
NameList: Adobe Glyph List
DisplaySize: -48
DisplayLayer: 2
AntiAlias: 1
FitToEm: 0
WinInfo: 666 18 8
BeginPrivate: 0
EndPrivate
TeXData: 1 0 0 346030 173015 115343 0 1048576 115343 783286 444596 497025 792723 393216 433062 380633 303038 157286 324010 404750 52429 2506097 1059062 262144
BeginChars: 805 843

StartChar: uni0E2D
Encoding: 438 3629 0
Width: 730
VWidth: 0
Flags: MW
LayerCount: 4
Layer: 2
SplineSet
30 260 m 0
 30 305 52 340 90 340 c 2
 320 340 l 1
 320 230 l 1
 275 230 l 1
 275 182 310 160 350 160 c 0
 408 160 430 210 430 300 c 0
 430 400 370 440 280 440 c 0
 208 440 144 416 100 400 c 1
 40 550 l 1
 40 550 158 620 360 620 c 0
 574 620 700 497 700 300 c 0
 700 123 564 -20 350 -20 c 0
 168 -20 30 70 30 260 c 0
EndSplineSet
Validated: 1
Layer: 3
SplineSet
30 260 m 0
 30 305 52 340 90 340 c 2
 290 340 l 2
 306 340 320 326 320 310 c 2
 320 260 l 2
 320 244 306 230 290 230 c 2
 275 230 l 1
 275 182 310 160 350 160 c 0
 408 160 430 210 430 300 c 0
 430 400 370 440 280 440 c 0
 220 440 182 427 160 420 c 0
 147 416 124 405 111 405 c 0
 96 405 91 423 86 435 c 2
 55 510 l 1
 55 510 50 522 50 535 c 0
 50 550 55 558 70 565 c 0
 82 570 184 620 360 620 c 0
 574 620 700 497 700 300 c 0
 700 123 564 -20 350 -20 c 0
 168 -20 30 70 30 260 c 0
EndSplineSet
Colour: ffff00
EndChar

StartChar: uni0E01
Encoding: 394 3585 1
Width: 770
VWidth: 0
Flags: MW
LayerCount: 4
Layer: 2
SplineSet
20 520 m 1
 20 520 178 620 380 620 c 0
 594 620 730 536 730 370 c 2
 730 0 l 1
 460 0 l 1
 460 370 l 2
 460 418 438 440 380 440 c 0
 367 440 346 439 322 436 c 1
 343 420 360 394 360 360 c 2
 360 0 l 1
 90 0 l 1
 90 370 l 2
 90 389 86 396 79 397 c 1
 69 395 59 392 50 390 c 1
 20 520 l 1
EndSplineSet
Validated: 1
Layer: 3
SplineSet
20 505 m 0
 20 517 27 527 40 535 c 1
 40 535 192 620 380 620 c 0
 594 620 730 536 730 370 c 2
 730 40 l 2
 730 18 712 0 690 0 c 2
 500 0 l 2
 478 0 460 18 460 40 c 2
 460 370 l 2
 460 418 438 440 380 440 c 0
 365 440 345 439 322 437 c 1
 343 420 360 394 360 360 c 2
 360 40 l 2
 360 18 342 0 320 0 c 2
 130 0 l 2
 108 0 90 18 90 40 c 2
 90 370 l 2
 90 387 87 395 82 398 c 1
 76 397 68 395 65 395 c 0
 54 395 49 403 45 415 c 2
 25 480 l 1
 25 480 20 497 20 505 c 0
EndSplineSet
Colour: ffff00
EndChar

StartChar: uni0E21
Encoding: 426 3617 4
Width: 775
VWidth: 0
Flags: MW
LayerCount: 4
Layer: 2
SplineSet
50 0 m 1
 50 600 l 1
 330 600 l 1
 330 267 l 1
 343 226 365 200 400 200 c 0
 434 200 450 219 450 280 c 2
 450 600 l 1
 730 600 l 1
 730 220 l 2
 730 74 639 -10 510 -10 c 0
 397 -10 338 56 310 102 c 1
 310 0 l 1
 50 0 l 1
EndSplineSet
Validated: 1
Layer: 3
SplineSet
50 40 m 2
 50 560 l 2
 50 582 68 600 90 600 c 2
 290 600 l 2
 312 600 330 582 330 560 c 2
 330 267 l 1
 343 226 365 200 400 200 c 0
 434 200 450 219 450 280 c 2
 450 560 l 2
 450 582 468 600 490 600 c 2
 690 600 l 2
 712 600 730 582 730 560 c 2
 730 220 l 2
 730 74 639 -10 510 -10 c 0
 397 -10 338 56 310 102 c 1
 310 40 l 2
 310 18 292 0 270 0 c 2
 90 0 l 2
 68 0 50 18 50 40 c 2
EndSplineSet
Colour: ffff00
EndChar

StartChar: uni0E1A
Encoding: 419 3610 5
Width: 790
VWidth: 0
Flags: MW
LayerCount: 4
Layer: 2
SplineSet
45 230 m 2
 45 600 l 1
 325 600 l 1
 325 240 l 2
 325 192 351 170 395 170 c 0
 439 170 465 192 465 240 c 2
 465 600 l 1
 745 600 l 1
 745 230 l 2
 745 64 609 -20 395 -20 c 0
 181 -20 45 64 45 230 c 2
EndSplineSet
Validated: 1
Layer: 3
SplineSet
45 230 m 2
 45 560 l 2
 45 582 63 600 85 600 c 2
 285 600 l 2
 307 600 325 582 325 560 c 2
 325 240 l 2
 325 192 351 170 395 170 c 0
 439 170 465 192 465 240 c 2
 465 560 l 2
 465 582 483 600 505 600 c 2
 705 600 l 2
 727 600 745 582 745 560 c 2
 745 230 l 2
 745 64 609 -20 395 -20 c 0
 181 -20 45 64 45 230 c 2
EndSplineSet
Colour: ffff00
EndChar

StartChar: uni0E1B
Encoding: 420 3611 6
Width: 820
VWidth: 0
Flags: MW
LayerCount: 4
Layer: 2
SplineSet
45 230 m 2
 45 600 l 1
 325 600 l 1
 325 240 l 2
 325 192 356 170 405 170 c 0
 454 170 485 192 485 240 c 2
 485 840 l 1
 765 840 l 1
 765 230 l 2
 765 64 624 -20 405 -20 c 0
 186 -20 45 64 45 230 c 2
EndSplineSet
Validated: 1
Layer: 3
SplineSet
45 230 m 2
 45 560 l 2
 45 582 63 600 85 600 c 2
 285 600 l 2
 307 600 325 582 325 560 c 2
 325 240 l 2
 325 192 356 170 405 170 c 0
 454 170 485 192 485 240 c 2
 485 800 l 2
 485 822 503 840 525 840 c 2
 725 840 l 2
 747 840 765 822 765 800 c 2
 765 230 l 2
 765 64 624 -20 405 -20 c 0
 186 -20 45 64 45 230 c 2
EndSplineSet
Colour: ffff00
EndChar

StartChar: uni0E04
Encoding: 397 3588 7
Width: 780
VWidth: 0
Flags: MW
LayerCount: 4
Layer: 2
SplineSet
40 0 m 1
 40 370 l 2
 40 536 176 620 390 620 c 0
 604 620 740 536 740 370 c 2
 740 0 l 1
 470 0 l 1
 470 360 l 2
 470 408 434 430 390 430 c 0
 346 430 310 408 310 360 c 2
 310 290 l 1
 328 317 351 340 380 340 c 0
 402 340 410 335 420 330 c 1
 420 160 l 1
 412 162 401 165 385 165 c 0
 351 165 324 145 310 124 c 1
 310 0 l 1
 40 0 l 1
EndSplineSet
Validated: 1
Layer: 3
SplineSet
40 40 m 2
 40 370 l 2
 40 536 176 620 390 620 c 0
 604 620 740 536 740 370 c 2
 740 40 l 2
 740 18 722 0 700 0 c 2
 510 0 l 2
 488 0 470 18 470 40 c 2
 470 360 l 2
 470 408 434 430 390 430 c 0
 346 430 310 408 310 360 c 2
 310 290 l 1
 328 317 351 340 380 340 c 0
 391 340 399 338 405 335 c 0
 415 330 420 319 420 310 c 2
 420 175 l 2
 420 167 412 162 405 163 c 0
 399 164 393 165 380 165 c 0
 349 165 323 146 310 125 c 1
 310 40 l 2
 310 18 292 0 270 0 c 2
 80 0 l 2
 58 0 40 18 40 40 c 2
EndSplineSet
Colour: ffff00
EndChar

StartChar: uni0E05
Encoding: 398 3589 8
Width: 780
VWidth: 0
Flags: MW
LayerCount: 4
Layer: 2
SplineSet
40 0 m 1
 40 390 l 2
 40 536 155 620 240 620 c 0
 257 620 390 530 390 530 c 1
 390 530 523 620 540 620 c 0
 625 620 740 536 740 390 c 2
 740 0 l 1
 470 0 l 1
 470 370 l 2
 470 406 450 420 450 420 c 1
 400 380 l 1
 390 380 l 1
 380 380 l 1
 330 420 l 1
 330 420 310 406 310 370 c 2
 310 290 l 1
 328 317 351 340 380 340 c 0
 402 340 410 335 420 330 c 1
 420 160 l 1
 412 162 401 165 385 165 c 0
 351 165 324 145 310 124 c 1
 310 0 l 1
 40 0 l 1
EndSplineSet
Validated: 1
Layer: 3
SplineSet
40 40 m 2
 40 390 l 2
 40 536 155 620 240 620 c 0
 297 620 390 530 390 530 c 1
 390 530 483 620 540 620 c 0
 625 620 740 536 740 390 c 2
 740 40 l 2
 740 18 722 0 700 0 c 2
 510 0 l 2
 488 0 470 18 470 40 c 2
 470 370 l 2
 470 406 450 420 450 420 c 1
 415 395 l 1
 415 395 400 385 390 385 c 0
 380 385 365 395 365 395 c 1
 330 420 l 1
 330 420 310 406 310 370 c 2
 310 290 l 1
 328 317 351 340 380 340 c 0
 391 340 399 338 405 335 c 0
 415 330 420 319 420 310 c 2
 420 175 l 2
 420 167 412 162 405 163 c 0
 399 164 393 165 380 165 c 0
 349 165 323 146 310 125 c 1
 310 40 l 2
 310 18 292 0 270 0 c 2
 80 0 l 2
 58 0 40 18 40 40 c 2
EndSplineSet
Colour: ffff00
EndChar

StartChar: uni0E02
Encoding: 395 3586 9
Width: 755
VWidth: 0
Flags: MW
LayerCount: 4
Layer: 2
SplineSet
50 220 m 0
 50 338 130 420 130 420 c 1
 50 420 l 1
 50 600 l 1
 260 600 l 2
 348 600 380 553 380 480 c 0
 380 397 320 317 320 220 c 0
 320 178 346 160 380 160 c 0
 414 160 440 177 440 220 c 2
 440 600 l 1
 710 600 l 1
 710 220 l 2
 710 54 581 -20 380 -20 c 0
 179 -20 50 60 50 220 c 0
EndSplineSet
Validated: 1
Layer: 3
SplineSet
50 220 m 0
 50 338 130 420 130 420 c 1
 80 420 l 2
 64 420 50 434 50 450 c 2
 50 570 l 2
 50 586 64 599 80 600 c 2
 260 600 l 2
 348 600 380 553 380 480 c 0
 380 397 320 317 320 220 c 0
 320 178 346 160 380 160 c 0
 414 160 440 177 440 220 c 2
 440 560 l 2
 440 582 458 600 480 600 c 2
 670 600 l 2
 692 600 710 582 710 560 c 2
 710 220 l 2
 710 54 581 -20 380 -20 c 0
 179 -20 50 60 50 220 c 0
EndSplineSet
Colour: ffff00
EndChar

StartChar: uni0E03
Encoding: 396 3587 10
Width: 765
VWidth: 0
Flags: MW
LayerCount: 4
Layer: 2
SplineSet
20 450 m 1
 20 610 l 1
 30 610 l 1
 130 550 l 1
 150 570 196 610 270 610 c 0
 357 610 410 553 410 480 c 0
 410 397 330 317 330 220 c 0
 330 177 356 160 390 160 c 0
 424 160 450 177 450 220 c 2
 450 600 l 1
 720 600 l 1
 720 220 l 2
 720 54 591 -20 390 -20 c 0
 189 -20 60 54 60 220 c 0
 60 333 190 369 190 425 c 0
 190 438 185 450 170 450 c 0
 141 450 118 419 110 400 c 1
 100 400 l 1
 20 450 l 1
EndSplineSet
Validated: 1
Layer: 3
SplineSet
20 460 m 2
 20 590 l 2
 20 598 25 607 33 607 c 0
 38 607 41 606 50 600 c 2
 130 550 l 1
 150 570 196 610 270 610 c 0
 357 610 410 553 410 480 c 0
 410 397 330 317 330 220 c 0
 330 177 356 160 390 160 c 0
 424 160 450 177 450 220 c 2
 450 560 l 2
 450 582 468 600 490 600 c 2
 680 600 l 2
 702 600 720 582 720 560 c 2
 720 220 l 2
 720 54 591 -20 390 -20 c 0
 189 -20 60 54 60 220 c 0
 60 333 190 369 190 425 c 0
 190 438 185 450 170 450 c 0
 148 450 131 430 120 415 c 0
 116 409 112 400 100 400 c 0
 94 400 80 410 80 410 c 1
 35 435 l 2
 27 440 20 448 20 460 c 2
EndSplineSet
Colour: ffff00
EndChar

StartChar: uni0E06
Encoding: 399 3590 11
Width: 775
VWidth: -360
Flags: MW
LayerCount: 4
Layer: 2
SplineSet
20 450 m 1
 20 610 l 1
 30 610 l 1
 130 550 l 1
 150 570 196 610 270 610 c 0
 357 610 410 553 410 480 c 0
 410 408 349 338 334 257 c 1
 347 222 368 200 400 200 c 0
 434 200 460 219 460 280 c 2
 460 600 l 1
 730 600 l 1
 730 220 l 2
 730 74 639 -10 510 -10 c 0
 397 -10 338 56 310 102 c 1
 310 0 l 1
 60 0 l 1
 60 220 l 2
 60 333 190 369 190 425 c 0
 190 438 185 450 170 450 c 0
 141 450 118 419 110 400 c 1
 100 400 l 1
 20 450 l 1
EndSplineSet
Validated: 1
Layer: 3
SplineSet
20 460 m 2
 20 590 l 2
 20 598 25 607 33 607 c 0
 38 607 41 606 50 600 c 2
 130 550 l 1
 150 570 196 610 270 610 c 0
 357 610 410 553 410 480 c 0
 410 408 349 338 334 257 c 1
 347 222 368 200 400 200 c 0
 434 200 460 219 460 280 c 2
 460 560 l 2
 460 582 478 600 500 600 c 2
 690 600 l 2
 712 600 730 582 730 560 c 2
 730 220 l 2
 730 74 639 -10 510 -10 c 0
 397 -10 338 56 310 102 c 1
 310 40 l 2
 310 18 292 0 270 0 c 2
 100 0 l 2
 78 0 60 18 60 40 c 2
 60 220 l 2
 60 333 190 369 190 425 c 0
 190 438 185 450 170 450 c 0
 148 450 131 430 120 415 c 0
 116 409 112 400 100 400 c 0
 94 400 80 410 80 410 c 1
 35 435 l 2
 27 440 20 448 20 460 c 2
EndSplineSet
Colour: ffff00
EndChar

StartChar: uni0E07
Encoding: 400 3591 12
Width: 770
VWidth: 0
Flags: MW
LayerCount: 4
Layer: 2
SplineSet
10 600 m 1
 270 600 l 1
 385 160 l 1
 440 160 480 212 480 300 c 0
 480 380 443 420 400 420 c 0
 389 420 379 418 370 415 c 1
 330 580 l 1
 359 599 406 610 460 610 c 0
 638 610 740 471 740 300 c 0
 740 129 614 -10 380 -10 c 0
 274 -10 200 0 200 0 c 1
 10 600 l 1
EndSplineSet
Validated: 1
Layer: 3
SplineSet
15 575 m 0
 15 590 30 600 55 600 c 2
 230 600 l 2
 259 600 273 587 280 560 c 2
 385 160 l 1
 440 160 480 212 480 300 c 0
 480 380 443 420 400 420 c 0
 384 420 368 425 364 440 c 2
 338 545 l 1
 338 545 335 556 335 562 c 0
 335 576 341 585 350 590 c 0
 363 598 406 610 460 610 c 0
 638 610 740 471 740 300 c 0
 740 129 614 -10 380 -10 c 0
 299 -10 281 -7 232 -3 c 0
 207 -1 190 27 187 40 c 1
 20 555 l 2
 18 560 15 571 15 575 c 0
EndSplineSet
Colour: ffff00
EndChar

StartChar: uni0E16
Encoding: 415 3606 13
Width: 770
VWidth: 0
Flags: MW
LayerCount: 4
Layer: 2
SplineSet
20 520 m 1
 20 520 178 620 380 620 c 0
 594 620 730 536 730 370 c 2
 730 0 l 1
 460 0 l 1
 460 370 l 2
 460 418 438 440 380 440 c 0
 366 440 344 439 318 436 c 1
 336 419 350 394 350 360 c 2
 350 150 l 1
 410 150 l 1
 410 0 l 1
 200 0 l 2
 120 0 90 42 90 90 c 2
 90 370 l 2
 90 389 86 396 79 397 c 1
 69 395 59 392 50 390 c 1
 20 520 l 1
EndSplineSet
Validated: 1
Layer: 3
SplineSet
20 505 m 0
 20 517 27 527 40 535 c 1
 40 535 192 620 380 620 c 0
 594 620 730 536 730 370 c 2
 730 40 l 2
 730 18 712 0 690 0 c 2
 500 0 l 2
 478 0 460 18 460 40 c 2
 460 370 l 2
 460 418 438 440 380 440 c 0
 364 440 343 439 318 436 c 1
 336 420 350 394 350 360 c 2
 350 150 l 1
 380 150 l 2
 396 150 410 136 410 120 c 2
 410 30 l 2
 410 14 396 0 380 0 c 2
 200 0 l 2
 120 0 90 42 90 90 c 2
 90 370 l 2
 90 390 86 397 79 397 c 1
 73 396 67 395 65 395 c 0
 54 395 49 403 45 415 c 2
 25 480 l 1
 25 480 20 497 20 505 c 0
EndSplineSet
Colour: ffff00
EndChar

StartChar: uni0E2E
Encoding: 439 3630 14
Width: 750
VWidth: 0
Flags: MW
LayerCount: 4
Layer: 2
SplineSet
30 260 m 0
 30 305 52 340 90 340 c 2
 320 340 l 1
 320 230 l 1
 275 230 l 1
 275 182 310 160 350 160 c 0
 408 160 430 210 430 300 c 0
 430 400 370 440 280 440 c 0
 208 440 144 416 100 400 c 1
 40 550 l 1
 40 550 158 620 360 620 c 0
 445 620 495 596 520 578 c 1
 539 602 550 636 550 680 c 1
 750 680 l 1
 750 599 709 531 640 486 c 1
 671 453 700 396 700 300 c 0
 700 123 564 -20 350 -20 c 0
 168 -20 30 70 30 260 c 0
EndSplineSet
Validated: 1
Layer: 3
SplineSet
30 260 m 0
 30 305 52 340 90 340 c 2
 290 340 l 2
 306 340 320 326 320 310 c 2
 320 260 l 2
 320 244 306 230 290 230 c 2
 275 230 l 1
 275 182 310 160 350 160 c 0
 408 160 430 210 430 300 c 0
 430 400 370 440 280 440 c 0
 220 440 182 427 160 420 c 0
 147 416 124 405 111 405 c 0
 96 405 91 423 86 435 c 2
 55 510 l 1
 55 510 50 522 50 535 c 0
 50 550 55 558 70 565 c 0
 82 570 184 620 360 620 c 0
 444 620 494 596 519 579 c 1
 539 604 548 634 548 650 c 0
 548 666 562 680 578 680 c 2
 715 680 l 2
 731 680 745 666 745 650 c 0
 745 589 706 528 640 486 c 1
 671 453 700 396 700 300 c 0
 700 123 564 -20 350 -20 c 0
 168 -20 30 70 30 260 c 0
EndSplineSet
Colour: ffff00
EndChar

StartChar: uni0E20
Encoding: 425 3616 15
Width: 770
VWidth: 0
Flags: MW
LayerCount: 4
Layer: 2
SplineSet
20 520 m 1
 20 520 178 620 380 620 c 0
 594 620 730 536 730 370 c 2
 730 0 l 1
 460 0 l 1
 460 370 l 2
 460 418 438 440 380 440 c 0
 367 440 349 439 327 437 c 1
 346 420 360 394 360 360 c 2
 360 90 l 2
 360 42 330 0 250 0 c 2
 40 0 l 1
 40 150 l 1
 100 150 l 1
 100 370 l 2
 100 391 96 399 87 399 c 1
 74 396 62 393 50 390 c 1
 20 520 l 1
EndSplineSet
Validated: 1
Layer: 3
SplineSet
20 505 m 0
 20 517 27 527 40 535 c 1
 40 535 192 620 380 620 c 0
 594 620 730 536 730 370 c 2
 730 40 l 2
 730 18 712 0 690 0 c 2
 500 0 l 2
 478 0 460 18 460 40 c 2
 460 370 l 2
 460 418 438 440 380 440 c 0
 366 440 348 439 327 437 c 1
 346 420 360 395 360 360 c 2
 360 90 l 2
 360 42 330 0 250 0 c 2
 70 0 l 2
 54 0 40 14 40 30 c 2
 40 120 l 2
 40 136 54 150 70 150 c 2
 100 150 l 1
 100 370 l 2
 100 391 95 399 87 399 c 1
 81 398 69 395 65 395 c 0
 54 395 49 403 45 415 c 2
 25 480 l 1
 25 480 20 497 20 505 c 0
EndSplineSet
Colour: ffff00
EndChar

StartChar: uni0E14
Encoding: 413 3604 16
Width: 790
VWidth: 0
Flags: MW
LayerCount: 4
Layer: 2
SplineSet
30 300 m 0
 30 471 162 620 410 620 c 0
 630 620 750 505 750 370 c 2
 750 0 l 1
 480 0 l 1
 480 360 l 2
 480 386 457 420 410 420 c 0
 354 420 310 380 310 300 c 0
 310 220 352 180 400 180 c 0
 411 180 421 182 430 185 c 1
 430 20 l 1
 401 1 364 -10 320 -10 c 0
 142 -10 30 129 30 300 c 0
EndSplineSet
Validated: 1
Layer: 3
SplineSet
30 300 m 4
 30 471 162 620 410 620 c 4
 630 620 750 505 750 370 c 6
 750 40 l 6
 750 18 732 0 710 0 c 6
 520 0 l 6
 498 0 480 18 480 40 c 6
 480 360 l 6
 480 386 457 420 410 420 c 4
 349 420 310 380 310 300 c 4
 310 212 360 180 390 180 c 4
 407 180 416 185 420 185 c 4
 426 185 430 182 430 170 c 6
 430 40 l 6
 430 25 415 11 400 5 c 4
 386 -0 360 -10 320 -10 c 4
 142 -10 30 129 30 300 c 4
EndSplineSet
Colour: ffff00
EndChar

StartChar: uni0E15
Encoding: 414 3605 17
Width: 810
VWidth: 0
Flags: MW
LayerCount: 4
Layer: 2
SplineSet
30 300 m 0
 30 471 137 610 310 610 c 0
 386 610 453 553 500 485 c 1
 500 600 l 1
 760 600 l 1
 760 0 l 1
 490 0 l 1
 490 334 l 1
 468 376 413 420 380 420 c 0
 344 420 310 380 310 300 c 0
 310 220 352 180 400 180 c 0
 411 180 421 182 430 185 c 1
 430 20 l 1
 401 1 364 -10 320 -10 c 0
 142 -10 30 129 30 300 c 0
EndSplineSet
Validated: 1
Layer: 3
SplineSet
30 300 m 4
 30 471 137 610 310 610 c 4
 386 610 453 553 500 485 c 5
 500 560 l 6
 500 582 518 600 540 600 c 6
 720 600 l 6
 742 600 760 582 760 560 c 6
 760 40 l 6
 760 18 742 0 720 0 c 6
 530 0 l 6
 508 0 490 18 490 40 c 6
 490 334 l 5
 468 376 413 420 380 420 c 4
 344 420 310 380 310 300 c 4
 310 212 360 180 390 180 c 4
 407 180 416 185 420 185 c 4
 426 185 430 182 430 170 c 6
 430 40 l 6
 430 25 415 11 400 5 c 4
 386 -0 360 -10 320 -10 c 4
 142 -10 30 129 30 300 c 4
EndSplineSet
Colour: ffff00
EndChar

StartChar: uni0E08
Encoding: 401 3592 19
Width: 710
VWidth: -360
Flags: MW
LayerCount: 4
Layer: 2
SplineSet
20 550 m 1
 20 550 138 620 340 620 c 0
 554 620 680 504 680 320 c 0
 680 149 555 -10 370 -10 c 0
 240 -10 190 0 190 0 c 1
 110 190 l 1
 50 190 l 1
 50 340 l 1
 240 340 l 2
 282 340 299 320 310 290 c 2
 353 168 l 1
 386 186 410 233 410 310 c 0
 410 395 360 440 270 440 c 0
 198 440 124 416 80 400 c 1
 20 550 l 1
EndSplineSet
Validated: 1
Layer: 3
SplineSet
30 535 m 0
 30 550 35 558 50 565 c 0
 62 570 164 620 340 620 c 0
 554 620 680 504 680 320 c 0
 680 149 555 -10 370 -10 c 0
 289 -10 267 -7 218 -3 c 0
 193 -1 178 27 173 40 c 2
 110 190 l 1
 80 190 l 2
 64 190 50 204 50 220 c 2
 50 310 l 2
 50 326 64 340 80 340 c 2
 240 340 l 2
 282 340 299 320 310 290 c 2
 353 168 l 1
 386 186 410 233 410 310 c 0
 410 395 360 440 270 440 c 0
 214 440 162 427 140 420 c 0
 127 416 104 405 91 405 c 0
 76 405 71 423 66 435 c 2
 35 510 l 1
 35 510 30 522 30 535 c 0
EndSplineSet
Colour: ffff00
EndChar

StartChar: uni0E09
Encoding: 402 3593 20
Width: 750
VWidth: 0
Flags: MW
LayerCount: 4
Layer: 2
SplineSet
30 550 m 1
 30 550 168 620 370 620 c 0
 584 620 710 536 710 370 c 2
 710 0 l 1
 460 0 l 1
 460 92 l 1
 432 51 358 -10 240 -10 c 0
 171 -10 90 26 90 130 c 2
 90 190 l 1
 50 190 l 1
 50 340 l 1
 260 340 l 2
 326 340 330 317 330 280 c 2
 330 210 l 2
 330 173 345 160 370 160 c 0
 396 160 420 177 440 204 c 1
 440 340 l 2
 440 411 374 440 290 440 c 0
 218 440 134 416 90 400 c 1
 30 550 l 1
EndSplineSet
Validated: 1
Layer: 3
SplineSet
40 535 m 4
 40 550 45 558 60 565 c 4
 72 570 194 620 370 620 c 4
 584 620 710 536 710 370 c 6
 710 40 l 6
 710 18 692 0 670 0 c 6
 500 0 l 6
 478 0 460 18 460 40 c 6
 460 92 l 5
 432 51 358 -10 240 -10 c 4
 171 -10 90 26 90 130 c 6
 90 190 l 5
 80 190 l 6
 64 190 50 204 50 220 c 6
 50 310 l 6
 50 326 64 340 80 340 c 6
 260 340 l 6
 326 340 330 317 330 280 c 6
 330 210 l 6
 330 173 345 160 370 160 c 4
 396 160 420 177 440 204 c 5
 440 340 l 6
 440 411 374 440 290 440 c 4
 234 440 177 427 155 420 c 4
 142 416 114 405 101 405 c 4
 86 405 81 423 76 435 c 6
 45 510 l 5
 45 510 40 522 40 535 c 4
EndSplineSet
Colour: ffff00
EndChar

StartChar: uni0E0A
Encoding: 403 3594 21
Width: 770
VWidth: -360
Flags: MW
LayerCount: 4
Layer: 2
SplineSet
50 220 m 0
 50 338 130 420 130 420 c 1
 50 420 l 1
 50 600 l 1
 260 600 l 2
 348 600 380 553 380 480 c 0
 380 397 320 317 320 220 c 0
 320 178 346 160 380 160 c 0
 414 160 440 177 440 220 c 2
 440 370 l 2
 440 410 435 430 410 430 c 2
 400 430 l 1
 400 530 l 1
 489 530 550 575 550 680 c 1
 750 680 l 1
 750 582 690 503 594 462 c 1
 658 440 710 382 710 350 c 2
 710 220 l 2
 710 54 581 -20 380 -20 c 0
 179 -20 50 60 50 220 c 0
EndSplineSet
Validated: 1
Layer: 3
SplineSet
50 220 m 0
 50 338 130 420 130 420 c 1
 80 420 l 2
 64 420 50 434 50 450 c 2
 50 570 l 2
 50 586 64 599 80 600 c 1
 260 600 l 2
 348 600 380 553 380 480 c 0
 380 397 320 317 320 220 c 0
 320 178 346 160 380 160 c 0
 414 160 440 177 440 220 c 2
 440 370 l 2
 440 410 434 426 420 430 c 0
 410 433 400 439 400 450 c 2
 400 510 l 2
 400 521 409 530 420 530 c 0
 512 530 548 618 548 650 c 0
 548 666 562 680 578 680 c 2
 715 680 l 2
 731 680 745 666 745 650 c 0
 745 576 688 503 595 462 c 1
 659 442 710 386 710 330 c 2
 710 220 l 2
 710 54 581 -20 380 -20 c 0
 179 -20 50 60 50 220 c 0
EndSplineSet
Colour: ffff00
EndChar

StartChar: uni0E0B
Encoding: 404 3595 22
Width: 780
VWidth: -360
Flags: MW
LayerCount: 4
Layer: 2
SplineSet
20 450 m 1
 20 610 l 1
 30 610 l 1
 130 550 l 1
 150 570 196 610 270 610 c 0
 357 610 410 553 410 480 c 0
 410 397 330 317 330 220 c 0
 330 177 356 160 390 160 c 0
 424 160 450 177 450 220 c 2
 450 370 l 2
 450 410 445 430 420 430 c 2
 415 430 l 1
 415 530 l 1
 504 530 560 575 560 680 c 1
 760 680 l 1
 760 582 700 503 604 462 c 1
 668 440 720 382 720 350 c 2
 720 220 l 2
 720 54 591 -20 390 -20 c 0
 189 -20 60 54 60 220 c 0
 60 333 190 369 190 425 c 0
 190 438 185 450 170 450 c 0
 141 450 118 419 110 400 c 1
 100 400 l 1
 20 450 l 1
EndSplineSet
Validated: 1
Layer: 3
SplineSet
20 460 m 2
 20 590 l 2
 20 598 25 607 33 607 c 0
 38 607 41 606 50 600 c 2
 130 550 l 1
 150 570 196 610 270 610 c 0
 357 610 410 553 410 480 c 0
 410 397 330 317 330 220 c 0
 330 177 356 160 390 160 c 0
 424 160 450 177 450 220 c 2
 450 370 l 2
 450 410 444 426 430 430 c 0
 420 433 415 439 415 450 c 2
 415 510 l 2
 415 521 419 530 430 530 c 0
 522 530 558 618 558 650 c 0
 558 666 572 680 588 680 c 2
 725 680 l 2
 741 680 755 666 755 650 c 0
 755 576 698 503 605 462 c 1
 669 442 720 386 720 330 c 2
 720 220 l 2
 720 54 591 -20 390 -20 c 0
 189 -20 60 54 60 220 c 0
 60 333 190 369 190 425 c 0
 190 438 185 450 170 450 c 0
 148 450 131 430 120 415 c 0
 116 409 112 400 100 400 c 0
 94 400 80 410 80 410 c 1
 35 435 l 2
 27 440 20 448 20 460 c 2
EndSplineSet
Colour: ffff00
EndChar

StartChar: uni0E0C
Encoding: 405 3596 23
Width: 1150
VWidth: 0
Flags: MW
LayerCount: 4
Layer: 2
SplineSet
20 520 m 1
 20 520 178 620 380 620 c 0
 594 620 730 536 730 370 c 2
 730 230 l 1
 747 205 766 190 790 190 c 0
 816 190 830 209 830 270 c 2
 830 600 l 1
 1100 600 l 1
 1100 210 l 2
 1100 64 1018 -10 900 -10 c 0
 796 -10 738 48 710 92 c 1
 710 0 l 1
 460 0 l 1
 460 370 l 2
 460 418 438 440 380 440 c 0
 366 440 344 439 318 436 c 1
 336 419 350 394 350 360 c 2
 350 150 l 1
 410 150 l 1
 410 0 l 1
 200 0 l 2
 120 0 90 42 90 90 c 2
 90 370 l 2
 90 389 86 396 79 397 c 1
 69 395 59 392 50 390 c 1
 20 520 l 1
EndSplineSet
Validated: 1
Layer: 3
SplineSet
20 505 m 0
 20 517 27 527 40 535 c 1
 40 535 192 620 380 620 c 0
 594 620 730 536 730 370 c 2
 730 230 l 1
 747 205 766 190 790 190 c 0
 816 190 830 209 830 270 c 2
 830 560 l 2
 830 582 848 600 870 600 c 2
 1060 600 l 2
 1082 600 1100 582 1100 560 c 2
 1100 210 l 2
 1100 64 1018 -10 900 -10 c 0
 796 -10 738 48 710 92 c 1
 710 40 l 2
 710 18 692 0 670 0 c 2
 500 0 l 2
 478 0 460 18 460 40 c 2
 460 370 l 2
 460 418 438 440 380 440 c 0
 364 440 343 439 318 436 c 1
 336 420 350 394 350 360 c 2
 350 150 l 1
 380 150 l 2
 396 150 410 136 410 120 c 2
 410 30 l 2
 410 14 396 0 380 0 c 2
 200 0 l 2
 120 0 90 42 90 90 c 2
 90 370 l 2
 90 390 86 397 79 397 c 1
 73 396 67 395 65 395 c 0
 54 395 49 403 45 415 c 2
 25 480 l 1
 25 480 20 497 20 505 c 0
EndSplineSet
Colour: ffff00
EndChar

StartChar: uni0E0D
Encoding: 406 3597 24
Width: 1150
VWidth: 0
Flags: MW
LayerCount: 4
Layer: 2
SplineSet
20 520 m 1
 20 520 178 620 380 620 c 0
 594 620 730 536 730 370 c 2
 730 220 l 2
 730 179 745 160 780 160 c 0
 815 160 830 179 830 220 c 2
 830 600 l 1
 1100 600 l 1
 1100 210 l 2
 1100 83 1012 -20 780 -20 c 0
 548 -20 460 83 460 210 c 2
 460 370 l 2
 460 418 438 440 380 440 c 0
 366 440 344 439 318 436 c 1
 336 419 350 394 350 360 c 2
 350 150 l 1
 410 150 l 1
 410 0 l 1
 200 0 l 2
 120 0 90 42 90 90 c 2
 90 370 l 2
 90 389 86 396 79 397 c 1
 69 395 59 392 50 390 c 1
 20 520 l 1
505 -180 m 1
 565 -45 l 1
 565 -45 657 -100 780 -100 c 0
 902 -100 995 -45 995 -45 c 1
 1055 -180 l 1
 1055 -180 962 -250 780 -250 c 0
 597 -250 505 -180 505 -180 c 1
EndSplineSet
Validated: 1
Layer: 3
SplineSet
20 505 m 0
 20 517 27 527 40 535 c 1
 40 535 192 620 380 620 c 0
 594 620 730 536 730 370 c 2
 730 220 l 2
 730 179 745 160 780 160 c 0
 815 160 830 179 830 220 c 2
 830 560 l 2
 830 582 848 600 870 600 c 2
 1060 600 l 2
 1082 600 1100 582 1100 560 c 2
 1100 210 l 2
 1100 83 1012 -20 780 -20 c 0
 548 -20 460 83 460 210 c 2
 460 370 l 2
 460 418 438 440 380 440 c 0
 364 440 343 439 318 436 c 1
 336 420 350 394 350 360 c 2
 350 150 l 1
 380 150 l 2
 396 150 410 136 410 120 c 2
 410 30 l 2
 410 14 396 0 380 0 c 2
 200 0 l 2
 120 0 90 42 90 90 c 2
 90 370 l 2
 90 390 86 397 78 397 c 1
 73 396 67 395 65 395 c 0
 54 395 49 403 45 415 c 2
 25 480 l 1
 25 480 20 497 20 505 c 0
510 -170 m 0
 510 -163 513 -154 515 -150 c 2
 550 -70 l 2
 554 -59 565 -55 575 -55 c 0
 582 -55 590 -58 595 -60 c 0
 601 -63 677 -100 780 -100 c 0
 883 -100 959 -63 965 -60 c 0
 970 -58 978 -55 985 -55 c 0
 995 -55 1006 -59 1010 -70 c 2
 1045 -150 l 2
 1047 -154 1050 -163 1050 -170 c 0
 1050 -180 1040 -192 1030 -196 c 0
 989 -214 917 -250 780 -250 c 0
 643 -250 571 -214 530 -196 c 0
 520 -192 510 -180 510 -170 c 0
EndSplineSet
Colour: ffff00
EndChar

StartChar: uni0E13
Encoding: 412 3603 25
Width: 1150
VWidth: -360
Flags: MW
LayerCount: 4
Layer: 2
SplineSet
20 520 m 1
 20 520 178 620 380 620 c 0
 594 620 730 536 730 370 c 2
 730 270 l 2
 730 209 744 190 770 190 c 0
 794 190 813 205 830 230 c 1
 830 600 l 1
 1100 600 l 1
 1100 0 l 1
 850 0 l 1
 850 92 l 1
 822 48 764 -10 660 -10 c 0
 542 -10 460 64 460 210 c 2
 460 370 l 2
 460 418 438 440 380 440 c 0
 366 440 344 439 318 436 c 1
 336 419 350 394 350 360 c 2
 350 150 l 1
 410 150 l 1
 410 0 l 1
 200 0 l 2
 120 0 90 42 90 90 c 2
 90 370 l 2
 90 389 86 396 79 397 c 1
 69 395 59 392 50 390 c 1
 20 520 l 1
EndSplineSet
Validated: 1
Layer: 3
SplineSet
20 505 m 0
 20 517 27 527 40 535 c 1
 40 535 192 620 380 620 c 0
 594 620 730 536 730 370 c 2
 730 270 l 2
 730 209 744 190 770 190 c 0
 794 190 813 205 830 230 c 1
 830 560 l 2
 830 582 848 600 870 600 c 2
 1060 600 l 2
 1082 600 1100 582 1100 560 c 2
 1100 40 l 2
 1100 18 1082 0 1060 0 c 2
 890 0 l 2
 868 0 850 18 850 40 c 2
 850 92 l 1
 822 48 764 -10 660 -10 c 0
 542 -10 460 64 460 210 c 2
 460 370 l 2
 460 418 438 440 380 440 c 0
 364 440 343 439 318 436 c 1
 336 420 350 394 350 360 c 2
 350 150 l 1
 380 150 l 2
 396 150 410 136 410 120 c 2
 410 30 l 2
 410 14 396 0 380 0 c 2
 200 0 l 2
 120 0 90 42 90 90 c 2
 90 370 l 2
 90 390 86 397 79 397 c 1
 73 396 67 395 65 395 c 0
 54 395 49 403 45 415 c 2
 25 480 l 1
 25 480 20 497 20 505 c 0
EndSplineSet
Colour: ffff00
EndChar

StartChar: uni0E12
Encoding: 411 3602 26
Width: 1180
VWidth: -360
Flags: MW
LayerCount: 4
Layer: 2
SplineSet
30 300 m 0
 30 471 137 610 310 610 c 0
 386 610 453 553 500 485 c 1
 500 600 l 1
 760 600 l 1
 760 230 l 1
 777 205 796 190 820 190 c 0
 846 190 860 209 860 270 c 2
 860 600 l 1
 1130 600 l 1
 1130 210 l 2
 1130 64 1048 -10 930 -10 c 0
 826 -10 768 48 740 92 c 1
 740 0 l 1
 490 0 l 1
 490 334 l 1
 468 376 413 420 380 420 c 0
 344 420 310 380 310 300 c 0
 310 220 352 180 400 180 c 0
 411 180 421 182 430 185 c 1
 430 20 l 1
 401 1 364 -10 320 -10 c 0
 142 -10 30 129 30 300 c 0
EndSplineSet
Validated: 1
Layer: 3
SplineSet
30 300 m 4
 30 471 137 610 310 610 c 4
 386 610 453 553 500 485 c 5
 500 560 l 6
 500 582 518 600 540 600 c 6
 720 600 l 6
 742 600 760 582 760 560 c 6
 760 230 l 5
 777 205 796 190 820 190 c 4
 846 190 860 209 860 270 c 6
 860 560 l 6
 860 582 878 600 900 600 c 6
 1090 600 l 6
 1112 600 1130 582 1130 560 c 6
 1130 210 l 6
 1130 64 1048 -10 930 -10 c 4
 826 -10 768 48 740 92 c 5
 740 40 l 6
 740 18 722 0 700 0 c 6
 530 0 l 6
 508 0 490 18 490 40 c 6
 490 334 l 5
 468 376 413 420 380 420 c 4
 344 420 310 380 310 300 c 4
 310 212 360 180 390 180 c 4
 407 180 416 185 420 185 c 4
 426 185 430 182 430 170 c 6
 430 40 l 6
 430 25 415 11 400 5 c 4
 386 -0 360 -10 320 -10 c 4
 142 -10 30 129 30 300 c 4
EndSplineSet
Colour: ffff00
EndChar

StartChar: uni0E11
Encoding: 410 3601 27
Width: 785
VWidth: 0
Flags: MW
LayerCount: 4
Layer: 2
SplineSet
20 450 m 1
 20 610 l 1
 30 610 l 1
 130 550 l 1
 150 570 196 610 270 610 c 0
 352 610 404 559 410 491 c 1
 448 553 504 610 580 610 c 0
 699 610 740 526 740 380 c 2
 740 0 l 1
 460 0 l 1
 460 330 l 2
 460 355 456 370 435 370 c 0
 395 370 365 291 350 220 c 1
 350 0 l 1
 70 0 l 1
 70 220 l 2
 70 333 190 369 190 425 c 0
 190 438 185 450 170 450 c 0
 141 450 118 419 110 400 c 1
 100 400 l 1
 20 450 l 1
EndSplineSet
Validated: 1
Layer: 3
SplineSet
20 460 m 2
 20 590 l 2
 20 598 25 607 33 607 c 0
 38 607 41 606 50 600 c 2
 130 550 l 1
 150 570 196 610 270 610 c 0
 352 610 404 559 410 491 c 1
 448 553 504 610 580 610 c 0
 699 610 740 526 740 380 c 2
 740 40 l 2
 740 18 722 0 700 0 c 2
 500 0 l 2
 478 0 460 18 460 40 c 2
 460 330 l 2
 460 355 456 370 435 370 c 0
 395 370 365 291 350 220 c 1
 350 40 l 2
 350 18 332 0 310 0 c 2
 110 0 l 2
 88 0 70 18 70 40 c 2
 70 220 l 2
 70 333 190 369 190 425 c 0
 190 438 185 450 170 450 c 0
 148 450 131 430 120 415 c 0
 116 409 112 400 100 400 c 0
 94 400 80 410 80 410 c 1
 35 435 l 2
 27 440 20 448 20 460 c 2
EndSplineSet
Colour: ffff00
EndChar

StartChar: uni0E24
Encoding: 429 3620 28
Width: 775
VWidth: 0
Flags: MW
LayerCount: 4
Layer: 2
SplineSet
20 520 m 1
 20 520 178 620 380 620 c 0
 594 620 730 536 730 370 c 2
 730 -240 l 1
 460 -240 l 1
 460 370 l 2
 460 418 438 440 380 440 c 0
 366 440 344 439 318 436 c 1
 336 419 350 394 350 360 c 2
 350 150 l 1
 410 150 l 1
 410 0 l 1
 200 0 l 2
 120 0 90 42 90 90 c 2
 90 370 l 2
 90 389 86 396 79 397 c 1
 69 395 59 392 50 390 c 1
 20 520 l 1
EndSplineSet
Validated: 1
Layer: 3
SplineSet
20 505 m 0
 20 517 27 527 40 535 c 1
 40 535 192 620 380 620 c 0
 594 620 730 536 730 370 c 2
 730 -200 l 2
 730 -222 712 -240 690 -240 c 2
 500 -240 l 2
 478 -240 460 -222 460 -200 c 2
 460 370 l 2
 460 418 438 440 380 440 c 0
 364 440 343 439 318 436 c 1
 336 420 350 394 350 360 c 2
 350 150 l 1
 380 150 l 2
 396 150 410 136 410 120 c 2
 410 30 l 2
 410 14 396 0 380 0 c 2
 200 0 l 2
 120 0 90 42 90 90 c 2
 90 370 l 2
 90 390 86 397 79 397 c 1
 73 396 67 395 65 395 c 0
 54 395 49 403 45 415 c 2
 25 480 l 1
 25 480 20 497 20 505 c 0
EndSplineSet
Colour: ffff00
EndChar

StartChar: uni0E26
Encoding: 431 3622 29
Width: 775
VWidth: 0
Flags: MW
LayerCount: 4
Layer: 2
SplineSet
20 520 m 1
 20 520 178 620 380 620 c 0
 594 620 730 536 730 370 c 2
 730 -240 l 1
 460 -240 l 1
 460 370 l 2
 460 418 438 440 380 440 c 0
 367 440 349 439 327 437 c 1
 346 420 360 394 360 360 c 2
 360 90 l 2
 360 42 330 0 250 0 c 2
 40 0 l 1
 40 150 l 1
 100 150 l 1
 100 370 l 2
 100 391 96 399 87 399 c 1
 74 396 62 393 50 390 c 1
 20 520 l 1
EndSplineSet
Validated: 1
Layer: 3
SplineSet
20 505 m 0
 20 517 27 527 40 535 c 1
 40 535 192 620 380 620 c 0
 594 620 730 536 730 370 c 2
 730 -200 l 2
 730 -222 712 -240 690 -240 c 2
 500 -240 l 2
 478 -240 460 -222 460 -200 c 2
 460 370 l 2
 460 418 438 440 380 440 c 0
 366 440 348 439 327 437 c 1
 346 420 360 395 360 360 c 2
 360 90 l 2
 360 42 330 0 250 0 c 2
 70 0 l 2
 54 0 40 14 40 30 c 2
 40 120 l 2
 40 136 54 150 70 150 c 2
 100 150 l 1
 100 370 l 2
 100 391 95 399 87 399 c 1
 81 398 69 395 65 395 c 0
 54 395 49 403 45 415 c 2
 25 480 l 1
 25 480 20 497 20 505 c 0
EndSplineSet
Colour: ffff00
EndChar

StartChar: uni0E28
Encoding: 433 3624 31
Width: 800
VWidth: 0
Flags: MW
LayerCount: 4
Layer: 2
SplineSet
40 0 m 1
 40 370 l 2
 40 536 176 620 390 620 c 0
 474 620 534 597 570 578 c 1
 589 602 600 636 600 680 c 1
 800 680 l 1
 800 600 760 532 692 488 c 1
 719 458 740 417 740 370 c 2
 740 0 l 1
 470 0 l 1
 470 360 l 2
 470 408 434 430 390 430 c 0
 346 430 310 408 310 360 c 2
 310 290 l 1
 328 317 351 340 380 340 c 0
 402 340 410 335 420 330 c 1
 420 160 l 1
 412 162 401 165 385 165 c 0
 351 165 324 145 310 124 c 1
 310 0 l 1
 40 0 l 1
EndSplineSet
Validated: 1
Layer: 3
SplineSet
40 40 m 2
 40 370 l 2
 40 536 176 620 390 620 c 0
 473 620 533 598 569 578 c 1
 589 604 598 634 598 650 c 0
 598 666 612 680 628 680 c 2
 765 680 l 2
 781 680 795 666 795 650 c 0
 795 590 757 530 692 488 c 1
 719 458 740 417 740 370 c 2
 740 40 l 2
 740 18 722 0 700 0 c 2
 510 0 l 2
 488 0 470 18 470 40 c 2
 470 360 l 2
 470 408 434 430 390 430 c 0
 346 430 310 408 310 360 c 2
 310 290 l 1
 328 317 351 340 380 340 c 0
 391 340 399 338 405 335 c 0
 415 330 420 319 420 310 c 2
 420 175 l 2
 420 167 412 162 405 163 c 0
 399 164 393 165 380 165 c 0
 349 165 323 146 310 125 c 1
 310 40 l 2
 310 18 292 0 270 0 c 2
 80 0 l 2
 58 0 40 18 40 40 c 2
EndSplineSet
Colour: ffff00
EndChar

StartChar: uni0E29
Encoding: 434 3625 32
Width: 830
VWidth: -360
Flags: MW
LayerCount: 4
Layer: 2
SplineSet
45 230 m 2
 45 600 l 1
 315 600 l 1
 315 240 l 2
 315 192 351 170 395 170 c 0
 439 170 475 192 475 240 c 2
 475 290 l 1
 375 290 l 1
 375 430 l 1
 475 430 l 1
 475 600 l 1
 735 600 l 1
 735 430 l 1
 815 430 l 1
 815 290 l 1
 745 290 l 1
 745 230 l 2
 745 64 609 -20 395 -20 c 0
 181 -20 45 64 45 230 c 2
EndSplineSet
Validated: 1
Layer: 3
SplineSet
45 230 m 2
 45 560 l 2
 45 582 63 600 85 600 c 2
 285 600 l 2
 307 600 325 582 325 560 c 2
 325 240 l 2
 325 192 351 170 395 170 c 0
 439 170 475 192 475 240 c 2
 475 290 l 1
 405 290 l 2
 388 290 375 304 375 320 c 2
 375 400 l 2
 375 416 389 429 405 430 c 2
 475 430 l 1
 475 560 l 2
 475 582 493 600 515 600 c 2
 695 600 l 2
 717 600 735 582 735 560 c 2
 735 430 l 1
 785 430 l 2
 801 429 815 416 815 400 c 2
 815 320 l 2
 815 304 802 290 785 290 c 2
 745 290 l 1
 745 230 l 2
 745 64 609 -20 395 -20 c 0
 181 -20 45 64 45 230 c 2
EndSplineSet
Colour: ffff00
EndChar

StartChar: uni0E2B
Encoding: 436 3627 33
Width: 740
VWidth: -360
Flags: MW
LayerCount: 4
Layer: 2
SplineSet
50 0 m 1
 50 600 l 1
 320 600 l 1
 320 430 l 1
 375 430 l 1
 440 600 l 1
 700 600 l 1
 700 590 l 1
 607 410 l 1
 656 382 669 327 680 280 c 1
 730 0 l 1
 440 0 l 1
 420 190 l 1
 415 249 404 280 350 280 c 2
 320 280 l 1
 320 0 l 1
 50 0 l 1
EndSplineSet
Validated: 1
Layer: 3
SplineSet
50 40 m 2
 50 560 l 2
 50 582 68 600 90 600 c 2
 280 600 l 2
 302 600 320 582 320 560 c 2
 320 430 l 1
 375 430 l 1
 425 560 l 2
 436 587 451 600 480 600 c 2
 650 600 l 2
 675 600 690 590 690 575 c 0
 690 571 688 565 685 560 c 2
 607 410 l 1
 656 382 669 327 680 280 c 1
 715 85 l 2
 716 78 725 40 725 30 c 0
 725 15 712 0 687 0 c 2
 479 0 l 2
 450 0 438 12 435 40 c 2
 420 190 l 2
 415 249 404 280 350 280 c 2
 320 280 l 1
 320 40 l 2
 320 18 302 0 280 0 c 2
 90 0 l 2
 68 0 50 18 50 40 c 2
EndSplineSet
Colour: ffff00
EndChar

StartChar: uni0E1F
Encoding: 424 3615 35
Width: 1040
VWidth: -360
Flags: MW
LayerCount: 4
Layer: 2
SplineSet
10 600 m 1
 295 600 l 1
 350 270 l 1
 355 230 l 1
 365 230 l 1
 370 270 l 1
 450 600 l 1
 525 600 l 1
 600 600 l 1
 680 270 l 1
 685 230 l 1
 695 230 l 1
 700 270 l 1
 770 840 l 1
 1040 840 l 1
 880 0 l 1
 590 0 l 1
 525 250 l 1
 460 0 l 1
 180 0 l 1
 10 600 l 1
EndSplineSet
Validated: 1
Layer: 3
SplineSet
15 580 m 0
 15 595 30 600 60 600 c 2
 260 600 l 2
 289 600 300 587 305 560 c 2
 350 270 l 1
 355 230 l 1
 365 230 l 1
 370 270 l 1
 440 560 l 2
 445 584 451 600 480 600 c 2
 525 600 l 1
 570 600 l 2
 599 600 605 584 610 560 c 2
 680 270 l 1
 685 230 l 1
 695 230 l 1
 700 270 l 1
 765 800 l 1
 770 827 781 840 810 840 c 2
 990 840 l 2
 1020 840 1035 835 1035 820 c 0
 1035 811 1031 795 1030 790 c 2
 890 40 l 2
 885 18 875 0 845 0 c 2
 625 0 l 2
 598 0 588 16 580 40 c 1
 525 250 l 1
 470 40 l 1
 462 16 452 0 425 0 c 2
 215 0 l 2
 185 0 176 19 170 40 c 2
 20 560 l 2
 18 565 15 575 15 580 c 0
EndSplineSet
Colour: ffff00
EndChar

StartChar: uni0E1D
Encoding: 422 3613 36
Width: 930
VWidth: 0
Flags: MW
LayerCount: 4
Layer: 2
SplineSet
30 300 m 0
 30 471 132 610 310 610 c 0
 364 610 411 599 440 580 c 1
 400 415 l 1
 391 418 381 420 370 420 c 0
 327 420 300 380 300 300 c 0
 300 255 313 222 334 203 c 1
 425 350 l 1
 470 350 l 1
 515 350 l 1
 600 213 l 1
 600 840 l 1
 870 840 l 1
 870 0 l 1
 570 0 l 1
 470 150 l 1
 370 0 l 1
 210 0 l 1
 136 22 30 130 30 300 c 0
EndSplineSet
Validated: 1
Layer: 3
SplineSet
30 300 m 0
 30 471 132 610 310 610 c 0
 364 610 407 598 420 590 c 0
 429 585 435 576 435 562 c 0
 435 556 432 545 432 545 c 1
 406 440 l 2
 402 425 386 420 370 420 c 0
 327 420 300 380 300 300 c 0
 300 255 313 222 334 203 c 1
 400 310 l 2
 418 339 428 350 445 350 c 2
 470 350 l 1
 495 350 l 2
 512 350 522 339 540 310 c 2
 600 213 l 1
 600 800 l 2
 600 822 618 840 640 840 c 2
 830 840 l 2
 852 840 870 822 870 800 c 2
 870 40 l 2
 870 18 852 0 830 0 c 2
 600 0 l 2
 574 0 558 16 543 40 c 2
 470 150 l 1
 397 40 l 2
 382 16 366 0 340 0 c 2
 340 0 259 0 230 0 c 0
 149 0 30 130 30 300 c 0
EndSplineSet
Colour: ffff00
EndChar

StartChar: uni0E1C
Encoding: 421 3612 37
Width: 920
VWidth: 0
Flags: MW
LayerCount: 4
Layer: 2
SplineSet
30 300 m 0
 30 471 132 610 310 610 c 0
 364 610 411 599 440 580 c 1
 400 415 l 1
 391 418 381 420 370 420 c 0
 327 420 300 380 300 300 c 0
 300 255 313 222 334 203 c 1
 425 350 l 1
 470 350 l 1
 515 350 l 1
 600 213 l 1
 600 600 l 1
 870 600 l 1
 870 0 l 1
 570 0 l 1
 470 150 l 1
 370 0 l 1
 210 0 l 1
 136 22 30 130 30 300 c 0
EndSplineSet
Validated: 1
Layer: 3
SplineSet
30 300 m 0
 30 471 132 610 310 610 c 0
 364 610 407 598 420 590 c 0
 429 585 435 576 435 562 c 0
 435 556 432 545 432 545 c 1
 406 440 l 2
 402 425 386 420 370 420 c 0
 327 420 300 380 300 300 c 0
 300 255 313 222 334 203 c 1
 400 310 l 2
 418 339 428 350 445 350 c 2
 470 350 l 1
 495 350 l 2
 512 350 522 339 540 310 c 2
 600 213 l 1
 600 560 l 2
 600 582 618 600 640 600 c 2
 830 600 l 2
 852 600 870 582 870 560 c 2
 870 40 l 2
 870 18 852 0 830 0 c 2
 600 0 l 2
 574 0 558 16 543 40 c 2
 470 150 l 1
 397 40 l 2
 382 16 366 0 340 0 c 2
 340 0 259 0 230 0 c 0
 149 0 30 130 30 300 c 0
EndSplineSet
Colour: ffff00
EndChar

StartChar: uni0E25
Encoding: 430 3621 38
Width: 740
VWidth: 0
Flags: MW
LayerCount: 4
Layer: 2
SplineSet
30 180 m 0
 30 288 104 370 250 370 c 0
 347 370 403 335 430 311 c 1
 430 360 l 2
 430 421 378 440 300 440 c 0
 222 440 144 416 100 400 c 1
 40 550 l 1
 40 550 168 620 370 620 c 0
 584 620 700 536 700 370 c 2
 700 0 l 1
 430 0 l 1
 430 208 l 1
 412 222 392 230 360 230 c 0
 328 230 300 215 300 180 c 0
 300 145 328 130 360 130 c 0
 371 130 381 132 390 135 c 1
 390 25 l 1
 358 6 313 -10 250 -10 c 0
 104 -10 30 72 30 180 c 0
EndSplineSet
Validated: 1
Layer: 3
SplineSet
30 180 m 4
 30 288 104 370 250 370 c 4
 347 370 403 335 430 311 c 5
 430 360 l 6
 430 421 378 440 300 440 c 4
 251 440 191 427 160 415 c 4
 147 410 124 400 111 400 c 4
 96 400 91 418 86 430 c 6
 55 510 l 5
 55 510 50 522 50 535 c 4
 50 550 55 558 70 565 c 4
 82 570 194 620 370 620 c 4
 584 620 700 536 700 370 c 6
 700 40 l 6
 700 18 682 0 660 0 c 6
 470 0 l 6
 448 0 430 18 430 40 c 6
 430 208 l 5
 412 222 392 230 360 230 c 4
 328 230 300 215 300 180 c 4
 300 142 328 130 350 130 c 4
 366 130 374 135 380 135 c 4
 386 135 390 132 390 120 c 6
 390 40 l 6
 390 25 375 16 360 10 c 4
 331 -1 294 -10 250 -10 c 4
 104 -10 30 72 30 180 c 4
EndSplineSet
Colour: ffff00
EndChar

StartChar: uni0E2A
Encoding: 435 3626 39
Width: 760
VWidth: 0
Flags: MW
LayerCount: 4
Layer: 2
SplineSet
30 180 m 0
 30 288 104 370 250 370 c 0
 347 370 403 335 430 311 c 1
 430 360 l 2
 430 421 378 440 300 440 c 0
 222 440 144 416 100 400 c 1
 40 550 l 1
 40 550 168 620 370 620 c 0
 443 620 498 600 533 582 c 1
 550 606 560 638 560 680 c 1
 760 680 l 1
 760 599 719 531 651 487 c 1
 675 462 700 423 700 370 c 2
 700 0 l 1
 430 0 l 1
 430 208 l 1
 412 222 392 230 360 230 c 0
 328 230 300 215 300 180 c 0
 300 145 328 130 360 130 c 0
 371 130 381 132 390 135 c 1
 390 25 l 1
 358 6 313 -10 250 -10 c 0
 104 -10 30 72 30 180 c 0
EndSplineSet
Validated: 1
Layer: 3
SplineSet
30 180 m 4
 30 288 104 370 250 370 c 4
 347 370 403 335 430 311 c 5
 430 360 l 6
 430 421 378 440 300 440 c 4
 251 440 191 427 160 415 c 4
 147 410 124 400 111 400 c 4
 96 400 91 418 86 430 c 6
 55 510 l 5
 55 510 50 522 50 535 c 4
 50 550 55 558 70 565 c 4
 82 570 194 620 370 620 c 4
 442 620 497 601 532 582 c 5
 550 607 558 635 558 650 c 4
 558 666 572 680 588 680 c 6
 725 680 l 6
 741 680 755 666 755 650 c 4
 755 589 717 529 651 487 c 5
 675 462 700 423 700 370 c 6
 700 40 l 6
 700 18 682 0 660 0 c 6
 470 0 l 6
 448 0 430 18 430 40 c 6
 430 208 l 5
 412 222 392 230 360 230 c 4
 328 230 300 215 300 180 c 4
 300 142 328 130 350 130 c 4
 366 130 374 135 380 135 c 4
 386 135 390 132 390 120 c 6
 390 40 l 6
 390 25 375 16 360 10 c 4
 331 -1 294 -10 250 -10 c 4
 104 -10 30 72 30 180 c 4
EndSplineSet
Colour: ffff00
EndChar

StartChar: uni0E2C
Encoding: 437 3628 40
Width: 1040
VWidth: -360
Flags: MW
LayerCount: 4
Layer: 2
SplineSet
10 600 m 1
 295 600 l 1
 350 270 l 1
 355 230 l 1
 365 230 l 1
 370 270 l 1
 450 600 l 1
 525 600 l 1
 600 600 l 1
 680 270 l 1
 685 230 l 1
 695 230 l 1
 700 270 l 1
 721 400 l 1
 721 400 725 429 725 445 c 0
 725 460 721 483 700 490 c 1
 730 600 l 1
 794 600 860 608 860 710 c 1
 1060 710 l 1
 1060 580 957 521 893 500 c 1
 940 487 975 454 975 400 c 0
 975 367 955 300 955 300 c 1
 870 0 l 1
 590 0 l 1
 525 250 l 1
 460 0 l 1
 180 0 l 1
 10 600 l 1
EndSplineSet
Validated: 1
Layer: 3
SplineSet
15 580 m 0
 15 595 30 600 60 600 c 2
 260 600 l 2
 289 600 300 587 305 560 c 2
 350 270 l 1
 355 230 l 1
 365 230 l 1
 370 270 l 1
 440 560 l 2
 445 584 451 600 480 600 c 2
 525 600 l 1
 570 600 l 2
 599 600 605 584 610 560 c 2
 680 270 l 1
 685 230 l 1
 695 230 l 1
 700 270 l 1
 721 400 l 1
 721 400 725 429 725 445 c 0
 725 469 716 484 708 490 c 1
 708 490 703 493 703 503 c 0
 703 508 710 530 710 530 c 1
 727 590 l 2
 730 598 733 600 744 600 c 0
 792 600 845 610 858 680 c 0
 861 694 871 710 890 710 c 2
 1025 710 l 2
 1041 710 1055 696 1055 680 c 0
 1055 584 958 522 894 499 c 1
 940 487 975 454 975 400 c 0
 975 367 955 300 955 300 c 1
 880 40 l 2
 874 19 865 0 835 0 c 2
 625 0 l 2
 598 0 588 16 580 40 c 1
 525 250 l 1
 470 40 l 1
 462 16 452 0 425 0 c 2
 215 0 l 2
 185 0 176 19 170 40 c 2
 20 560 l 2
 18 565 15 575 15 580 c 0
EndSplineSet
Colour: ffff00
EndChar

StartChar: uni0E22
Encoding: 427 3618 41
Width: 775
VWidth: -360
Flags: MW
LayerCount: 4
Layer: 2
SplineSet
30 190 m 0
 30 250 57 289 100 314 c 1
 56 340 30 379 30 430 c 0
 30 525 104 610 250 610 c 0
 315 610 360 593 390 575 c 1
 390 465 l 1
 381 467 361 470 350 470 c 0
 318 470 290 460 290 425 c 0
 290 390 318 380 350 380 c 2
 390 380 l 1
 390 360 l 1
 390 280 l 1
 390 260 l 1
 334 260 290 245 290 205 c 0
 290 165 332 150 380 150 c 0
 424 150 460 172 460 220 c 2
 460 600 l 1
 730 600 l 1
 730 230 l 2
 730 64 594 -20 380 -20 c 0
 146 -20 30 86 30 190 c 0
EndSplineSet
Validated: 1
Layer: 3
SplineSet
30 190 m 0
 30 250 57 289 100 314 c 1
 56 340 30 379 30 430 c 0
 30 524 102 610 250 610 c 0
 294 610 331 601 360 590 c 0
 375 584 390 575 390 560 c 2
 390 480 l 2
 390 468 386 465 380 465 c 0
 374 465 366 470 350 470 c 0
 328 470 290 465 290 425 c 0
 290 390 318 380 350 380 c 2
 360 380 l 2
 376 380 390 366 390 350 c 2
 390 290 l 2
 390 274 376 261 360 260 c 0
 319 257 290 238 290 205 c 0
 290 172 332 150 380 150 c 0
 424 150 460 172 460 220 c 2
 460 560 l 2
 460 582 478 600 500 600 c 2
 690 600 l 2
 712 600 730 582 730 560 c 2
 730 230 l 2
 730 64 594 -20 380 -20 c 0
 146 -20 30 86 30 190 c 0
EndSplineSet
Colour: ffff00
EndChar

StartChar: uni0E10
Encoding: 409 3600 42
Width: 740
VWidth: 0
Flags: MW
LayerCount: 4
Layer: 2
SplineSet
20 550 m 1
 20 550 138 620 340 620 c 0
 396 620 437 608 466 595 c 1
 530 635 623 680 720 680 c 1
 720 510 l 1
 668 510 629 505 600 498 c 1
 636 462 680 397 680 320 c 0
 680 149 555 -10 370 -10 c 0
 240 -10 190 0 190 0 c 1
 110 190 l 1
 50 190 l 1
 50 340 l 1
 240 340 l 2
 282 340 299 320 310 290 c 2
 353 168 l 1
 386 186 410 233 410 310 c 0
 410 395 360 440 270 440 c 0
 198 440 124 416 80 400 c 1
 20 550 l 1
30 -190 m 1
 100 -70 l 1
 100 -70 126 -110 180 -110 c 0
 261 -110 300 -60 300 -60 c 1
 380 -60 l 1
 470 -144 l 1
 470 -60 l 1
 650 -60 l 1
 650 -240 l 1
 500 -240 l 1
 470 -240 l 1
 430 -240 l 1
 360 -181 l 1
 308 -226 244 -250 180 -250 c 0
 82 -250 30 -190 30 -190 c 1
EndSplineSet
Validated: 1
Layer: 3
SplineSet
30 535 m 0
 30 550 35 558 50 565 c 0
 62 570 164 620 340 620 c 0
 396 620 438 608 467 595 c 1
 525 633 614 678 690 678 c 0
 706 678 720 664 720 648 c 2
 720 540 l 2
 720 524 706 510 690 510 c 0
 653 510 623 506 599 499 c 1
 635 463 680 398 680 320 c 0
 680 149 555 -10 370 -10 c 0
 289 -10 267 -7 218 -3 c 0
 193 -1 178 27 173 40 c 2
 110 190 l 1
 80 190 l 2
 64 190 50 204 50 220 c 2
 50 310 l 2
 50 326 64 340 80 340 c 2
 240 340 l 2
 282 340 299 320 310 290 c 2
 353 168 l 1
 386 186 410 233 410 310 c 0
 410 395 360 440 270 440 c 0
 214 440 162 427 140 420 c 0
 127 416 104 405 91 405 c 0
 76 405 71 423 66 435 c 2
 35 510 l 1
 35 510 30 522 30 535 c 0
35 -190 m 0
 35 -181 40 -173 43 -167 c 2
 82 -101 l 2
 88 -90 95 -80 105 -80 c 0
 114 -80 123 -89 125 -90 c 0
 130 -93 156 -110 185 -110 c 0
 249 -110 280 -79 290 -70 c 0
 296 -65 302 -60 310 -60 c 2
 365 -60 l 2
 374 -60 378 -63 385 -70 c 2
 470 -146 l 1
 470 -90 l 2
 470 -74 484 -60 500 -60 c 2
 620 -60 l 2
 636 -60 650 -74 650 -90 c 2
 650 -210 l 2
 650 -226 636 -240 620 -240 c 2
 500 -240 l 1
 470 -240 l 1
 440 -240 l 2
 429 -240 425 -239 415 -230 c 2
 359 -181 l 1
 307 -226 244 -250 180 -250 c 0
 108 -250 62 -219 50 -210 c 0
 42 -204 35 -199 35 -190 c 0
EndSplineSet
Colour: ffff00
EndChar

StartChar: uni0E18
Encoding: 417 3608 44
Width: 720
VWidth: -360
Flags: MW
LayerCount: 4
Layer: 2
SplineSet
40 420 m 0
 40 540 164 620 340 620 c 0
 516 620 630 570 660 550 c 1
 600 420 l 1
 530 453 429 470 370 470 c 0
 346 470 320 466 320 450 c 0
 320 428 342 426 360 420 c 0
 386 411 509 379 540 370 c 0
 624 344 690 293 690 180 c 0
 690 55 559 -20 390 -20 c 0
 221 -20 90 30 60 50 c 1
 60 250 l 1
 241 250 l 1
 213 257 187 265 170 270 c 0
 87 296 40 337 40 420 c 0
300 133 m 1
 321 131 340 130 355 130 c 0
 401 130 430 141 430 165 c 0
 430 199 394 212 360 220 c 0
 349 223 327 228 300 235 c 1
 300 133 l 1
EndSplineSet
Validated: 1
Layer: 3
SplineSet
40 420 m 0
 40 540 164 620 340 620 c 0
 504 620 601 579 610 575 c 0
 637 564 650 553 650 535 c 0
 650 523 644 509 640 500 c 2
 615 450 l 2
 610 438 600 425 585 425 c 0
 571 425 553 436 525 445 c 0
 487 457 429 470 370 470 c 0
 346 470 320 466 320 450 c 0
 320 428 342 426 360 420 c 0
 386 411 509 379 540 370 c 0
 624 344 690 293 690 180 c 0
 690 55 559 -20 390 -20 c 0
 221 -20 60 30 60 70 c 2
 60 210 l 2
 60 232 78 250 100 250 c 2
 241 250 l 1
 213 257 187 265 170 270 c 0
 87 296 40 337 40 420 c 0
300 133 m 1
 321 131 340 130 355 130 c 0
 401 130 430 141 430 165 c 0
 430 199 394 212 360 220 c 0
 349 223 327 228 300 235 c 1
 300 133 l 1
EndSplineSet
Colour: ffff00
EndChar

StartChar: uni0E0E
Encoding: 407 3598 45
Width: 775
VWidth: 0
Flags: MW
LayerCount: 4
Layer: 2
SplineSet
20 520 m 1
 20 520 178 620 380 620 c 0
 594 620 730 536 730 370 c 2
 730 -240 l 1
 490 -240 l 1
 490 -240 381 -190 240 -190 c 0
 142 -190 80 -240 80 -240 c 1
 40 -110 l 1
 40 -110 90 -50 230 -50 c 0
 332 -50 410 -79 460 -104 c 1
 460 370 l 2
 460 418 438 440 380 440 c 0
 367 440 349 439 327 437 c 1
 346 420 360 394 360 360 c 2
 360 90 l 2
 360 42 330 0 250 0 c 2
 40 0 l 1
 40 150 l 1
 100 150 l 1
 100 370 l 2
 100 391 96 399 87 399 c 1
 74 396 62 393 50 390 c 1
 20 520 l 1
EndSplineSet
Validated: 1
Layer: 3
SplineSet
20 505 m 0
 20 517 27 527 40 535 c 1
 40 535 192 620 380 620 c 0
 594 620 730 536 730 370 c 2
 730 -200 l 2
 730 -222 712 -240 690 -240 c 2
 490 -240 l 1
 490 -240 381 -190 240 -190 c 0
 173 -190 125 -214 113 -220 c 0
 110 -222 96 -230 90 -230 c 0
 80 -230 73 -225 70 -215 c 2
 45 -135 l 2
 43 -129 40 -120 40 -114 c 0
 40 -103 49 -96 60 -90 c 0
 72 -83 123 -50 230 -50 c 0
 332 -50 410 -79 460 -104 c 1
 460 370 l 2
 460 418 438 440 380 440 c 0
 366 440 348 439 327 437 c 1
 346 420 360 395 360 360 c 2
 360 90 l 2
 360 42 330 0 250 0 c 2
 70 0 l 2
 54 0 40 14 40 30 c 2
 40 120 l 2
 40 136 54 150 70 150 c 2
 100 150 l 1
 100 370 l 2
 100 391 95 399 87 399 c 1
 81 398 69 395 65 395 c 0
 54 395 49 403 45 415 c 2
 25 480 l 1
 25 480 20 497 20 505 c 0
EndSplineSet
Colour: ffff00
EndChar

StartChar: uni0E0F
Encoding: 408 3599 46
Width: 775
VWidth: 0
Flags: MW
LayerCount: 4
Layer: 2
SplineSet
20 520 m 1
 20 520 178 620 380 620 c 0
 594 620 730 536 730 370 c 2
 730 -240 l 1
 510 -240 l 1
 460 -240 l 1
 440 -240 l 1
 370 -181 l 1
 318 -226 254 -250 190 -250 c 0
 92 -250 40 -190 40 -190 c 1
 110 -70 l 1
 110 -70 136 -110 190 -110 c 0
 271 -110 310 -60 310 -60 c 1
 390 -60 l 1
 460 -125 l 1
 460 370 l 2
 460 418 438 440 380 440 c 0
 367 440 349 439 327 437 c 1
 346 420 360 394 360 360 c 2
 360 90 l 2
 360 42 330 0 250 0 c 2
 40 0 l 1
 40 150 l 1
 100 150 l 1
 100 370 l 2
 100 391 96 399 87 399 c 1
 74 396 62 393 50 390 c 1
 20 520 l 1
EndSplineSet
Validated: 1
Layer: 3
SplineSet
20 505 m 0
 20 517 27 527 40 535 c 1
 40 535 192 620 380 620 c 0
 594 620 730 536 730 370 c 2
 730 -200 l 2
 730 -222 712 -240 690 -240 c 2
 510 -240 l 1
 450 -240 l 2
 439 -240 435 -239 425 -230 c 2
 369 -181 l 1
 317 -226 254 -250 190 -250 c 0
 118 -250 72 -219 60 -210 c 0
 52 -204 45 -199 45 -190 c 0
 45 -181 50 -173 53 -167 c 2
 92 -101 l 2
 98 -90 105 -80 115 -80 c 0
 124 -80 133 -89 135 -90 c 0
 140 -93 166 -110 195 -110 c 0
 259 -110 290 -79 300 -70 c 0
 306 -65 312 -60 320 -60 c 2
 375 -60 l 2
 384 -60 388 -63 395 -70 c 2
 460 -128 l 1
 460 370 l 2
 460 418 438 440 380 440 c 0
 366 440 348 439 327 437 c 1
 346 420 360 395 360 360 c 2
 360 90 l 2
 360 42 330 0 250 0 c 2
 70 0 l 2
 54 0 40 14 40 30 c 2
 40 120 l 2
 40 136 54 150 70 150 c 2
 100 150 l 1
 100 370 l 2
 100 391 95 399 87 399 c 1
 81 398 69 395 65 395 c 0
 54 395 49 403 45 415 c 2
 25 480 l 1
 25 480 20 497 20 505 c 0
EndSplineSet
Colour: ffff00
EndChar

StartChar: uni0E31
Encoding: 442 3633 47
Width: 0
VWidth: 0
Flags: MW
LayerCount: 4
Layer: 2
SplineSet
-510 780 m 0
 -510 836 -475 900 -475 900 c 1
 -285 900 l 1
 -305 840 l 1
 -30 840 l 1
 -30 690 l 1
 -400 690 l 2
 -461 690 -510 722 -510 780 c 0
EndSplineSet
Validated: 1
Layer: 3
SplineSet
-510 780 m 0
 -510 821 -489 870 -489 870 c 1
 -483 886 -469 900 -449 900 c 2
 -315 900 l 2
 -299 900 -289 887 -295 870 c 2
 -305 840 l 1
 -60 840 l 2
 -44 840 -30 826 -30 810 c 2
 -30 720 l 2
 -30 704 -44 690 -60 690 c 2
 -400 690 l 2
 -461 690 -510 722 -510 780 c 0
EndSplineSet
Colour: ffff00
EndChar

StartChar: uni0E34
Encoding: 445 3636 48
Width: 0
VWidth: 0
Flags: MW
LayerCount: 4
Layer: 2
SplineSet
-590 690 m 1
 -590 840 l 1
 -90 840 l 1
 -90 690 l 1
 -590 690 l 1
EndSplineSet
Validated: 1
Layer: 3
SplineSet
-590 720 m 2
 -590 810 l 2
 -590 826 -576 840 -560 840 c 2
 -120 840 l 2
 -104 840 -90 826 -90 810 c 2
 -90 720 l 2
 -90 704 -104 690 -120 690 c 2
 -560 690 l 2
 -576 690 -590 704 -590 720 c 2
EndSplineSet
Colour: ffff00
EndChar

StartChar: uni0E35
Encoding: 446 3637 49
Width: 0
VWidth: 0
Flags: MW
LayerCount: 4
Layer: 2
SplineSet
-600 690 m 1
 -600 840 l 1
 -370 840 l 2
 -314 840 -290 800 -290 800 c 1
 -290 920 l 1
 -90 920 l 1
 -90 690 l 1
 -600 690 l 1
EndSplineSet
Validated: 1
Layer: 3
SplineSet
-600 720 m 2
 -600 810 l 2
 -600 826 -586 840 -570 840 c 2
 -370 840 l 2
 -314 840 -290 800 -290 800 c 1
 -290 890 l 2
 -290 906 -276 920 -260 920 c 2
 -120 920 l 2
 -104 920 -90 906 -90 890 c 2
 -90 720 l 2
 -90 704 -104 690 -120 690 c 2
 -570 690 l 2
 -586 690 -600 704 -600 720 c 2
EndSplineSet
Colour: ffff00
EndChar

StartChar: uni0E36
Encoding: 447 3638 50
Width: 0
VWidth: 0
Flags: MW
LayerCount: 4
Layer: 2
SplineSet
-610 690 m 1
 -610 840 l 1
 -410 840 l 2
 -384 840 -363 819 -349 798 c 1
 -350 802 -350 806 -350 810 c 0
 -350 882 -296 930 -210 930 c 0
 -124 930 -70 882 -70 810 c 0
 -70 738 -124 690 -210 690 c 2
 -610 690 l 1
-250 810 m 0
 -250 784 -233 770 -210 770 c 0
 -187 770 -170 784 -170 810 c 0
 -170 836 -187 850 -210 850 c 0
 -233 850 -250 836 -250 810 c 0
EndSplineSet
Validated: 1
Layer: 3
SplineSet
-610 720 m 2
 -610 810 l 2
 -610 826 -596 840 -580 840 c 2
 -410 840 l 2
 -384 840 -363 819 -349 798 c 1
 -350 802 -350 806 -350 810 c 0
 -350 882 -296 930 -210 930 c 0
 -124 930 -70 882 -70 810 c 0
 -70 738 -124 690 -210 690 c 2
 -580 690 l 2
 -596 690 -610 704 -610 720 c 2
-250 810 m 0
 -250 784 -233 770 -210 770 c 0
 -187 770 -170 784 -170 810 c 0
 -170 836 -187 850 -210 850 c 0
 -233 850 -250 836 -250 810 c 0
EndSplineSet
Colour: ffff00
EndChar

StartChar: uni0E37
Encoding: 448 3639 51
Width: 0
VWidth: 0
Flags: MW
LayerCount: 4
Layer: 2
SplineSet
-610 690 m 1
 -610 840 l 1
 -500 840 l 2
 -449 840 -430 800 -430 800 c 1
 -430 920 l 1
 -280 920 l 1
 -280 790 l 1
 -230 790 l 1
 -230 920 l 1
 -80 920 l 1
 -80 690 l 1
 -610 690 l 1
EndSplineSet
Validated: 1
Layer: 3
SplineSet
-610 720 m 2
 -610 810 l 2
 -610 826 -596 840 -580 840 c 2
 -500 840 l 2
 -449 840 -430 800 -430 800 c 1
 -430 890 l 2
 -430 906 -416 920 -400 920 c 2
 -310 920 l 2
 -294 920 -280 906 -280 890 c 2
 -280 790 l 1
 -230 790 l 1
 -230 890 l 2
 -230 906 -216 920 -200 920 c 2
 -110 920 l 2
 -94 920 -80 906 -80 890 c 2
 -80 720 l 2
 -80 704 -94 690 -110 690 c 2
 -580 690 l 2
 -596 690 -610 704 -610 720 c 2
EndSplineSet
Colour: ffff00
EndChar

StartChar: uni0E4D
Encoding: 466 3661 52
Width: 0
VWidth: 0
Flags: MW
LayerCount: 4
Layer: 2
SplineSet
-390 805 m 0
 -390 884 -329 940 -215 940 c 0
 -101 940 -40 884 -40 805 c 0
 -40 726 -101 670 -215 670 c 0
 -329 670 -390 726 -390 805 c 0
-255 805 m 0
 -255 775 -237 760 -215 760 c 0
 -193 760 -175 775 -175 805 c 0
 -175 835 -193 850 -215 850 c 0
 -237 850 -255 835 -255 805 c 0
EndSplineSet
Validated: 1
Layer: 3
SplineSet
-390 805 m 0
 -390 884 -329 940 -215 940 c 0
 -101 940 -40 884 -40 805 c 0
 -40 726 -101 670 -215 670 c 0
 -329 670 -390 726 -390 805 c 0
-255 805 m 0
 -255 775 -237 760 -215 760 c 0
 -193 760 -175 775 -175 805 c 0
 -175 835 -193 850 -215 850 c 0
 -237 850 -255 835 -255 805 c 0
EndSplineSet
Colour: ffff00
EndChar

StartChar: uni0E32
Encoding: 443 3634 53
Width: 540
VWidth: 0
Flags: MW
LayerCount: 4
Layer: 2
SplineSet
0 540 m 1
 0 540 84 610 250 610 c 0
 416 610 490 532 490 380 c 2
 490 0 l 1
 210 0 l 1
 210 360 l 2
 210 398 196 410 160 410 c 0
 124 410 72 394 50 380 c 1
 0 540 l 1
EndSplineSet
Validated: 1
Layer: 3
SplineSet
5 530 m 0
 5 542 12 549 30 560 c 1
 30 560 115 610 250 610 c 0
 416 610 490 532 490 380 c 2
 490 40 l 2
 490 18 472 0 450 0 c 2
 250 0 l 2
 228 0 210 18 210 40 c 2
 210 360 l 2
 210 398 196 410 160 410 c 0
 134 410 111 404 90 395 c 0
 81 391 71 385 60 385 c 0
 49 385 44 393 40 405 c 2
 10 505 l 1
 10 505 5 522 5 530 c 0
EndSplineSet
Colour: ffff00
EndChar

StartChar: uni0E38
Encoding: 449 3640 54
Width: 0
VWidth: 0
Flags: MW
LayerCount: 4
Layer: 2
SplineSet
-330 -60 m 1
 -140 -60 l 2
 -104 -60 -80 -84 -80 -120 c 2
 -80 -280 l 1
 -280 -280 l 1
 -280 -180 l 1
 -330 -180 l 1
 -330 -60 l 1
EndSplineSet
Validated: 1
Layer: 3
SplineSet
-330 -90 m 2
 -330 -74 -316 -60 -300 -60 c 2
 -140 -60 l 2
 -104 -60 -80 -84 -80 -120 c 2
 -80 -250 l 2
 -80 -266 -94 -280 -110 -280 c 2
 -250 -280 l 2
 -266 -280 -280 -266 -280 -250 c 2
 -280 -180 l 1
 -300 -180 l 2
 -316 -180 -330 -166 -330 -150 c 2
 -330 -90 l 2
EndSplineSet
Colour: ffff00
EndChar

StartChar: uni0E3A
Encoding: 451 3642 55
Width: 0
VWidth: 0
Flags: MW
LayerCount: 4
Layer: 2
SplineSet
-280 -60 m 1
 -80 -60 l 1
 -80 -220 l 1
 -280 -220 l 1
 -280 -60 l 1
EndSplineSet
Validated: 1
Layer: 3
SplineSet
-280 -90 m 2
 -280 -74 -266 -60 -250 -60 c 2
 -110 -60 l 2
 -94 -60 -80 -74 -80 -90 c 2
 -80 -190 l 2
 -80 -206 -94 -220 -110 -220 c 2
 -250 -220 l 2
 -266 -220 -280 -206 -280 -190 c 2
 -280 -90 l 2
EndSplineSet
Colour: ffff00
EndChar

StartChar: uni0E39
Encoding: 450 3641 56
Width: 0
VWidth: 0
Flags: MW
LayerCount: 4
Layer: 2
SplineSet
-550 -60 m 1
 -380 -60 l 2
 -344 -60 -320 -84 -320 -120 c 2
 -320 -190 l 1
 -250 -190 l 1
 -250 -60 l 1
 -70 -60 l 1
 -70 -220 l 2
 -70 -255 -100 -280 -160 -280 c 2
 -410 -280 l 2
 -470 -280 -500 -255 -500 -220 c 2
 -500 -180 l 1
 -550 -180 l 1
 -550 -60 l 1
EndSplineSet
Validated: 1
Layer: 3
SplineSet
-550 -90 m 2
 -550 -74 -536 -60 -520 -60 c 2
 -380 -60 l 2
 -344 -60 -320 -84 -320 -120 c 2
 -320 -190 l 1
 -250 -190 l 1
 -250 -90 l 2
 -250 -74 -236 -60 -220 -60 c 2
 -100 -60 l 2
 -84 -60 -70 -74 -70 -90 c 2
 -70 -220 l 2
 -70 -255 -100 -280 -160 -280 c 2
 -410 -280 l 2
 -470 -280 -500 -255 -500 -220 c 2
 -500 -180 l 1
 -520 -180 l 2
 -536 -180 -550 -166 -550 -150 c 2
 -550 -90 l 2
EndSplineSet
Colour: ffff00
EndChar

StartChar: uni0E49
Encoding: 462 3657 57
Width: 0
VWidth: 0
Flags: MW
LayerCount: 4
Layer: 2
SplineSet
-390 1000 m 0
 -390 1017 -383 1029 -370 1040 c 2
 -320 1080 l 1
 -380 1080 l 1
 -380 1170 l 1
 -180 1170 l 2
 -154 1170 -140 1153 -140 1135 c 0
 -140 1121 -145 1113 -155 1105 c 2
 -195 1070 l 1
 -30 1070 l 1
 -30 960 l 1
 -350 960 l 2
 -375 960 -390 979 -390 1000 c 0
EndSplineSet
Validated: 1
Layer: 3
SplineSet
-390 1000 m 0
 -390 1017 -383 1029 -370 1040 c 2
 -320 1080 l 1
 -360 1080 l 2
 -371 1080 -380 1089 -380 1100 c 2
 -380 1150 l 2
 -380 1161 -371 1170 -360 1170 c 2
 -180 1170 l 2
 -154 1170 -140 1153 -140 1135 c 0
 -140 1121 -145 1113 -155 1105 c 2
 -195 1070 l 1
 -60 1070 l 2
 -44 1070 -30 1056 -30 1040 c 2
 -30 990 l 2
 -30 974 -44 960 -60 960 c 2
 -350 960 l 2
 -375 960 -390 979 -390 1000 c 0
EndSplineSet
Colour: ffff00
EndChar

StartChar: uni0E48
Encoding: 461 3656 58
Width: 0
VWidth: 0
Flags: MW
LayerCount: 4
Layer: 2
SplineSet
-280 960 m 1
 -280 1170 l 1
 -100 1170 l 1
 -100 960 l 1
 -280 960 l 1
EndSplineSet
Validated: 1
Layer: 3
SplineSet
-280 990 m 2
 -280 1140 l 2
 -280 1156 -266 1170 -250 1170 c 2
 -130 1170 l 2
 -114 1170 -100 1156 -100 1140 c 2
 -100 990 l 2
 -100 974 -114 960 -130 960 c 2
 -250 960 l 2
 -266 960 -280 974 -280 990 c 2
EndSplineSet
Colour: ffff00
EndChar

StartChar: uni0E4B
Encoding: 464 3659 59
Width: 0
VWidth: 0
Flags: MW
LayerCount: 4
Layer: 2
SplineSet
-350 1020 m 1
 -350 1110 l 1
 -270 1110 l 1
 -270 1170 l 1
 -110 1170 l 1
 -110 1110 l 1
 -30 1110 l 1
 -30 1020 l 1
 -110 1020 l 1
 -110 960 l 1
 -270 960 l 1
 -270 1020 l 1
 -350 1020 l 1
EndSplineSet
Validated: 1
Layer: 3
SplineSet
-350 1040 m 2
 -350 1090 l 2
 -350 1101 -341 1110 -330 1110 c 2
 -270 1110 l 1
 -270 1140 l 2
 -270 1156 -256 1170 -240 1170 c 2
 -140 1170 l 2
 -124 1170 -110 1156 -110 1140 c 2
 -110 1110 l 1
 -50 1110 l 2
 -39 1110 -30 1101 -30 1090 c 2
 -30 1040 l 2
 -30 1029 -39 1020 -50 1020 c 2
 -110 1020 l 1
 -110 990 l 2
 -110 974 -124 960 -140 960 c 2
 -240 960 l 2
 -256 960 -270 974 -270 990 c 2
 -270 1020 l 1
 -330 1020 l 2
 -341 1020 -350 1029 -350 1040 c 2
EndSplineSet
Colour: ffff00
EndChar

StartChar: uni0E40
Encoding: 453 3648 60
Width: 390
VWidth: 0
Flags: MW
LayerCount: 4
Layer: 2
SplineSet
60 100 m 2
 60 600 l 1
 330 600 l 1
 330 0 l 1
 330 0 268 -10 200 -10 c 0
 88 -10 60 36 60 100 c 2
EndSplineSet
Validated: 1
Layer: 3
SplineSet
60 100 m 2
 60 560 l 2
 60 582 78 600 100 600 c 2
 290 600 l 2
 312 600 330 582 330 560 c 2
 330 20 l 2
 330 7 326 2 315 0 c 1
 315 0 257 -10 200 -10 c 0
 88 -10 60 36 60 100 c 2
EndSplineSet
Colour: ffff00
EndChar

StartChar: uni0E2F
Encoding: 440 3631 62
Width: 700
VWidth: 0
Flags: MW
LayerCount: 4
Layer: 2
SplineSet
20 490 m 2
 20 600 l 1
 230 600 l 1
 230 540 l 2
 230 479 259 460 290 460 c 0
 329 460 362 490 380 535 c 1
 380 600 l 1
 640 600 l 1
 640 0 l 1
 360 0 l 1
 360 349 l 1
 329 317 280 290 210 290 c 0
 87 290 21 386 20 490 c 2
EndSplineSet
Validated: 1
Layer: 3
SplineSet
20 490 m 2
 20 560 l 2
 20 582 38 600 60 600 c 2
 190 600 l 2
 212 600 230 582 230 560 c 2
 230 540 l 2
 230 479 259 460 290 460 c 0
 329 460 362 490 380 535 c 1
 380 560 l 2
 380 582 398 600 420 600 c 2
 600 600 l 2
 622 600 640 582 640 560 c 2
 640 40 l 2
 640 18 622 0 600 0 c 2
 400 0 l 2
 378 0 360 18 360 40 c 2
 360 349 l 1
 329 317 280 290 210 290 c 0
 87 290 21 386 20 490 c 2
EndSplineSet
Colour: ffff00
EndChar

StartChar: uni0E30
Encoding: 441 3632 63
Width: 520
VWidth: 0
Flags: MW
LayerCount: 4
Layer: 2
SplineSet
40 140 m 0
 40 196 75 260 75 260 c 1
 290 260 l 1
 270 210 l 1
 480 210 l 1
 480 40 l 1
 150 40 l 2
 90 40 40 82 40 140 c 0
40 450 m 0
 40 506 75 570 75 570 c 1
 290 570 l 1
 270 520 l 1
 480 520 l 1
 480 350 l 1
 150 350 l 2
 90 350 40 392 40 450 c 0
EndSplineSet
Validated: 1
Layer: 3
SplineSet
40 140 m 0
 40 183 61 230 61 230 c 1
 67 246 81 260 101 260 c 2
 258 260 l 2
 274 260 284 247 278 230 c 2
 270 210 l 1
 450 210 l 2
 466 210 480 196 480 180 c 2
 480 70 l 2
 480 54 466 40 450 40 c 2
 150 40 l 2
 90 40 40 82 40 140 c 0
40 450 m 0
 40 493 61 540 61 540 c 1
 67 556 81 570 101 570 c 2
 258 570 l 2
 274 570 284 557 278 540 c 2
 270 520 l 1
 450 520 l 2
 466 520 480 506 480 490 c 2
 480 380 l 2
 480 364 466 350 450 350 c 2
 150 350 l 2
 90 350 40 392 40 450 c 0
EndSplineSet
Colour: ffff00
EndChar

StartChar: uni0E4A
Encoding: 463 3658 64
Width: 0
VWidth: 0
Flags: MW
LayerCount: 4
Layer: 2
SplineSet
-450 1030 m 0
 -450 1119 -401 1180 -330 1180 c 0
 -287 1180 -255 1146 -230 1108 c 1
 -230 1170 l 1
 -80 1170 l 1
 -80 1050 l 1
 0 1050 l 1
 0 960 l 1
 -230 960 l 1
 -230 1026 l 1
 -244 1051 -257 1070 -270 1070 c 0
 -290 1070 -295 1036 -295 1020 c 0
 -295 994 -285 971 -280 960 c 1
 -440 960 l 1
 -446 977 -450 1002 -450 1030 c 0
EndSplineSet
Validated: 1
Layer: 3
SplineSet
-450 1030 m 0
 -450 1119 -401 1180 -330 1180 c 0
 -287 1180 -255 1146 -230 1108 c 1
 -230 1140 l 2
 -230 1156 -216 1170 -200 1170 c 2
 -110 1170 l 2
 -94 1170 -80 1156 -80 1140 c 2
 -80 1050 l 1
 -20 1050 l 2
 -9 1050 0 1041 0 1030 c 2
 0 980 l 2
 0 969 -9 960 -20 960 c 2
 -200 960 l 2
 -216 960 -230 974 -230 990 c 2
 -230 1026 l 1
 -244 1051 -257 1070 -270 1070 c 0
 -290 1070 -295 1036 -295 1020 c 0
 -295 1010 -294 998 -291 990 c 0
 -289 985 -287 979 -287 975 c 0
 -287 965 -300 960 -311 960 c 2
 -415 960 l 2
 -431 960 -444 974 -447 990 c 0
 -449 1002 -450 1017 -450 1030 c 0
EndSplineSet
Colour: ffff00
EndChar

StartChar: uni0E47
Encoding: 460 3655 65
Width: 0
VWidth: 0
Flags: MW
LayerCount: 4
Layer: 2
SplineSet
-560 825 m 0
 -560 907 -503 980 -385 980 c 2
 -100 980 l 1
 -100 865 l 1
 -345 865 l 2
 -372 865 -395 852 -395 825 c 0
 -395 798 -372 785 -345 785 c 0
 -310 785 -299 804 -295 820 c 1
 -150 820 l 1
 -90 690 l 1
 -90 680 l 1
 -240 680 l 1
 -264 741 l 1
 -280 705 -315 670 -385 670 c 0
 -503 670 -560 743 -560 825 c 0
EndSplineSet
Validated: 1
Layer: 3
SplineSet
-560 825 m 0
 -560 907 -503 980 -385 980 c 2
 -130 980 l 2
 -114 980 -100 966 -100 950 c 2
 -100 895 l 2
 -100 879 -114 865 -130 865 c 2
 -345 865 l 2
 -372 865 -395 852 -395 825 c 0
 -395 798 -372 785 -345 785 c 0
 -321 785 -308 794 -301 805 c 0
 -296 813 -291 820 -280 820 c 2
 -168 820 l 2
 -152 820 -143 806 -136 790 c 2
 -101 710 l 1
 -101 710 -95 699 -95 695 c 0
 -95 685 -107 680 -118 680 c 2
 -220 680 l 2
 -236 680 -245 694 -252 710 c 2
 -263 742 l 1
 -280 706 -315 670 -385 670 c 0
 -503 670 -560 743 -560 825 c 0
EndSplineSet
Colour: ffff00
EndChar

StartChar: uni0E4C
Encoding: 465 3660 66
Width: 0
VWidth: 0
Flags: MW
LayerCount: 4
Layer: 2
SplineSet
-360 1030 m 0
 -360 1088 -321 1110 -260 1110 c 2
 -60 1110 l 1
 -60 990 l 1
 -195 990 l 1
 -165 930 l 1
 -315 930 l 1
 -315 930 -360 974 -360 1030 c 0
EndSplineSet
Validated: 1
Layer: 3
SplineSet
-360 1030 m 0
 -360 1088 -321 1110 -260 1110 c 2
 -90 1110 l 2
 -74 1110 -60 1096 -60 1080 c 2
 -60 1020 l 2
 -60 1004 -74 990 -90 990 c 2
 -195 990 l 1
 -180 960 l 1
 -180 960 -173 949 -173 945 c 0
 -173 935 -186 930 -197 930 c 2
 -301 930 l 2
 -317 930 -329 944 -338 960 c 0
 -344 971 -360 993 -360 1030 c 0
EndSplineSet
Colour: ffff00
EndChar

StartChar: uni0E43
Encoding: 456 3651 67
Width: 440
VWidth: 0
Flags: MW
LayerCount: 4
Layer: 2
SplineSet
-20 770 m 1
 4 857 83 930 220 930 c 0
 348 930 440 856 440 760 c 0
 440 646 360 628 360 510 c 2
 360 0 l 1
 360 0 298 -10 230 -10 c 0
 118 -10 90 36 90 100 c 2
 90 510 l 2
 90 615 240 690 240 740 c 0
 240 765 227 780 200 780 c 0
 159 780 119 735 110 700 c 1
 -20 770 l 1
EndSplineSet
Validated: 1
Layer: 3
SplineSet
-10 777 m 0
 -10 785 -8 793 -6 800 c 0
 16 863 95 930 220 930 c 0
 348 930 440 856 440 760 c 0
 440 646 360 628 360 510 c 2
 360 20 l 2
 360 7 356 2 345 0 c 1
 345 0 287 -10 230 -10 c 0
 118 -10 90 36 90 100 c 2
 90 510 l 2
 90 615 240 690 240 740 c 0
 240 765 227 780 200 780 c 0
 165 780 131 748 116 717 c 0
 113 711 108 705 100 705 c 0
 93 705 76 715 70 718 c 2
 5 755 l 2
 -3 759 -10 766 -10 777 c 0
EndSplineSet
Colour: ffff00
EndChar

StartChar: uni0E44
Encoding: 457 3652 68
Width: 440
VWidth: 0
Flags: MW
LayerCount: 4
Layer: 2
SplineSet
0 770 m 1
 0 920 l 1
 10 920 l 1
 128 842 l 1
 152 876 211 930 300 930 c 0
 403 930 460 864 460 780 c 0
 460 677 360 628 360 510 c 2
 360 0 l 1
 360 0 298 -10 230 -10 c 0
 118 -10 90 36 90 100 c 2
 90 510 l 2
 90 629 260 704 260 750 c 0
 260 767 251 780 230 780 c 0
 187 780 148 730 130 700 c 1
 120 700 l 1
 0 770 l 1
EndSplineSet
Validated: 1
Layer: 3
SplineSet
0 785 m 2
 0 900 l 2
 0 908 3 914 12 915 c 0
 16 915 23 912 30 907 c 2
 129 842 l 1
 153 876 212 930 300 930 c 0
 403 930 460 864 460 780 c 0
 460 677 360 628 360 510 c 2
 360 20 l 2
 360 7 356 2 345 0 c 1
 345 0 287 -10 230 -10 c 0
 118 -10 90 36 90 100 c 2
 90 510 l 2
 90 629 260 704 260 750 c 0
 260 767 251 780 230 780 c 0
 196 780 164 748 143 720 c 0
 139 714 134 700 122 700 c 0
 116 700 100 710 100 710 c 1
 15 760 l 2
 7 765 0 773 0 785 c 2
EndSplineSet
Colour: ffff00
EndChar

StartChar: uni0E42
Encoding: 455 3650 69
Width: 440
VWidth: 0
Flags: MW
LayerCount: 4
Layer: 2
SplineSet
0 760 m 0
 0 856 81 930 210 930 c 0
 360 930 456 861 470 850 c 1
 400 730 l 1
 374 744 306 780 270 780 c 0
 236 780 220 773 220 750 c 0
 220 704 360 676 360 560 c 2
 360 0 l 1
 360 0 298 -10 230 -10 c 0
 118 -10 90 36 90 100 c 2
 90 510 l 2
 90 628 0 657 0 760 c 0
EndSplineSet
Validated: 1
Layer: 3
SplineSet
0 760 m 0
 0 856 81 930 210 930 c 0
 339 930 427 877 440 870 c 0
 454 862 460 850 460 837 c 0
 460 828 454 820 454 820 c 1
 413 752 l 2
 406 741 403 735 395 735 c 0
 388 735 375 742 366 747 c 0
 356 753 302 780 270 780 c 0
 236 780 220 773 220 750 c 0
 220 704 360 676 360 560 c 2
 360 20 l 2
 360 7 356 2 345 0 c 1
 345 0 287 -10 230 -10 c 0
 118 -10 90 36 90 100 c 2
 90 510 l 2
 90 628 0 657 0 760 c 0
EndSplineSet
Colour: ffff00
EndChar

StartChar: uni0E45
Encoding: 458 3653 70
Width: 540
VWidth: 0
Flags: MW
LayerCount: 4
Layer: 2
SplineSet
0 540 m 1
 0 540 84 610 250 610 c 0
 416 610 490 532 490 380 c 2
 490 -240 l 1
 210 -240 l 1
 210 360 l 2
 210 398 196 410 160 410 c 0
 124 410 72 394 50 380 c 1
 0 540 l 1
EndSplineSet
Validated: 1
Layer: 3
SplineSet
5 530 m 0
 5 542 12 549 30 560 c 1
 30 560 115 610 250 610 c 0
 416 610 490 532 490 380 c 2
 490 -200 l 2
 490 -222 472 -240 450 -240 c 2
 250 -240 l 2
 228 -240 210 -222 210 -200 c 2
 210 360 l 2
 210 398 196 410 160 410 c 0
 134 410 111 404 90 395 c 0
 81 391 71 385 60 385 c 0
 49 385 44 393 40 405 c 2
 10 505 l 1
 10 505 5 522 5 530 c 0
EndSplineSet
Colour: ffff00
EndChar

StartChar: uni0E46
Encoding: 459 3654 71
Width: 600
VWidth: 0
Flags: MW
LayerCount: 4
Layer: 2
SplineSet
30 420 m 1
 30 600 l 1
 40 600 l 1
 158 515 l 1
 177 543 242 610 355 610 c 0
 467 610 540 529 540 440 c 0
 540 -40 l 2
 540 -169 453 -250 170 -250 c 1
 150 -80 l 1
 208 -80 270 -69 270 -10 c 2
 270 240 l 2
 270 298 290 333 290 380 c 0
 290 409 280 430 250 430 c 0
 207 430 178 375 160 345 c 1
 150 345 l 1
 30 420 l 1
EndSplineSet
Validated: 1
Layer: 3
SplineSet
30 435 m 2
 30 580 l 2
 30 588 33 594 42 595 c 0
 46 595 53 592 60 587 c 2
 159 516 l 1
 178 544 243 610 355 610 c 0
 467 610 540 529 540 440 c 2
 540 -40 l 2
 540 -232 320 -250 195 -250 c 0
 173 -250 168 -241 166 -220 c 2
 155 -105 l 0
 155 -87 166 -81 185 -77 c 0
 205 -73 270 -69 270 -10 c 2
 270 240 l 2
 270 298 290 333 290 380 c 0
 290 409 280 430 250 430 c 0
 218 430 191 394 173 366 c 0
 169 360 164 345 152 345 c 0
 146 345 130 355 130 355 c 1
 45 410 l 2
 37 415 30 423 30 435 c 2
EndSplineSet
Colour: ffff00
EndChar

StartChar: uni0E3F
Encoding: 452 3647 74
Width: 820
VWidth: 0
Flags: MW
LayerCount: 4
Layer: 2
SplineSet
60 0 m 5
 60 840 l 5
 280 840 l 5
 280 960 l 5
 490 960 l 5
 490 837 l 5
 666 818 750 730 750 610 c 4
 750 533 714 472 637 434 c 5
 740 394 790 322 790 220 c 4
 790 60 637 3 490 0 c 5
 490 -120 l 5
 280 -120 l 5
 280 0 l 5
 60 0 l 5
325 180 m 5
 405 180 l 6
 457 180 505 214 505 260 c 4
 505 306 475 350 405 350 c 6
 325 350 l 5
 325 180 l 5
325 500 m 5
 405 500 l 6
 449 500 475 542 475 580 c 4
 475 618 443 660 395 660 c 6
 325 660 l 5
 325 500 l 5
EndSplineSet
Validated: 1
Layer: 3
SplineSet
60 40 m 6
 60 800 l 6
 60 822 78 840 100 840 c 6
 280 840 l 5
 280 930 l 6
 280 946 294 960 310 960 c 6
 460 960 l 6
 476 960 490 946 490 930 c 6
 490 837 l 5
 666 818 750 730 750 610 c 4
 750 533 714 472 637 434 c 5
 740 394 790 322 790 220 c 4
 790 60 637 3 490 0 c 5
 490 -90 l 6
 490 -106 476 -120 460 -120 c 6
 310 -120 l 6
 294 -120 280 -106 280 -90 c 6
 280 0 l 5
 100 0 l 6
 78 0 60 18 60 40 c 6
325 180 m 5
 405 180 l 6
 457 180 505 214 505 260 c 4
 505 306 475 350 405 350 c 6
 325 350 l 5
 325 180 l 5
325 500 m 5
 405 500 l 6
 449 500 475 542 475 580 c 4
 475 618 443 660 395 660 c 6
 325 660 l 5
 325 500 l 5
EndSplineSet
Colour: ffff00
EndChar

StartChar: uni0E4E
Encoding: 467 3662 75
Width: 0
VWidth: 0
Flags: MW
LayerCount: 4
Layer: 2
SplineSet
-450 775 m 0
 -450 818 -430 847 -392 865 c 1
 -415 881 -430 903 -430 935 c 0
 -430 1005 -373 1050 -280 1050 c 0
 -213 1050 -170 1018 -150 990 c 1
 -195 930 l 1
 -204 942 -220 960 -251 960 c 0
 -284 960 -300 942 -300 925 c 0
 -300 899 -271 890 -230 890 c 1
 -240 830 l 1
 -286 830 -320 817 -320 785 c 0
 -320 758 -299 745 -270 745 c 0
 -243 745 -228 752 -220 755 c 1
 -200 680 l 1
 -219 671 -252 660 -310 660 c 0
 -382 660 -450 699 -450 775 c 0
EndSplineSet
Validated: 1
Layer: 3
SplineSet
-450 775 m 4
 -450 818 -430 847 -393 864 c 5
 -416 880 -430 903 -430 935 c 4
 -430 1005 -373 1050 -280 1050 c 4
 -223 1050 -182 1026 -160 1002 c 4
 -157 998 -155 994 -155 990 c 4
 -155 985 -157 980 -160 977 c 6
 -185 943 l 6
 -188 939 -192 935 -195 935 c 4
 -198 935 -201 938 -207 944 c 4
 -217 952 -230 960 -251 960 c 4
 -284 960 -300 942 -300 925 c 4
 -300 902 -272 890 -242 890 c 4
 -234 890 -232 885 -232 881 c 4
 -232 880 -232 880 -232 879 c 6
 -239 839 l 6
 -240 833 -244 830 -255 830 c 4
 -279 830 -320 820 -320 785 c 4
 -320 758 -299 745 -270 745 c 4
 -254 745 -246 746 -240 748 c 4
 -235 750 -231 752 -225 752 c 4
 -219 752 -217 745 -216 741 c 6
 -205 698 l 6
 -204 695 -203 691 -203 685 c 4
 -203 680 -209 675 -217 673 c 4
 -238 667 -263 660 -310 660 c 4
 -382 660 -450 699 -450 775 c 4
EndSplineSet
Colour: ffff00
EndChar

StartChar: uni0E4F
Encoding: 468 3663 76
Width: 760
VWidth: 0
Flags: MW
LayerCount: 4
Layer: 2
SplineSet
60 300 m 0
 60 477 191 620 380 620 c 0
 569 620 700 477 700 300 c 0
 700 123 569 -20 380 -20 c 0
 191 -20 60 123 60 300 c 0
150 300 m 0
 150 167 243 60 380 60 c 0
 517 60 610 167 610 300 c 0
 610 433 517 540 380 540 c 0
 243 540 150 433 150 300 c 0
230 300 m 0
 230 383 297 450 380 450 c 0
 463 450 530 383 530 300 c 0
 530 217 463 150 380 150 c 0
 297 150 230 217 230 300 c 0
EndSplineSet
Validated: 1
Layer: 3
SplineSet
60 300 m 0
 60 477 191 620 380 620 c 0
 569 620 700 477 700 300 c 0
 700 123 569 -20 380 -20 c 0
 191 -20 60 123 60 300 c 0
150 300 m 0
 150 167 243 60 380 60 c 0
 517 60 610 167 610 300 c 0
 610 433 517 540 380 540 c 0
 243 540 150 433 150 300 c 0
230 300 m 0
 230 383 297 450 380 450 c 0
 463 450 530 383 530 300 c 0
 530 217 463 150 380 150 c 0
 297 150 230 217 230 300 c 0
EndSplineSet
Colour: ffff00
EndChar

StartChar: uni0E50
Encoding: 469 3664 77
Width: 780
VWidth: 0
Flags: MW
LayerCount: 4
Layer: 2
SplineSet
30 300 m 0
 30 477 170 620 390 620 c 0
 610 620 750 477 750 300 c 0
 750 123 610 -20 390 -20 c 0
 170 -20 30 123 30 300 c 0
290 300 m 0
 290 237 324 190 390 190 c 0
 456 190 490 237 490 300 c 0
 490 363 456 410 390 410 c 0
 324 410 290 363 290 300 c 0
EndSplineSet
Validated: 1
Layer: 3
SplineSet
30 300 m 0
 30 477 170 620 390 620 c 0
 610 620 750 477 750 300 c 0
 750 123 610 -20 390 -20 c 0
 170 -20 30 123 30 300 c 0
290 300 m 0
 290 237 324 190 390 190 c 0
 456 190 490 237 490 300 c 0
 490 363 456 410 390 410 c 0
 324 410 290 363 290 300 c 0
EndSplineSet
Colour: ffff00
EndChar

StartChar: uni0E51
Encoding: 470 3665 78
Width: 780
VWidth: 0
Flags: MW
LayerCount: 4
Layer: 2
SplineSet
30 300 m 0
 30 477 170 620 390 620 c 0
 610 620 750 477 750 300 c 0
 750 88 620 -20 480 -90 c 1
 360 70 l 1
 417 105 490 159 490 300 c 0
 490 363 456 410 390 410 c 0
 324 410 290 367 290 320 c 0
 290 287 310 270 340 270 c 0
 366 270 380 280 380 280 c 1
 400 130 l 1
 358 106 314 90 250 90 c 0
 135 90 30 153 30 300 c 0
EndSplineSet
Validated: 1
Layer: 3
SplineSet
30 300 m 0
 30 477 170 620 390 620 c 0
 610 620 750 477 750 300 c 0
 750 107 644 2 515 -71 c 0
 508 -75 501 -80 491 -80 c 0
 479 -80 468 -73 460 -63 c 2
 385 37 l 2
 380 44 375 52 375 60 c 0
 375 72 381 83 392 91 c 0
 440 127 490 179 490 300 c 0
 490 363 456 410 390 410 c 0
 324 410 290 367 290 320 c 0
 290 287 310 270 340 270 c 0
 352 270 360 275 368 275 c 0
 378 275 383 268 385 250 c 2
 397 151 l 0
 397 136 388 123 373 116 c 0
 345 102 303 90 250 90 c 0
 135 90 30 153 30 300 c 0
EndSplineSet
Colour: ffff00
EndChar

StartChar: uni0E52
Encoding: 471 3666 79
Width: 870
VWidth: 0
Flags: MW
LayerCount: 4
Layer: 2
SplineSet
60 0 m 1
 60 750 l 1
 320 750 l 1
 320 180 l 1
 590 180 l 1
 590 275 590 330 590 370 c 0
 590 403 580 430 550 430 c 0
 507 430 478 380 460 350 c 1
 450 350 l 1
 360 420 l 1
 360 600 l 1
 370 600 l 1
 458 522 l 1
 482 556 537 610 650 610 c 0
 767 610 830 524 830 420 c 2
 830 0 l 1
 60 0 l 1
EndSplineSet
Validated: 1
Layer: 3
SplineSet
60 40 m 2
 60 710 l 2
 60 732 78 750 100 750 c 2
 280 750 l 2
 302 750 320 732 320 710 c 2
 320 180 l 1
 590 180 l 1
 590 370 l 2
 590 403 580 430 550 430 c 0
 516 430 490 398 472 370 c 0
 468 364 464 355 452 355 c 0
 446 355 432 365 432 365 c 1
 373 410 l 2
 365 415 358 423 358 435 c 2
 358 579 l 2
 358 587 362 594 371 595 c 0
 375 595 381 590 388 584 c 2
 458 520 l 1
 483 554 540 610 650 610 c 0
 767 610 830 524 830 420 c 2
 830 40 l 2
 830 18 812 0 790 0 c 2
 100 0 l 2
 78 0 60 18 60 40 c 2
EndSplineSet
Colour: ffff00
EndChar

StartChar: uni0E53
Encoding: 472 3667 80
Width: 840
VWidth: 0
Flags: MW
LayerCount: 4
Layer: 2
SplineSet
30 300 m 0
 30 470 127 610 280 610 c 0
 328 610 340 600 340 600 c 1
 430 450 l 1
 530 600 l 1
 790 600 l 1
 790 0 l 1
 530 0 l 1
 530 380 l 1
 470 280 l 1
 430 280 l 1
 390 280 l 1
 323 380 l 1
 303 361 290 324 290 280 c 0
 290 232 327 180 370 180 c 0
 381 180 391 182 400 185 c 1
 440 20 l 1
 411 1 364 -10 310 -10 c 0
 132 -10 30 129 30 300 c 0
EndSplineSet
Validated: 1
Layer: 3
SplineSet
30 300 m 0
 30 470 127 610 280 610 c 0
 337 610 357 570 357 570 c 1
 430 452 l 1
 430 450 l 1
 503 560 l 2
 518 584 534 600 560 600 c 2
 750 600 l 2
 772 600 790 582 790 560 c 2
 790 40 l 2
 790 18 772 0 750 0 c 2
 570 0 l 2
 548 0 530 18 530 40 c 2
 530 380 l 1
 495 320 l 2
 477 291 467 280 450 280 c 2
 430 280 l 1
 407 280 l 2
 390 280 380 291 362 320 c 2
 323 380 l 1
 303 361 290 324 290 280 c 0
 290 232 327 180 370 180 c 0
 386 180 402 175 406 160 c 2
 432 55 l 1
 432 55 435 44 435 38 c 0
 435 24 429 15 420 10 c 0
 407 2 364 -10 310 -10 c 0
 132 -10 30 129 30 300 c 0
EndSplineSet
Colour: ffff00
EndChar

StartChar: uni0E54
Encoding: 473 3668 81
Width: 760
VWidth: 0
Flags: MW
LayerCount: 4
Layer: 2
SplineSet
30 300 m 0
 30 477 150 620 370 620 c 0
 478 620 520 666 520 750 c 1
 750 750 l 1
 750 573 630 440 410 440 c 0
 325 440 290 380 290 300 c 0
 290 216 324 180 390 180 c 2
 420 180 l 1
 420 257 480 300 480 300 c 1
 660 300 l 1
 660 300 600 241 600 180 c 1
 690 180 l 1
 690 0 l 1
 390 0 l 2
 170 0 30 123 30 300 c 0
EndSplineSet
Validated: 1
Layer: 3
SplineSet
30 300 m 0
 30 477 150 620 370 620 c 0
 458 620 506 652 516 710 c 0
 520 732 534 750 556 750 c 2
 705 750 l 2
 727 750 745 732 745 710 c 0
 745 550 599 440 410 440 c 0
 325 440 290 380 290 300 c 0
 290 216 324 180 390 180 c 2
 420 180 l 1
 420 218 434 250 450 270 c 0
 463 286 480 300 500 300 c 2
 625 300 l 2
 641 300 645 294 645 287 c 0
 645 280 638 274 635 270 c 0
 619 247 600 213 600 180 c 1
 650 180 l 2
 672 180 690 162 690 140 c 2
 690 40 l 2
 690 18 672 0 650 0 c 2
 390 0 l 2
 170 0 30 123 30 300 c 0
EndSplineSet
Colour: ffff00
EndChar

StartChar: uni0E55
Encoding: 474 3669 82
Width: 760
VWidth: 0
Flags: MW
LayerCount: 4
Layer: 2
SplineSet
30 300 m 0
 30 432 100 523 216 561 c 1
 206 579 200 601 200 625 c 0
 200 702 262 760 350 760 c 0
 438 760 500 702 500 625 c 0
 500 621 500 617 499 613 c 1
 539 640 550 686 550 750 c 1
 750 750 l 1
 750 573 630 440 410 440 c 0
 325 440 290 380 290 300 c 0
 290 216 324 180 390 180 c 2
 420 180 l 1
 420 257 480 300 480 300 c 1
 660 300 l 1
 660 300 600 241 600 180 c 1
 690 180 l 1
 690 0 l 1
 390 0 l 2
 170 0 30 123 30 300 c 0
305 625 m 0
 305 600 325 580 350 580 c 0
 375 580 395 600 395 625 c 0
 395 650 375 670 350 670 c 0
 325 670 305 650 305 625 c 0
EndSplineSet
Validated: 1
Layer: 3
SplineSet
30 300 m 0
 30 432 100 523 216 561 c 1
 206 579 200 601 200 625 c 0
 200 702 262 760 350 760 c 0
 438 760 500 702 500 625 c 0
 500 621 500 617 500 613 c 1
 529 635 543 667 548 710 c 0
 551 732 566 750 588 750 c 2
 705 750 l 2
 727 750 745 732 745 710 c 1
 727 554 612 440 410 440 c 0
 325 440 290 380 290 300 c 0
 290 216 324 180 390 180 c 2
 420 180 l 1
 420 218 434 250 450 270 c 0
 463 286 480 300 500 300 c 2
 625 300 l 2
 641 300 645 294 645 287 c 0
 645 280 638 274 635 270 c 0
 619 247 600 213 600 180 c 1
 650 180 l 2
 672 180 690 162 690 140 c 2
 690 40 l 2
 690 18 672 0 650 0 c 2
 390 0 l 2
 170 0 30 123 30 300 c 0
305 625 m 0
 305 600 325 580 350 580 c 0
 375 580 395 600 395 625 c 0
 395 650 375 670 350 670 c 0
 325 670 305 650 305 625 c 0
EndSplineSet
Colour: ffff00
EndChar

StartChar: uni0E56
Encoding: 475 3670 83
Width: 760
VWidth: 0
Flags: MW
LayerCount: 4
Layer: 2
SplineSet
10 750 m 1
 240 750 l 1
 240 652 282 620 390 620 c 0
 610 620 730 477 730 300 c 0
 730 123 590 -20 370 -20 c 0
 180 -20 40 64 40 180 c 0
 40 250 77 300 160 300 c 2
 310 300 l 1
 302 284 300 258 300 244 c 0
 300 198 323 160 370 160 c 0
 436 160 470 217 470 300 c 0
 470 380 435 440 350 440 c 0
 130 440 10 522 10 750 c 1
EndSplineSet
Validated: 1
Layer: 3
SplineSet
15 710 m 0
 15 732 33 750 55 750 c 2
 203 750 l 2
 225 750 239 732 243 710 c 0
 253 652 285 620 390 620 c 0
 610 620 730 477 730 300 c 0
 730 123 590 -20 370 -20 c 0
 180 -20 40 64 40 180 c 0
 40 250 77 300 160 300 c 2
 270 300 l 2
 284 300 303 294 303 270 c 0
 303 266 300 249 300 244 c 0
 300 198 323 160 370 160 c 0
 436 160 470 217 470 300 c 0
 470 380 435 440 350 440 c 0
 115 440 15 541 15 710 c 0
EndSplineSet
Colour: ffff00
EndChar

StartChar: uni0E57
Encoding: 476 3671 84
Width: 1105
VWidth: 0
Flags: MW
LayerCount: 4
Layer: 2
SplineSet
30 300 m 0
 30 470 127 610 280 610 c 0
 328 610 340 600 340 600 c 1
 430 452 l 1
 530 600 l 1
 760 600 l 1
 760 183 l 1
 806 193 830 230 830 300 c 2
 830 600 l 1
 1060 600 l 1
 1060 300 l 2
 1060 123 950 0 730 0 c 2
 530 0 l 1
 530 380 l 1
 470 280 l 1
 430 280 l 1
 390 280 l 1
 323 380 l 1
 303 361 290 324 290 280 c 0
 290 232 327 180 370 180 c 0
 381 180 391 182 400 185 c 1
 440 20 l 1
 411 1 364 -10 310 -10 c 0
 132 -10 30 129 30 300 c 0
EndSplineSet
Validated: 1
Layer: 3
SplineSet
30 300 m 0
 30 470 127 610 280 610 c 0
 337 610 357 570 357 570 c 1
 430 452 l 1
 430 450 l 1
 503 560 l 2
 518 584 534 600 560 600 c 2
 720 600 l 2
 742 600 760 582 760 560 c 2
 760 183 l 1
 806 193 830 230 830 300 c 2
 830 560 l 2
 830 582 848 600 870 600 c 2
 1020 600 l 2
 1042 600 1060 582 1060 560 c 2
 1060 300 l 2
 1060 123 950 0 730 0 c 2
 570 0 l 2
 548 0 530 18 530 40 c 2
 530 380 l 1
 495 320 l 2
 477 291 467 280 450 280 c 2
 430 280 l 1
 407 280 l 2
 390 280 380 291 362 320 c 2
 323 380 l 1
 303 361 290 324 290 280 c 0
 290 232 327 180 370 180 c 0
 386 180 402 175 406 160 c 2
 432 55 l 1
 432 55 435 44 435 38 c 0
 435 24 429 15 420 10 c 0
 407 2 364 -10 310 -10 c 0
 132 -10 30 129 30 300 c 0
EndSplineSet
Colour: ffff00
EndChar

StartChar: uni0E58
Encoding: 477 3672 85
Width: 820
VWidth: 0
Flags: MW
LayerCount: 4
Layer: 2
SplineSet
30 300 m 0
 30 477 150 620 370 620 c 0
 509 620 550 652 550 750 c 1
 800 750 l 1
 800 522 687 440 410 440 c 0
 325 440 270 380 270 300 c 0
 270 246 284 203 312 180 c 1
 400 300 l 1
 430 300 l 1
 460 300 l 1
 543 186 l 1
 554 201 560 221 560 244 c 0
 560 258 558 284 550 300 c 1
 680 300 l 2
 763 300 800 250 800 180 c 0
 800 64 670 -20 530 -20 c 1
 430 120 l 1
 330 -20 l 1
 170 -20 30 123 30 300 c 0
EndSplineSet
Validated: 1
Layer: 3
SplineSet
30 300 m 0
 30 477 150 620 370 620 c 0
 510 620 535 652 545 710 c 0
 549 732 563 750 585 750 c 2
 755 750 l 2
 777 750 795 732 795 710 c 0
 795 529 683 440 410 440 c 0
 325 440 270 380 270 300 c 0
 270 246 284 203 313 180 c 1
 386 280 l 1
 386 280 397 300 415 300 c 2
 430 300 l 1
 445 300 l 2
 463 300 474 280 474 280 c 1
 543 185 l 1
 554 201 560 221 560 244 c 0
 560 249 557 266 557 270 c 0
 557 294 576 300 590 300 c 2
 680 300 l 2
 763 300 800 250 800 180 c 0
 800 58 655 -20 550 -20 c 0
 532 -20 518 0 518 0 c 1
 430 120 l 1
 342 0 l 1
 342 0 328 -20 310 -20 c 0
 202 -20 30 98 30 300 c 0
EndSplineSet
Colour: ffff00
EndChar

StartChar: uni0E59
Encoding: 478 3673 86
Width: 880
VWidth: 0
Flags: MW
LayerCount: 4
Layer: 2
SplineSet
30 280 m 0
 30 464 155 610 370 610 c 0
 458 610 530 600 530 600 c 1
 569 482 l 1
 619 501 640 541 640 600 c 2
 640 750 l 1
 870 750 l 1
 870 600 l 2
 870 452 786 335 630 300 c 1
 730 0 l 1
 510 0 l 1
 380 430 l 1
 332 430 290 370 290 290 c 0
 290 210 316 170 350 170 c 0
 361 170 371 172 380 175 c 1
 420 20 l 1
 391 1 344 -10 290 -10 c 0
 142 -10 30 114 30 280 c 0
EndSplineSet
Validated: 1
Layer: 3
SplineSet
30 280 m 0
 30 464 155 610 370 610 c 0
 458 610 500 600 500 600 c 1
 528 600 542 570 545 557 c 1
 570 482 l 1
 619 501 640 541 640 600 c 2
 640 710 l 2
 640 732 658 750 680 750 c 2
 830 750 l 2
 852 750 870 732 870 710 c 2
 870 600 l 2
 870 452 786 335 630 300 c 1
 715 45 l 2
 717 40 720 29 720 25 c 0
 720 10 705 0 680 0 c 2
 545 0 l 2
 516 0 502 13 495 40 c 2
 380 430 l 1
 332 430 290 370 290 290 c 0
 290 210 316 170 350 170 c 0
 366 170 382 165 386 150 c 2
 412 55 l 1
 412 55 415 44 415 38 c 0
 415 24 409 15 400 10 c 0
 387 2 344 -10 290 -10 c 0
 142 -10 30 114 30 280 c 0
EndSplineSet
Colour: ffff00
EndChar

StartChar: uni0E5A
Encoding: 479 3674 87
Width: 900
VWidth: 0
Flags: MW
LayerCount: 4
Layer: 2
SplineSet
20 490 m 2
 20 600 l 1
 230 600 l 1
 230 540 l 2
 230 479 259 460 290 460 c 0
 329 460 362 490 380 535 c 1
 380 600 l 1
 570 600 l 1
 570 0 l 1
 360 0 l 1
 360 349 l 1
 329 317 280 290 210 290 c 0
 87 290 21 386 20 490 c 2
630 0 m 1
 630 600 l 1
 840 600 l 1
 840 0 l 1
 630 0 l 1
EndSplineSet
Validated: 1
Layer: 3
SplineSet
20 490 m 2
 20 560 l 2
 20 582 38 600 60 600 c 2
 190 600 l 2
 212 600 230 582 230 560 c 2
 230 540 l 2
 230 479 259 460 290 460 c 0
 329 460 362 490 380 535 c 1
 380 570 l 2
 380 586 394 600 410 600 c 2
 540 600 l 2
 556 600 570 586 570 570 c 2
 570 30 l 2
 570 14 556 0 540 0 c 2
 390 0 l 2
 374 0 360 14 360 30 c 2
 360 349 l 1
 329 317 280 290 210 290 c 0
 87 290 21 386 20 490 c 2
630 30 m 2
 630 570 l 2
 630 586 644 600 660 600 c 2
 810 600 l 2
 826 600 840 586 840 570 c 2
 840 30 l 2
 840 14 826 0 810 0 c 2
 660 0 l 2
 644 0 630 14 630 30 c 2
EndSplineSet
Colour: ffff00
EndChar

StartChar: uni0E5B
Encoding: 480 3675 88
Width: 1110
VWidth: 0
Flags: MW
LayerCount: 4
Layer: 2
SplineSet
30 300 m 0
 30 477 161 620 350 620 c 0
 447 620 512 588 570 530 c 1
 520 470 l 1
 478 513 422 540 350 540 c 0
 213 540 120 433 120 300 c 0
 120 167 213 60 350 60 c 0
 501 60 575 158 600 300 c 0
 613 372 620 464 620 540 c 1
 700 540 l 1
 792 222 l 1
 865 450 l 1
 935 450 l 1
 978 340 l 1
 1080 340 l 1
 1080 260 l 1
 1010 260 l 1
 940 260 l 1
 905 348 l 1
 830 90 l 1
 750 90 l 1
 683 322 l 1
 682 314 681 307 680 300 c 0
 652 108 551 -20 350 -20 c 0
 161 -20 30 123 30 300 c 0
200 300 m 0
 200 383 267 450 350 450 c 0
 433 450 500 383 500 300 c 0
 500 217 433 150 350 150 c 0
 267 150 200 217 200 300 c 0
EndSplineSet
Validated: 1
Layer: 3
SplineSet
30 300 m 0
 30 477 161 620 350 620 c 0
 438 620 501 592 555 545 c 0
 559 541 562 536 562 530 c 0
 562 525 561 519 558 515 c 2
 532 485 l 2
 528 480 525 480 520 480 c 0
 515 480 509 482 505 485 c 0
 465 519 413 540 350 540 c 0
 213 540 120 433 120 300 c 0
 120 167 213 60 350 60 c 0
 501 60 575 158 600 300 c 0
 612 366 619 448 620 520 c 0
 620 531 629 540 640 540 c 2
 685 540 l 2
 696 540 702 532 706 520 c 2
 792 217 l 1
 859 430 l 2
 863 442 869 450 880 450 c 2
 922 450 l 2
 933 450 939 442 943 430 c 1
 978 340 l 1
 1060 340 l 2
 1071 340 1080 331 1080 320 c 2
 1080 280 l 2
 1080 269 1071 260 1060 260 c 2
 953 260 l 2
 942 260 936 268 932 280 c 1
 905 349 l 1
 836 110 l 2
 832 98 826 90 815 90 c 2
 765 90 l 2
 754 90 748 98 744 110 c 2
 683 322 l 1
 682 314 681 307 680 300 c 0
 652 108 551 -20 350 -20 c 0
 161 -20 30 123 30 300 c 0
200 300 m 0
 200 383 267 450 350 450 c 0
 433 450 500 383 500 300 c 0
 500 217 433 150 350 150 c 0
 267 150 200 217 200 300 c 0
EndSplineSet
Colour: ffff00
EndChar

StartChar: o
Encoding: 81 111 91
Width: 760
VWidth: 0
Flags: MW
LayerCount: 4
Layer: 2
SplineSet
30 300 m 0
 30 477 166 620 380 620 c 0
 594 620 730 477 730 300 c 0
 730 123 594 -20 380 -20 c 0
 166 -20 30 123 30 300 c 0
290 300 m 0
 290 237 323 190 380 190 c 0
 437 190 470 237 470 300 c 0
 470 363 437 410 380 410 c 0
 323 410 290 363 290 300 c 0
EndSplineSet
Validated: 1
Layer: 3
SplineSet
30 300 m 0
 30 477 166 620 380 620 c 0
 594 620 730 477 730 300 c 0
 730 123 594 -20 380 -20 c 0
 166 -20 30 123 30 300 c 0
290 300 m 0
 290 237 323 190 380 190 c 0
 437 190 470 237 470 300 c 0
 470 363 437 410 380 410 c 0
 323 410 290 363 290 300 c 0
EndSplineSet
Colour: ffff00
EndChar

StartChar: c
Encoding: 69 99 92
Width: 650
VWidth: 0
Flags: MW
LayerCount: 4
Layer: 2
SplineSet
30 300 m 0
 30 477 166 620 380 620 c 0
 549 620 630 550 630 550 c 1
 550 390 l 1
 528 404 499 420 430 420 c 0
 361 420 310 373 310 300 c 0
 310 227 361 180 430 180 c 0
 499 180 528 196 550 210 c 1
 630 50 l 1
 630 50 549 -20 380 -20 c 0
 166 -20 30 123 30 300 c 0
EndSplineSet
Validated: 1
Layer: 3
SplineSet
30 300 m 0
 30 477 166 620 380 620 c 0
 503 620 563 587 580 580 c 0
 599 572 620 558 620 540 c 0
 620 528 614 519 610 510 c 2
 570 420 l 2
 565 408 559 395 545 395 c 0
 529 395 518 407 485 415 c 0
 472 418 454 420 430 420 c 0
 361 420 310 373 310 300 c 0
 310 227 361 180 430 180 c 0
 454 180 472 182 485 185 c 0
 518 193 529 205 545 205 c 0
 559 205 565 192 570 180 c 2
 610 90 l 2
 614 81 620 72 620 60 c 0
 620 42 599 28 580 20 c 0
 563 13 503 -20 380 -20 c 0
 166 -20 30 123 30 300 c 0
EndSplineSet
Colour: ffff00
EndChar

StartChar: l
Encoding: 78 108 93
Width: 400
VWidth: 0
Flags: MW
LayerCount: 4
Layer: 2
SplineSet
60 100 m 2
 60 840 l 1
 340 840 l 1
 340 0 l 1
 340 0 268 -10 200 -10 c 0
 88 -10 60 36 60 100 c 2
EndSplineSet
Validated: 1
Layer: 3
SplineSet
60 100 m 2
 60 800 l 2
 60 822 78 840 100 840 c 2
 300 840 l 2
 322 840 340 822 340 800 c 2
 340 20 l 2
 340 7 336 2 325 0 c 1
 325 0 262 -10 200 -10 c 0
 88 -10 60 36 60 100 c 2
EndSplineSet
Colour: ffff00
EndChar

StartChar: u
Encoding: 87 117 94
Width: 775
VWidth: 0
UnlinkRmOvrlpSave: 1
Flags: MW
LayerCount: 4
Layer: 2
SplineSet
725 600 m 1
 725 0 l 1
 465 0 l 1
 465 102 l 1
 437 56 378 -10 265 -10 c 0
 136 -10 45 74 45 220 c 2
 45 600 l 1
 325 600 l 1
 325 280 l 2
 325 219 341 200 375 200 c 0
 410 200 432 226 445 267 c 1
 445 600 l 1
 725 600 l 1
EndSplineSet
Layer: 3
Refer: 101 110 S -1 0 0 -1 775 600 2
Colour: ffff00
EndChar

StartChar: a
Encoding: 67 97 95
Width: 710
VWidth: 0
Flags: MW
LayerCount: 4
Layer: 2
SplineSet
300 180 m 4
 300 145 323 130 345 130 c 4
 368 130 384 138 400 152 c 5
 400 208 l 5
 384 222 368 230 345 230 c 4
 323 230 300 215 300 180 c 4
30 180 m 4
 30 288 99 370 235 370 c 4
 323 370 375 337 400 313 c 5
 400 360 l 6
 400 421 363 440 285 440 c 4
 207 440 144 416 100 400 c 5
 40 550 l 5
 40 550 153 620 355 620 c 4
 569 620 670 536 670 370 c 6
 670 0 l 5
 420 0 l 5
 420 70 l 5
 420 70 371 -10 235 -10 c 4
 99 -10 30 72 30 180 c 4
EndSplineSet
Validated: 1
Layer: 3
SplineSet
300 180 m 4
 300 145 323 130 345 130 c 4
 368 130 384 138 400 152 c 5
 400 208 l 5
 384 222 368 230 345 230 c 4
 323 230 300 215 300 180 c 4
30 180 m 4
 30 288 99 370 235 370 c 4
 323 370 375 337 400 313 c 5
 400 360 l 6
 400 421 363 440 285 440 c 4
 236 440 191 427 160 415 c 4
 147 410 124 400 111 400 c 4
 96 400 91 418 86 430 c 6
 55 510 l 5
 55 510 50 522 50 535 c 4
 50 550 55 558 70 565 c 4
 82 570 179 620 355 620 c 4
 569 620 670 536 670 370 c 6
 670 40 l 6
 670 18 652 0 630 0 c 6
 460 0 l 6
 438 0 420 18 420 40 c 6
 420 70 l 5
 420 70 371 -10 235 -10 c 4
 99 -10 30 72 30 180 c 4
EndSplineSet
Colour: ffff00
EndChar

StartChar: d
Encoding: 70 100 96
Width: 800
VWidth: 0
Flags: MW
LayerCount: 4
Layer: 2
SplineSet
30 300 m 0
 30 471 142 610 320 610 c 0
 387 610 435 583 470 544 c 1
 470 840 l 1
 740 840 l 1
 740 0 l 1
 490 0 l 1
 490 82 l 1
 455 29 401 -10 320 -10 c 0
 142 -10 30 129 30 300 c 0
310 300 m 0
 310 220 352 180 400 180 c 0
 438 180 459 198 470 228 c 1
 470 372 l 1
 459 402 438 420 400 420 c 0
 352 420 310 380 310 300 c 0
EndSplineSet
Validated: 1
Layer: 3
SplineSet
30 300 m 0
 30 471 142 610 320 610 c 0
 387 610 435 583 470 544 c 1
 470 800 l 2
 470 822 488 840 510 840 c 2
 700 840 l 2
 722 840 740 822 740 800 c 2
 740 40 l 2
 740 18 722 0 700 0 c 2
 530 0 l 2
 508 0 490 18 490 40 c 2
 490 82 l 1
 455 29 401 -10 320 -10 c 0
 142 -10 30 129 30 300 c 0
310 300 m 0
 310 220 352 180 400 180 c 0
 438 180 459 198 470 228 c 1
 470 372 l 1
 459 402 438 420 400 420 c 0
 352 420 310 380 310 300 c 0
EndSplineSet
Colour: ffff00
EndChar

StartChar: b
Encoding: 68 98 97
Width: 800
VWidth: 0
Flags: MW
LayerCount: 4
Layer: 2
SplineSet
60 0 m 1
 60 840 l 1
 330 840 l 1
 330 544 l 1
 365 583 413 610 480 610 c 0
 658 610 770 471 770 300 c 0
 770 129 658 -10 480 -10 c 0
 399 -10 345 29 310 82 c 1
 310 0 l 1
 60 0 l 1
330 228 m 1
 341 198 362 180 400 180 c 0
 448 180 490 220 490 300 c 0
 490 380 448 420 400 420 c 0
 362 420 341 402 330 372 c 1
 330 228 l 1
EndSplineSet
Validated: 1
Layer: 3
SplineSet
60 40 m 2
 60 800 l 2
 60 822 78 840 100 840 c 2
 290 840 l 2
 312 840 330 822 330 800 c 2
 330 544 l 1
 365 583 413 610 480 610 c 0
 658 610 770 471 770 300 c 0
 770 129 658 -10 480 -10 c 0
 399 -10 345 29 310 82 c 1
 310 40 l 2
 310 18 292 0 270 0 c 2
 100 0 l 2
 78 0 60 18 60 40 c 2
330 228 m 1
 341 198 362 180 400 180 c 0
 448 180 490 220 490 300 c 0
 490 380 448 420 400 420 c 0
 362 420 341 402 330 372 c 1
 330 228 l 1
EndSplineSet
Colour: ffff00
EndChar

StartChar: e
Encoding: 71 101 98
Width: 730
VWidth: 0
Flags: MW
LayerCount: 4
Layer: 2
SplineSet
30 300 m 0
 30 477 166 620 380 620 c 0
 553 620 700 518 700 320 c 0
 700 275 690 240 690 240 c 1
 290 240 l 1
 308 189 352 160 420 160 c 0
 511 160 558 186 580 200 c 1
 640 60 l 1
 640 60 560 -20 380 -20 c 0
 166 -20 30 123 30 300 c 0
284 350 m 1
 460 350 l 1
 460 402 432 440 380 440 c 0
 329 440 296 409 284 350 c 1
EndSplineSet
Validated: 1
Layer: 3
SplineSet
30 300 m 0
 30 477 166 620 380 620 c 0
 553 620 700 518 700 320 c 0
 700 275 691 240 660 240 c 2
 290 240 l 1
 308 189 352 160 420 160 c 0
 469 160 497 167 510 170 c 0
 543 178 554 190 570 190 c 0
 584 190 590 177 595 165 c 2
 625 100 l 2
 629 91 635 82 635 70 c 0
 635 52 613 41 595 30 c 0
 578 20 510 -20 380 -20 c 0
 166 -20 30 123 30 300 c 0
284 350 m 1
 460 350 l 1
 460 402 432 440 380 440 c 0
 329 440 296 409 284 350 c 1
EndSplineSet
Colour: ffff00
EndChar

StartChar: q
Encoding: 83 113 99
Width: 800
VWidth: 0
Flags: MW
LayerCount: 4
Layer: 2
SplineSet
30 300 m 0
 30 471 142 610 320 610 c 0
 401 610 455 571 490 518 c 1
 490 600 l 1
 740 600 l 1
 740 -240 l 1
 470 -240 l 1
 470 56 l 1
 435 17 387 -10 320 -10 c 0
 142 -10 30 129 30 300 c 0
310 300 m 0
 310 220 352 180 400 180 c 0
 438 180 459 198 470 228 c 1
 470 372 l 1
 459 402 438 420 400 420 c 0
 352 420 310 380 310 300 c 0
EndSplineSet
Validated: 1
Layer: 3
SplineSet
30 300 m 0
 30 471 142 610 320 610 c 0
 401 610 455 571 490 518 c 1
 490 560 l 2
 490 582 508 600 530 600 c 2
 700 600 l 2
 722 600 740 582 740 560 c 2
 740 -200 l 2
 740 -222 722 -240 700 -240 c 2
 510 -240 l 2
 488 -240 470 -222 470 -200 c 2
 470 56 l 1
 435 17 387 -10 320 -10 c 0
 142 -10 30 129 30 300 c 0
310 300 m 0
 310 220 352 180 400 180 c 0
 438 180 459 198 470 228 c 1
 470 372 l 1
 459 402 438 420 400 420 c 0
 352 420 310 380 310 300 c 0
EndSplineSet
Colour: ffff00
EndChar

StartChar: p
Encoding: 82 112 100
Width: 800
VWidth: 0
Flags: MW
LayerCount: 4
Layer: 2
SplineSet
60 -240 m 1
 60 600 l 1
 310 600 l 1
 310 518 l 1
 345 571 399 610 480 610 c 0
 658 610 770 471 770 300 c 0
 770 129 658 -10 480 -10 c 0
 413 -10 365 17 330 56 c 1
 330 -240 l 1
 60 -240 l 1
330 228 m 1
 341 198 362 180 400 180 c 0
 448 180 490 220 490 300 c 0
 490 380 448 420 400 420 c 0
 362 420 341 402 330 372 c 1
 330 228 l 1
EndSplineSet
Validated: 1
Layer: 3
SplineSet
60 -200 m 2
 60 560 l 2
 60 582 78 600 100 600 c 2
 270 600 l 2
 292 600 310 582 310 560 c 2
 310 518 l 1
 345 571 399 610 480 610 c 0
 658 610 770 471 770 300 c 0
 770 129 658 -10 480 -10 c 0
 413 -10 365 17 330 56 c 1
 330 -200 l 2
 330 -222 312 -240 290 -240 c 2
 100 -240 l 2
 78 -240 60 -222 60 -200 c 2
330 228 m 1
 341 198 362 180 400 180 c 0
 448 180 490 220 490 300 c 0
 490 380 448 420 400 420 c 0
 362 420 341 402 330 372 c 1
 330 228 l 1
EndSplineSet
Colour: ffff00
EndChar

StartChar: n
Encoding: 80 110 101
Width: 775
VWidth: 0
Flags: MW
LayerCount: 4
Layer: 2
SplineSet
50 0 m 1
 50 600 l 1
 310 600 l 1
 310 498 l 1
 338 544 397 610 510 610 c 0
 639 610 730 526 730 380 c 2
 730 0 l 1
 450 0 l 1
 450 320 l 2
 450 381 434 400 400 400 c 0
 365 400 343 374 330 333 c 1
 330 0 l 1
 50 0 l 1
EndSplineSet
Validated: 1
Layer: 3
SplineSet
50 40 m 2
 50 560 l 2
 50 582 68 600 90 600 c 2
 270 600 l 2
 292 600 310 582 310 560 c 2
 310 498 l 1
 338 544 397 610 510 610 c 0
 639 610 730 526 730 380 c 2
 730 40 l 2
 730 18 712 0 690 0 c 2
 490 0 l 2
 468 0 450 18 450 40 c 2
 450 320 l 2
 450 381 434 400 400 400 c 0
 365 400 343 374 330 333 c 1
 330 40 l 2
 330 18 312 0 290 0 c 2
 90 0 l 2
 68 0 50 18 50 40 c 2
EndSplineSet
Colour: ffff00
EndChar

StartChar: h
Encoding: 74 104 102
Width: 785
VWidth: 0
Flags: MW
LayerCount: 4
Layer: 2
SplineSet
60 0 m 1
 60 840 l 1
 330 840 l 1
 330 513 l 1
 361 558 419 610 520 610 c 0
 649 610 740 526 740 380 c 2
 740 0 l 1
 460 0 l 1
 460 320 l 2
 460 381 444 400 410 400 c 0
 375 400 353 374 340 333 c 1
 340 0 l 1
 60 0 l 1
EndSplineSet
Validated: 1
Layer: 3
SplineSet
60 40 m 6
 60 800 l 6
 60 822 78 840 100 840 c 6
 290 840 l 6
 312 840 330 822 330 800 c 6
 330 513 l 5
 361 558 419 610 520 610 c 4
 649 610 740 526 740 380 c 6
 740 40 l 6
 740 18 722 0 700 0 c 6
 500 0 l 6
 478 0 460 18 460 40 c 6
 460 320 l 6
 460 381 444 400 410 400 c 4
 375 400 353 374 340 333 c 5
 340 40 l 6
 340 18 322 0 300 0 c 6
 100 0 l 6
 78 0 60 18 60 40 c 6
EndSplineSet
Colour: ffff00
EndChar

StartChar: s
Encoding: 85 115 103
Width: 630
VWidth: 0
Flags: MW
LayerCount: 4
Layer: 2
SplineSet
30 50 m 1
 100 190 l 1
 137 161 224 135 265 135 c 0
 298 135 320 143 320 165 c 0
 320 184 300 194 270 205 c 0
 246 214 208 228 180 240 c 0
 122 265 40 312 40 410 c 0
 40 537 153 620 320 620 c 0
 457 620 536 584 590 550 c 1
 520 410 l 1
 488 438 410 465 370 465 c 0
 334 465 310 457 310 435 c 0
 310 416 334 406 360 395 c 0
 382 386 423 370 450 360 c 0
 511 337 600 294 600 191 c 0
 600 45 456 -20 310 -20 c 0
 194 -20 89 16 30 50 c 1
EndSplineSet
Validated: 1
Layer: 3
SplineSet
40 410 m 0
 40 537 153 620 320 620 c 0
 453 620 526 583 545 575 c 0
 565 567 580 555 580 540 c 0
 580 530 575 519 570 510 c 2
 540 445 l 1
 535 433 526 425 515 425 c 0
 504 425 490 433 475 440 c 0
 442 455 407 465 370 465 c 0
 334 465 310 457 310 435 c 0
 310 416 334 406 360 395 c 0
 382 386 423 370 450 360 c 0
 511 337 600 294 600 191 c 0
 600 45 456 -20 310 -20 c 0
 188 -20 94 20 75 28 c 0
 56 36 45 47 45 65 c 0
 45 77 51 91 55 100 c 2
 85 160 l 2
 90 172 95 183 110 183 c 0
 124 183 143 167 165 158 c 0
 193 146 234 135 265 135 c 0
 298 135 320 143 320 165 c 0
 320 184 300 194 270 205 c 0
 246 214 208 228 180 240 c 0
 122 265 40 312 40 410 c 0
EndSplineSet
Colour: ffff00
EndChar

StartChar: i
Encoding: 75 105 104
Width: 400
VWidth: 0
Flags: MW
LayerCount: 4
Layer: 2
SplineSet
60 0 m 1
 60 600 l 1
 340 600 l 1
 340 0 l 1
 60 0 l 1
80 660 m 1
 80 840 l 1
 320 840 l 1
 320 660 l 1
 80 660 l 1
EndSplineSet
Validated: 1
Layer: 3
SplineSet
60 40 m 2
 60 560 l 2
 60 582 78 600 100 600 c 2
 300 600 l 2
 322 600 340 582 340 560 c 2
 340 40 l 2
 340 18 322 0 300 0 c 2
 100 0 l 2
 78 0 60 18 60 40 c 2
80 690 m 2
 80 810 l 2
 80 826 94 840 110 840 c 2
 290 840 l 2
 306 840 320 826 320 810 c 2
 320 690 l 2
 320 674 306 660 290 660 c 2
 110 660 l 2
 94 660 80 674 80 690 c 2
EndSplineSet
Colour: ffff00
EndChar

StartChar: z
Encoding: 92 122 105
Width: 680
VWidth: 0
Flags: MW
LayerCount: 4
Layer: 2
SplineSet
30 0 m 1
 30 140 l 1
 310 440 l 1
 50 440 l 1
 50 600 l 1
 630 600 l 1
 630 460 l 1
 370 160 l 1
 650 160 l 1
 650 0 l 1
 30 0 l 1
EndSplineSet
Validated: 1
Layer: 3
SplineSet
30 30 m 2
 30 115 l 2
 30 142 51 161 60 170 c 2
 310 440 l 1
 80 440 l 2
 64 440 50 454 50 470 c 2
 50 570 l 2
 50 586 64 600 80 600 c 2
 600 600 l 2
 615 600 630 590 630 570 c 2
 630 480 l 2
 630 453 609 434 600 425 c 2
 370 160 l 1
 620 160 l 2
 636 160 650 146 650 130 c 2
 650 30 l 2
 650 14 636 0 620 0 c 2
 60 0 l 2
 45 0 30 10 30 30 c 2
EndSplineSet
Colour: ffff00
EndChar

StartChar: g
Encoding: 73 103 106
Width: 680
VWidth: 0
Flags: MW
LayerCount: 4
Layer: 2
SplineSet
30 390 m 0
 30 528 140 620 320 620 c 0
 401 620 469 601 518 568 c 1
 550 600 l 1
 690 600 l 1
 690 450 l 1
 602 450 l 1
 607 431 610 411 610 390 c 0
 610 252 500 160 320 160 c 0
 291 160 265 162 240 167 c 1
 234 159 230 152 230 145 c 0
 230 125 249 120 290 120 c 2
 390 120 l 2
 547 120 630 41 630 -60 c 0
 630 -203 516 -280 320 -280 c 0
 145 -280 75 -253 40 -240 c 1
 80 -95 l 1
 117 -111 183 -130 250 -130 c 0
 313 -130 340 -122 340 -105 c 0
 340 -89 327 -80 300 -80 c 2
 235 -80 l 2
 149 -80 60 -39 60 60 c 0
 60 120 92 168 140 202 c 1
 69 241 30 307 30 390 c 0
270 390 m 0
 270 348 282 310 320 310 c 0
 358 310 370 348 370 390 c 0
 370 432 358 470 320 470 c 0
 282 470 270 432 270 390 c 0
EndSplineSet
Validated: 1
Layer: 3
SplineSet
30 390 m 4
 30 528 140 620 320 620 c 4
 401 620 469 601 518 568 c 5
 540 590 l 6
 545 595 551 600 560 600 c 6
 660 600 l 6
 676 600 690 586 690 570 c 6
 690 480 l 6
 690 464 676 450 660 450 c 6
 602 450 l 5
 607 431 610 411 610 390 c 4
 610 252 500 160 320 160 c 4
 291 160 265 162 240 167 c 5
 234 159 230 152 230 145 c 4
 230 125 249 120 290 120 c 6
 390 120 l 6
 547 120 630 41 630 -60 c 4
 630 -203 516 -280 320 -280 c 4
 171 -280 128 -267 85 -255 c 4
 66 -250 45 -238 45 -220 c 4
 45 -207 50 -195 50 -195 c 5
 78 -120 l 6
 81 -111 86 -100 100 -100 c 4
 120 -100 127 -110 165 -120 c 4
 187 -126 227 -130 250 -130 c 4
 313 -130 340 -122 340 -105 c 4
 340 -89 327 -80 300 -80 c 6
 235 -80 l 6
 149 -80 60 -39 60 60 c 4
 60 120 92 168 140 202 c 5
 69 241 30 307 30 390 c 4
270 390 m 4
 270 348 282 310 320 310 c 4
 358 310 370 348 370 390 c 4
 370 432 358 470 320 470 c 4
 282 470 270 432 270 390 c 4
EndSplineSet
Colour: ffff00
EndChar

StartChar: f
Encoding: 72 102 107
Width: 540
VWidth: 0
Flags: MW
LayerCount: 4
Layer: 2
SplineSet
30 440 m 1
 30 600 l 1
 110 600 l 1
 110 650 l 2
 110 803 221 870 350 870 c 0
 474 870 546 821 560 810 c 1
 490 670 l 1
 481 675 455 690 420 690 c 0
 390 690 360 677 360 630 c 2
 360 600 l 1
 500 600 l 1
 500 440 l 1
 370 440 l 1
 370 0 l 1
 100 0 l 1
 100 440 l 1
 30 440 l 1
EndSplineSet
Validated: 1
Layer: 3
SplineSet
30 470 m 6
 30 570 l 6
 30 586 44 600 60 600 c 6
 110 600 l 5
 110 650 l 6
 110 803 221 870 350 870 c 4
 443 870 504 841 533 825 c 4
 546 818 550 810 550 798 c 4
 550 792 547 784 545 780 c 6
 500 690 l 6
 496 683 491 678 482 678 c 4
 479 678 474 678 470 680 c 4
 458 685 439 690 420 690 c 4
 390 690 360 677 360 630 c 6
 360 600 l 5
 470 600 l 6
 486 600 500 586 500 570 c 6
 500 470 l 6
 500 454 486 440 470 440 c 6
 370 440 l 5
 370 40 l 6
 370 18 352 0 330 0 c 6
 140 0 l 6
 118 0 100 18 100 40 c 6
 100 440 l 5
 60 440 l 6
 44 440 30 454 30 470 c 6
EndSplineSet
Colour: ffff00
EndChar

StartChar: t
Encoding: 86 116 108
Width: 530
VWidth: 0
Flags: MW
LayerCount: 4
Layer: 2
SplineSet
20 440 m 1
 20 600 l 1
 100 600 l 1
 100 780 l 1
 350 780 l 1
 350 600 l 1
 490 600 l 1
 490 440 l 1
 360 440 l 1
 360 240 l 2
 360 190 385 170 410 170 c 0
 439 170 466 189 480 200 c 1
 530 60 l 1
 507 36 426 -20 300 -20 c 0
 171 -20 90 47 90 200 c 2
 90 440 l 1
 20 440 l 1
EndSplineSet
Validated: 1
Layer: 3
SplineSet
20 470 m 2
 20 570 l 2
 20 586 34 600 50 600 c 2
 100 600 l 1
 100 740 l 2
 100 762 118 780 140 780 c 2
 310 780 l 2
 332 780 350 762 350 740 c 2
 350 600 l 1
 460 600 l 2
 476 600 490 586 490 570 c 2
 490 470 l 2
 490 454 476 440 460 440 c 2
 360 440 l 1
 360 240 l 2
 360 190 385 170 410 170 c 0
 427 170 439 174 450 180 c 0
 459 185 468 195 475 195 c 0
 483 195 486 187 489 179 c 2
 520 87 l 2
 522 79 525 71 525 65 c 0
 525 55 514 45 505 39 c 0
 463 9 410 -20 300 -20 c 0
 171 -20 90 47 90 200 c 2
 90 440 l 1
 50 440 l 2
 34 440 20 454 20 470 c 2
EndSplineSet
Colour: ffff00
EndChar

StartChar: r
Encoding: 84 114 109
Width: 520
VWidth: 0
Flags: MW
LayerCount: 4
Layer: 2
SplineSet
60 0 m 1
 60 600 l 1
 320 600 l 1
 320 503 l 1
 355 559 411 610 500 610 c 1
 500 399 l 1
 482 403 465 405 450 405 c 0
 396 405 361 379 340 335 c 1
 340 0 l 1
 60 0 l 1
EndSplineSet
Validated: 1
Layer: 3
SplineSet
60 40 m 2
 60 560 l 2
 60 582 78 600 100 600 c 2
 280 600 l 2
 302 600 320 582 320 560 c 2
 320 503 l 1
 352 556 403 605 475 605 c 0
 492 605 500 598 500 580 c 2
 500 420 l 2
 500 406 498 399 490 399 c 0
 480 399 474 405 450 405 c 0
 396 405 361 379 340 335 c 1
 340 40 l 2
 340 18 322 0 300 0 c 2
 100 0 l 2
 78 0 60 18 60 40 c 2
EndSplineSet
Colour: ffff00
EndChar

StartChar: m
Encoding: 79 109 110
Width: 1105
VWidth: 0
Flags: MW
LayerCount: 4
Layer: 2
SplineSet
50 0 m 1
 50 600 l 1
 310 600 l 1
 310 513 l 1
 341 558 397 610 490 610 c 0
 574 610 640 573 671 499 c 1
 699 545 757 610 860 610 c 0
 978 610 1060 536 1060 390 c 2
 1060 0 l 1
 790 0 l 1
 790 330 l 2
 790 391 776 410 750 410 c 0
 720 410 705 385 690 349 c 1
 690 0 l 1
 420 0 l 1
 420 330 l 2
 420 391 406 410 380 410 c 0
 350 410 335 385 320 349 c 1
 320 0 l 1
 50 0 l 1
EndSplineSet
Validated: 1
Layer: 3
SplineSet
50 40 m 2
 50 560 l 2
 50 582 68 600 90 600 c 2
 270 600 l 2
 292 600 310 582 310 560 c 2
 310 513 l 1
 341 558 397 610 490 610 c 0
 574 610 640 573 671 499 c 1
 699 545 757 610 860 610 c 0
 978 610 1060 536 1060 390 c 2
 1060 40 l 2
 1060 18 1042 0 1020 0 c 2
 830 0 l 2
 808 0 790 18 790 40 c 2
 790 330 l 2
 790 391 776 410 750 410 c 0
 720 410 705 385 690 349 c 1
 690 40 l 2
 690 18 672 0 650 0 c 2
 460 0 l 2
 438 0 420 18 420 40 c 2
 420 330 l 2
 420 391 406 410 380 410 c 0
 350 410 335 385 320 349 c 1
 320 40 l 2
 320 18 302 0 280 0 c 2
 90 0 l 2
 68 0 50 18 50 40 c 2
EndSplineSet
Colour: ffff00
EndChar

StartChar: j
Encoding: 76 106 111
Width: 400
VWidth: 0
Flags: MW
LayerCount: 4
Layer: 2
SplineSet
60 -240 m 1
 60 600 l 1
 340 600 l 1
 340 -140 l 2
 340 -204 312 -250 200 -250 c 0
 132 -250 60 -240 60 -240 c 1
80 660 m 1
 80 840 l 1
 320 840 l 1
 320 660 l 1
 80 660 l 1
EndSplineSet
Validated: 1
Layer: 3
SplineSet
60 -220 m 2
 60 560 l 2
 60 582 78 600 100 600 c 2
 300 600 l 2
 322 600 340 582 340 560 c 2
 340 -140 l 2
 340 -204 312 -250 200 -250 c 0
 138 -250 75 -240 75 -240 c 1
 64 -238 60 -233 60 -220 c 2
80 690 m 2
 80 810 l 2
 80 826 94 840 110 840 c 2
 290 840 l 2
 306 840 320 826 320 810 c 2
 320 690 l 2
 320 674 306 660 290 660 c 2
 110 660 l 2
 94 660 80 674 80 690 c 2
EndSplineSet
Colour: ffff00
EndChar

StartChar: k
Encoding: 77 107 112
Width: 770
VWidth: 0
Flags: MW
LayerCount: 4
Layer: 2
SplineSet
60 0 m 1
 60 840 l 1
 330 840 l 1
 330 390 l 1
 370 390 l 1
 460 600 l 1
 750 600 l 1
 590 310 l 1
 770 0 l 1
 470 0 l 1
 370 210 l 1
 330 210 l 1
 330 0 l 1
 60 0 l 1
EndSplineSet
Validated: 1
Layer: 3
SplineSet
60 40 m 6
 60 800 l 6
 60 822 78 840 100 840 c 6
 290 840 l 6
 312 840 330 822 330 800 c 6
 330 390 l 5
 370 390 l 5
 443 560 l 6
 454 587 469 600 498 600 c 6
 693 600 l 6
 718 600 733 590 733 575 c 4
 733 571 731 565 728 560 c 6
 590 310 l 5
 750 40 l 6
 753 35 755 29 755 25 c 4
 755 10 740 0 715 0 c 6
 505 0 l 6
 476 0 462 13 450 40 c 6
 370 210 l 5
 330 210 l 5
 330 40 l 6
 330 18 312 0 290 0 c 6
 100 0 l 6
 78 0 60 18 60 40 c 6
EndSplineSet
Colour: ffff00
EndChar

StartChar: exclam
Encoding: 3 33 113
Width: 400
VWidth: 0
Flags: MW
LayerCount: 4
Layer: 2
SplineSet
60 840 m 1
 340 840 l 1
 310 270 l 1
 90 270 l 1
 60 840 l 1
80 0 m 1
 80 200 l 1
 320 200 l 1
 320 0 l 1
 80 0 l 1
EndSplineSet
Validated: 1
Layer: 3
SplineSet
62 800 m 1
 62 822 78 840 100 840 c 2
 300 840 l 2
 322 840 338 822 338 800 c 1
 312 310 l 1
 312 288 295 270 273 270 c 2
 127 270 l 2
 105 270 88 288 88 310 c 1
 62 800 l 1
80 30 m 2
 80 170 l 2
 80 186 94 200 110 200 c 2
 290 200 l 2
 306 200 320 186 320 170 c 2
 320 30 l 2
 320 14 306 0 290 0 c 2
 110 0 l 2
 94 0 80 14 80 30 c 2
EndSplineSet
Colour: ffff00
EndChar

StartChar: quotedbl
Encoding: 4 34 114
Width: 580
VWidth: 0
Flags: MW
LayerCount: 4
Layer: 2
SplineSet
40 840 m 1
 270 840 l 1
 220 480 l 1
 90 480 l 1
 40 840 l 1
310 840 m 1
 540 840 l 1
 490 480 l 1
 360 480 l 1
 310 840 l 1
EndSplineSet
Validated: 1
Layer: 3
SplineSet
44 810 m 1
 44 826 58 840 74 840 c 2
 236 840 l 2
 252 840 266 826 266 810 c 1
 224 510 l 1
 224 494 210 480 194 480 c 2
 116 480 l 2
 100 480 86 494 86 510 c 1
 44 810 l 1
314 810 m 1
 314 826 328 840 344 840 c 2
 506 840 l 2
 522 840 536 826 536 810 c 1
 494 510 l 1
 494 494 480 480 464 480 c 2
 386 480 l 2
 370 480 356 494 356 510 c 1
 314 810 l 1
EndSplineSet
Colour: ffff00
EndChar

StartChar: numbersign
Encoding: 5 35 115
Width: 960
VWidth: 0
Flags: MW
LayerCount: 4
Layer: 2
SplineSet
30 180 m 1
 30 360 l 1
 180 360 l 1
 210 480 l 1
 90 480 l 1
 90 660 l 1
 255 660 l 1
 300 840 l 1
 510 840 l 1
 465 660 l 1
 615 660 l 1
 660 840 l 1
 870 840 l 1
 825 660 l 1
 930 660 l 1
 930 480 l 1
 780 480 l 1
 750 360 l 1
 870 360 l 1
 870 180 l 1
 705 180 l 1
 660 0 l 1
 450 0 l 1
 495 180 l 1
 345 180 l 1
 300 0 l 1
 90 0 l 1
 135 180 l 1
 30 180 l 1
390 360 m 1
 540 360 l 1
 570 480 l 1
 420 480 l 1
 390 360 l 1
EndSplineSet
Validated: 1
Layer: 3
SplineSet
30 210 m 2
 30 330 l 2
 30 346 44 360 60 360 c 2
 180 360 l 1
 210 480 l 1
 120 480 l 2
 104 480 90 494 90 510 c 2
 90 630 l 2
 90 646 104 660 120 660 c 2
 255 660 l 1
 292 810 l 2
 296 826 309 840 330 840 c 2
 480 840 l 2
 494 840 503 828 503 817 c 0
 503 815 503 812 502 810 c 2
 465 660 l 1
 615 660 l 1
 652 810 l 2
 656 826 669 840 690 840 c 2
 840 840 l 2
 854 840 863 828 863 817 c 0
 863 815 863 812 862 810 c 2
 825 660 l 1
 900 660 l 2
 916 660 930 646 930 630 c 2
 930 510 l 2
 930 494 916 480 900 480 c 2
 780 480 l 1
 750 360 l 1
 840 360 l 2
 856 360 870 346 870 330 c 2
 870 210 l 2
 870 194 856 180 840 180 c 2
 705 180 l 1
 668 30 l 2
 664 14 651 0 630 0 c 2
 480 0 l 2
 466 0 457 12 457 23 c 0
 457 25 457 28 458 30 c 2
 495 180 l 1
 345 180 l 1
 308 30 l 2
 304 14 291 0 270 0 c 2
 120 0 l 2
 106 0 97 12 97 23 c 0
 97 25 97 28 98 30 c 2
 135 180 l 1
 60 180 l 2
 44 180 30 194 30 210 c 2
390 360 m 1
 540 360 l 1
 570 480 l 1
 420 480 l 1
 390 360 l 1
EndSplineSet
Colour: ffff00
EndChar

StartChar: dollar
Encoding: 6 36 116
Width: 760
VWidth: 0
Flags: MW
LayerCount: 4
Layer: 2
SplineSet
30 80 m 1
 150 280 l 1
 202 245 270 190 340 190 c 0
 384 190 420 197 420 230 c 0
 420 259 390 270 370 280 c 0
 332 299 266 328 220 355 c 0
 148 397 50 460 50 590 c 0
 50 738 155 814 275 844 c 1
 275 960 l 1
 485 960 l 1
 485 854 l 1
 605 835 685 777 710 760 c 1
 610 580 l 1
 534 625 484 650 430 650 c 0
 392 650 360 644 360 610 c 0
 360 585 388 572 410 560 c 0
 464 532 482 524 530 500 c 0
 610 460 730 403 730 240 c 0
 730 93 621 19 485 -8 c 1
 485 -120 l 1
 275 -120 l 1
 275 -16 l 1
 133 1 56 62 30 80 c 1
EndSplineSet
Validated: 1
Layer: 3
SplineSet
40 85 m 0
 40 95 43 101 48 110 c 2
 125 245 l 2
 132 258 144 265 155 265 c 0
 165 265 174 262 185 255 c 0
 237 221 282 190 340 190 c 0
 384 190 420 197 420 230 c 0
 420 259 390 270 370 280 c 0
 332 299 266 328 220 355 c 0
 148 397 50 460 50 590 c 0
 50 738 155 814 275 844 c 1
 275 930 l 2
 275 946 289 960 305 960 c 2
 455 960 l 2
 471 960 485 946 485 930 c 2
 485 854 l 1
 581 838 654 797 675 785 c 0
 689 777 700 767 700 755 c 0
 700 745 697 739 692 730 c 2
 630 615 l 2
 623 602 611 595 600 595 c 0
 593 595 581 597 575 600 c 0
 531 626 484 650 430 650 c 0
 392 650 360 644 360 610 c 0
 360 585 388 572 410 560 c 0
 464 532 482 524 530 500 c 0
 610 460 730 403 730 240 c 0
 730 93 621 19 485 -8 c 1
 485 -90 l 2
 485 -106 471 -120 455 -120 c 2
 305 -120 l 2
 289 -120 275 -106 275 -90 c 2
 275 -16 l 1
 163 -2 91 39 65 55 c 0
 52 63 40 73 40 85 c 0
EndSplineSet
Colour: ffff00
EndChar

StartChar: ampersand
Encoding: 8 38 118
Width: 870
VWidth: 0
Flags: MW
LayerCount: 4
Layer: 2
SplineSet
40 210 m 0
 40 348 133 414 209 452 c 1
 178 490 150 542 150 610 c 0
 150 775 278 860 410 860 c 0
 542 860 660 775 660 610 c 0
 660 521 598 449 529 402 c 1
 619 323 l 1
 657 371 690 420 690 420 c 1
 840 330 l 1
 840 330 798 267 753 206 c 1
 840 130 l 1
 720 -20 l 1
 622 69 l 1
 548 16 452 -20 350 -20 c 0
 194 -20 40 57 40 210 c 0
300 240 m 0
 300 199 334 170 390 170 c 0
 419 170 448 181 478 199 c 1
 350 315 l 1
 324 300 300 277 300 240 c 0
350 610 m 0
 351 566 375 536 400 514 c 1
 437 536 470 572 470 610 c 0
 470 657 450 690 410 690 c 0
 370 690 350 656 350 610 c 0
EndSplineSet
Validated: 1
Layer: 3
SplineSet
40 210 m 0
 40 348 133 414 209 452 c 1
 178 490 150 542 150 610 c 0
 150 775 278 860 410 860 c 0
 542 860 660 775 660 610 c 0
 660 521 598 449 529 402 c 1
 619 323 l 1
 650 361 673 396 673 396 c 1
 678 405 689 410 699 410 c 0
 704 410 710 409 714 406 c 2
 813 347 l 2
 822 342 827 331 827 321 c 0
 827 315 826 310 823 305 c 2
 823 305 792 258 753 207 c 1
 818 150 l 2
 825 144 830 136 830 127 c 0
 830 118 824 111 820 105 c 2
 740 4 l 2
 735 -3 728 -5 720 -5 c 0
 713 -5 701 -2 695 3 c 2
 622 69 l 1
 548 17 452 -20 350 -20 c 0
 194 -20 40 57 40 210 c 0
300 240 m 0
 300 199 334 170 390 170 c 0
 419 170 448 181 479 199 c 1
 350 315 l 1
 324 300 300 277 300 240 c 0
350 610 m 0
 351 566 375 536 400 514 c 1
 437 536 470 572 470 610 c 0
 470 657 450 690 410 690 c 0
 370 690 350 656 350 610 c 0
EndSplineSet
Colour: ffff00
EndChar

StartChar: quotesingle
Encoding: 9 39 119
Width: 320
VWidth: 0
Flags: MW
LayerCount: 4
Layer: 2
SplineSet
40 840 m 1
 280 840 l 1
 230 480 l 1
 90 480 l 1
 40 840 l 1
EndSplineSet
Validated: 1
Layer: 3
SplineSet
44 810 m 1
 44 826 58 840 74 840 c 2
 246 840 l 2
 262 840 276 826 276 810 c 1
 234 510 l 1
 234 494 220 480 204 480 c 2
 116 480 l 2
 100 480 86 494 86 510 c 1
 44 810 l 1
EndSplineSet
Colour: ffff00
EndChar

StartChar: parenleft
Encoding: 10 40 120
Width: 480
VWidth: 0
Flags: MW
LayerCount: 4
Layer: 2
SplineSet
30 360 m 0
 30 625 163 788 340 890 c 1
 460 740 l 1
 366 665 280 545 280 360 c 0
 280 175 366 55 460 -20 c 1
 340 -170 l 1
 163 -68 30 95 30 360 c 0
EndSplineSet
Validated: 1
Layer: 3
SplineSet
30 360 m 0
 30 634 185 800 315 876 c 0
 321 879 327 882 333 882 c 0
 342 882 351 878 357 871 c 2
 442 762 l 2
 446 756 448 750 448 743 c 0
 448 735 444 726 437 720 c 0
 367 664 280 539 280 360 c 0
 280 181 367 56 437 0 c 0
 444 -6 448 -15 448 -23 c 0
 448 -30 446 -36 442 -42 c 2
 357 -151 l 2
 351 -158 342 -162 333 -162 c 0
 327 -162 321 -159 315 -156 c 0
 185 -80 30 86 30 360 c 0
EndSplineSet
Colour: ffff00
EndChar

StartChar: asterisk
Encoding: 12 42 122
Width: 660
VWidth: 0
Flags: MW
LayerCount: 4
Layer: 2
SplineSet
41 554 m 1
 106 754 l 1
 265 660 l 1
 225 840 l 1
 435 840 l 1
 395 660 l 1
 554 754 l 1
 619 554 l 1
 435 536 l 1
 573 414 l 1
 403 290 l 1
 330 460 l 1
 257 290 l 1
 87 414 l 1
 225 536 l 1
 41 554 l 1
EndSplineSet
Validated: 1
Layer: 3
SplineSet
49 570 m 0
 49 574 50 579 51 583 c 2
 97 725 l 2
 100 735 106 743 116 743 c 0
 124 743 129 740 133 738 c 2
 265 660 l 1
 232 810 l 1
 232 810 231 815 231 820 c 0
 231 833 242 840 255 840 c 2
 405 840 l 2
 418 840 429 833 429 820 c 0
 429 815 428 810 428 810 c 1
 395 660 l 1
 527 738 l 2
 531 740 536 743 544 743 c 0
 554 743 560 735 563 725 c 2
 609 583 l 2
 610 579 611 574 611 570 c 0
 611 559 599 554 588 552 c 2
 435 536 l 1
 550 434 l 2
 556 428 560 423 560 415 c 0
 560 405 555 401 549 396 c 2
 427 308 l 2
 422 304 416 302 410 302 c 0
 402 302 395 311 391 319 c 2
 330 460 l 1
 269 319 l 2
 265 311 258 302 250 302 c 0
 244 302 238 304 233 308 c 2
 111 396 l 2
 105 401 100 405 100 415 c 0
 100 423 104 428 110 434 c 2
 225 536 l 1
 72 552 l 2
 61 554 49 559 49 570 c 0
EndSplineSet
Colour: ffff00
EndChar

StartChar: plus
Encoding: 13 43 123
Width: 640
VWidth: 0
Flags: MW
LayerCount: 4
Layer: 2
SplineSet
50 270 m 1
 50 450 l 1
 200 450 l 1
 200 600 l 1
 440 600 l 1
 440 450 l 1
 590 450 l 1
 590 270 l 1
 440 270 l 1
 440 120 l 1
 200 120 l 1
 200 270 l 1
 50 270 l 1
EndSplineSet
Validated: 1
Layer: 3
SplineSet
50 300 m 2
 50 420 l 2
 50 436 64 450 80 450 c 2
 200 450 l 1
 200 570 l 2
 200 586 214 600 230 600 c 2
 410 600 l 2
 426 600 440 586 440 570 c 2
 440 450 l 1
 560 450 l 2
 576 450 590 436 590 420 c 2
 590 300 l 2
 590 284 576 270 560 270 c 2
 440 270 l 1
 440 150 l 2
 440 134 426 120 410 120 c 2
 230 120 l 2
 214 120 200 134 200 150 c 2
 200 270 l 1
 80 270 l 2
 64 270 50 284 50 300 c 2
EndSplineSet
Colour: ffff00
EndChar

StartChar: comma
Encoding: 14 44 124
Width: 360
VWidth: 0
Flags: MW
LayerCount: 4
Layer: 2
SplineSet
40 -110 m 1
 87 -110 143 -86 150 0 c 1
 60 0 l 1
 60 200 l 1
 300 200 l 1
 300 30 l 2
 300 -124 188 -200 60 -200 c 1
 40 -110 l 1
EndSplineSet
Validated: 1
Layer: 3
SplineSet
44 -125 m 0
 44 -114 53 -110 61 -108 c 0
 91 -102 143 -86 150 0 c 1
 90 0 l 2
 74 0 60 14 60 30 c 2
 60 170 l 2
 60 186 74 200 90 200 c 2
 270 200 l 2
 286 200 300 186 300 170 c 2
 300 30 l 2
 300 -124 184 -200 80 -200 c 0
 69 -200 58 -194 55 -180 c 2
 45 -131 l 1
 45 -131 44 -128 44 -125 c 0
EndSplineSet
Colour: ffff00
EndChar

StartChar: hyphen
Encoding: 15 45 125
Width: 640
VWidth: 0
Flags: MW
LayerCount: 4
Layer: 2
SplineSet
50 270 m 1
 50 450 l 1
 590 450 l 1
 590 270 l 1
 50 270 l 1
EndSplineSet
Validated: 1
Layer: 3
SplineSet
50 300 m 2
 50 420 l 2
 50 436 64 450 80 450 c 2
 560 450 l 2
 576 450 590 436 590 420 c 2
 590 300 l 2
 590 284 576 270 560 270 c 2
 80 270 l 2
 64 270 50 284 50 300 c 2
EndSplineSet
Colour: ffff00
EndChar

StartChar: period
Encoding: 16 46 126
Width: 360
VWidth: 0
Flags: MW
LayerCount: 4
Layer: 2
SplineSet
60 0 m 1
 60 200 l 1
 300 200 l 1
 300 0 l 1
 60 0 l 1
EndSplineSet
Validated: 1
Layer: 3
SplineSet
60 30 m 2
 60 170 l 2
 60 186 74 200 90 200 c 2
 270 200 l 2
 286 200 300 186 300 170 c 2
 300 30 l 2
 300 14 286 0 270 0 c 2
 90 0 l 2
 74 0 60 14 60 30 c 2
EndSplineSet
Colour: ffff00
EndChar

StartChar: slash
Encoding: 17 47 127
Width: 600
VWidth: 0
Flags: MW
LayerCount: 4
Layer: 2
SplineSet
30 0 m 1
 360 840 l 1
 570 840 l 1
 240 0 l 1
 30 0 l 1
EndSplineSet
Validated: 1
Layer: 3
SplineSet
37 12 m 0
 37 20 42 30 42 30 c 1
 348 810 l 2
 354 826 369 840 392 840 c 2
 541 840 l 2
 555 840 563 836 563 828 c 0
 563 820 558 810 558 810 c 1
 252 30 l 2
 246 14 231 0 208 0 c 2
 59 0 l 2
 45 0 37 4 37 12 c 0
EndSplineSet
Colour: ffff00
EndChar

StartChar: zero
Encoding: 18 48 128
Width: 860
VWidth: 0
Flags: MW
LayerCount: 4
Layer: 2
SplineSet
30 420 m 0
 30 658 180 860 430 860 c 0
 680 860 830 658 830 420 c 0
 830 182 680 -20 430 -20 c 0
 180 -20 30 182 30 420 c 0
320 420 m 0
 320 298 358 220 430 220 c 0
 502 220 540 298 540 420 c 0
 540 542 502 620 430 620 c 0
 358 620 320 542 320 420 c 0
EndSplineSet
Validated: 1
Layer: 3
SplineSet
30 420 m 0
 30 658 180 860 430 860 c 0
 680 860 830 658 830 420 c 0
 830 182 680 -20 430 -20 c 0
 180 -20 30 182 30 420 c 0
320 420 m 0
 320 298 358 220 430 220 c 0
 502 220 540 298 540 420 c 0
 540 542 502 620 430 620 c 0
 358 620 320 542 320 420 c 0
EndSplineSet
Colour: ffff00
EndChar

StartChar: one
Encoding: 19 49 129
Width: 600
VWidth: 0
Flags: MW
LayerCount: 4
Layer: 2
SplineSet
10 690 m 1
 280 840 l 1
 520 840 l 1
 520 0 l 1
 240 0 l 1
 240 600 l 1
 100 510 l 1
 10 690 l 1
EndSplineSet
Validated: 1
Layer: 3
SplineSet
20 675 m 0
 20 691 31 703 45 710 c 2
 210 800 l 1
 258 828 277 840 310 840 c 2
 480 840 l 2
 502 840 520 822 520 800 c 2
 520 40 l 2
 520 18 502 0 480 0 c 2
 280 0 l 2
 258 0 240 18 240 40 c 2
 240 600 l 1
 150 538 l 1
 150 538 125 520 110 520 c 0
 100 520 91 529 85 540 c 2
 28 655 l 2
 25 661 20 669 20 675 c 0
EndSplineSet
Colour: ffff00
EndChar

StartChar: two
Encoding: 20 50 130
Width: 800
VWidth: 0
Flags: MW
LayerCount: 4
Layer: 2
SplineSet
50 710 m 1
 93 766 217 860 390 860 c 0
 611 860 730 726 730 600 c 0
 730 485 669 434 610 370 c 1
 440 210 l 1
 750 210 l 1
 750 0 l 1
 60 0 l 1
 60 200 l 1
 350 450 l 2
 388 482 450 521 450 570 c 0
 450 614 415 640 349 640 c 0
 272 640 209 590 180 560 c 1
 50 710 l 1
EndSplineSet
Validated: 1
Layer: 3
SplineSet
60 40 m 2
 60 160 l 2
 60 197 79 217 100 235 c 2
 350 450 l 2
 388 482 450 521 450 570 c 0
 450 614 415 640 349 640 c 0
 279 640 228 598 205 582 c 0
 198 577 188 575 180 575 c 0
 165 575 153 584 145 595 c 2
 72 690 l 2
 67 697 65 703 65 715 c 0
 65 727 74 742 85 750 c 0
 136 791 232 860 390 860 c 0
 611 860 730 726 730 600 c 0
 730 485 669 434 610 370 c 1
 440 210 l 1
 720 210 l 2
 742 210 760 192 760 170 c 2
 760 40 l 2
 760 18 742 0 720 0 c 2
 100 0 l 2
 78 0 60 18 60 40 c 2
EndSplineSet
Colour: ffff00
EndChar

StartChar: three
Encoding: 21 51 131
Width: 770
VWidth: 0
Flags: MW
LayerCount: 4
Layer: 2
SplineSet
20 90 m 1
 150 260 l 1
 179 231 258 190 350 190 c 0
 425 190 450 220 450 260 c 0
 450 300 415 330 350 330 c 2
 220 330 l 1
 220 510 l 1
 350 510 l 2
 408 510 430 548 430 590 c 0
 430 632 389 660 340 660 c 0
 263 660 199 620 170 590 c 1
 40 720 l 1
 83 776 197 860 370 860 c 0
 591 860 710 735 710 600 c 0
 710 531 681 471 623 427 c 1
 699 385 740 317 740 230 c 0
 740 73 587 -20 370 -20 c 0
 199 -20 104 20 20 90 c 1
EndSplineSet
Validated: 1
Layer: 3
SplineSet
30 90 m 0
 30 102 32 108 37 115 c 2
 120 225 l 2
 128 236 140 245 155 245 c 0
 163 245 173 243 180 238 c 0
 203 223 265 190 350 190 c 0
 425 190 450 220 450 260 c 0
 450 300 415 330 350 330 c 2
 260 330 l 2
 238 330 220 348 220 370 c 2
 220 470 l 2
 220 492 238 510 260 510 c 2
 350 510 l 2
 408 510 430 548 430 590 c 0
 430 632 389 660 340 660 c 0
 270 660 213 623 190 607 c 0
 183 602 178 600 170 600 c 0
 155 600 144 610 135 620 c 2
 65 695 l 2
 59 701 55 708 55 720 c 0
 55 732 64 747 75 755 c 0
 126 796 214 860 370 860 c 0
 591 860 710 735 710 600 c 0
 710 531 681 471 623 427 c 1
 699 385 740 317 740 230 c 0
 740 73 587 -20 370 -20 c 0
 191 -20 113 25 55 60 c 0
 39 69 30 78 30 90 c 0
EndSplineSet
Colour: ffff00
EndChar

StartChar: four
Encoding: 22 52 132
Width: 800
VWidth: 0
Flags: MW
LayerCount: 4
Layer: 2
SplineSet
30 120 m 1
 30 300 l 1
 420 840 l 1
 690 840 l 1
 690 300 l 1
 780 300 l 1
 780 120 l 1
 690 120 l 1
 690 0 l 1
 410 0 l 1
 410 120 l 1
 30 120 l 1
240 300 m 1
 410 300 l 1
 410 540 l 1
 240 300 l 1
EndSplineSet
Validated: 1
Layer: 3
SplineSet
30 160 m 2
 30 285 l 2
 30 307 53 333 70 355 c 1
 390 800 l 2
 407 823 422 840 455 840 c 2
 650 840 l 2
 672 840 690 822 690 800 c 2
 690 300 l 1
 740 300 l 2
 762 300 780 282 780 260 c 2
 780 160 l 2
 780 138 762 120 740 120 c 2
 690 120 l 1
 690 40 l 2
 690 18 672 0 650 0 c 2
 450 0 l 2
 428 0 410 18 410 40 c 2
 410 120 l 1
 70 120 l 2
 48 120 30 138 30 160 c 2
240 300 m 1
 410 300 l 1
 410 540 l 1
 240 300 l 1
EndSplineSet
Colour: ffff00
EndChar

StartChar: five
Encoding: 23 53 133
Width: 780
VWidth: 0
Flags: MW
LayerCount: 4
Layer: 2
SplineSet
30 90 m 1
 160 260 l 1
 189 231 267 190 359 190 c 0
 434 190 460 220 460 260 c 0
 460 300 425 330 360 330 c 0
 287 330 250 300 250 300 c 1
 60 360 l 1
 110 840 l 1
 690 840 l 1
 690 630 l 1
 325 630 l 1
 312 506 l 1
 348 526 396 540 460 540 c 0
 629 540 750 438 750 290 c 0
 750 78 597 -20 380 -20 c 0
 209 -20 114 20 30 90 c 1
EndSplineSet
Validated: 1
Layer: 3
SplineSet
40 90 m 0
 40 102 42 108 47 115 c 2
 130 225 l 2
 138 236 150 245 165 245 c 0
 173 245 183 243 190 238 c 0
 213 223 274 190 359 190 c 0
 434 190 460 220 460 260 c 0
 460 300 425 330 360 330 c 0
 330 330 308 323 295 317 c 0
 284 312 267 300 250 300 c 0
 233 300 203 312 203 312 c 1
 100 348 l 2
 78 355 65 368 65 392 c 0
 65 406 71 445 71 445 c 1
 107 805 l 2
 109 820 123 840 150 840 c 2
 650 840 l 2
 672 840 690 822 690 800 c 2
 690 670 l 2
 690 648 672 630 650 630 c 2
 325 630 l 1
 312 506 l 1
 348 526 396 540 460 540 c 0
 629 540 750 438 750 290 c 0
 750 78 597 -20 380 -20 c 0
 201 -20 123 25 65 60 c 0
 49 69 40 78 40 90 c 0
EndSplineSet
Colour: ffff00
EndChar

StartChar: six
Encoding: 24 54 134
Width: 810
VWidth: 0
Flags: MW
LayerCount: 4
Layer: 2
SplineSet
40 280 m 2
 40 500 l 2
 40 719 179 860 420 860 c 0
 561 860 660 815 720 760 c 1
 620 600 l 1
 594 622 524 660 450 660 c 0
 381 660 310 619 310 540 c 2
 310 486 l 1
 356 523 421 550 510 550 c 0
 644 550 780 471 780 300 c 0
 780 91 627 -20 410 -20 c 0
 193 -20 40 109 40 280 c 2
320 280 m 0
 320 232 357 190 410 190 c 0
 463 190 500 232 500 280 c 0
 500 328 463 370 410 370 c 0
 350 370 320 328 320 280 c 0
EndSplineSet
Validated: 1
Layer: 3
SplineSet
40 280 m 2
 40 500 l 2
 40 719 179 860 420 860 c 0
 561 860 640 818 690 785 c 0
 701 778 710 765 710 755 c 0
 710 743 707 737 703 730 c 2
 645 635 l 2
 638 623 625 615 610 615 c 0
 602 615 592 617 585 622 c 0
 562 637 508 660 450 660 c 0
 381 660 310 619 310 540 c 2
 310 486 l 1
 356 523 421 550 510 550 c 0
 644 550 780 471 780 300 c 0
 780 91 627 -20 410 -20 c 0
 193 -20 40 109 40 280 c 2
320 280 m 0
 320 232 357 190 410 190 c 0
 463 190 500 232 500 280 c 0
 500 328 463 370 410 370 c 0
 350 370 320 328 320 280 c 0
EndSplineSet
EndChar

StartChar: seven
Encoding: 25 55 135
Width: 720
VWidth: 0
Flags: MW
LayerCount: 4
Layer: 2
SplineSet
40 630 m 1
 40 840 l 1
 690 840 l 1
 690 660 l 1
 410 0 l 1
 110 0 l 1
 390 630 l 1
 40 630 l 1
EndSplineSet
Validated: 1
Layer: 3
SplineSet
40 670 m 2
 40 800 l 2
 40 822 58 840 80 840 c 2
 650 840 l 2
 672 840 690 822 690 800 c 2
 690 670 l 2
 690 647 667 602 650 565 c 1
 427 40 l 1
 419 14 406 0 377 0 c 2
 164 0 l 2
 139 0 124 10 124 25 c 0
 124 29 126 35 129 40 c 2
 390 630 l 1
 80 630 l 2
 58 630 40 648 40 670 c 2
EndSplineSet
Colour: ffff00
EndChar

StartChar: eight
Encoding: 26 56 136
Width: 800
VWidth: 0
Flags: MW
LayerCount: 4
Layer: 2
SplineSet
30 220 m 0
 30 319 82 392 180 433 c 1
 100 474 60 540 60 620 c 0
 60 755 195 860 400 860 c 0
 605 860 740 755 740 620 c 0
 740 540 700 474 620 433 c 1
 718 392 770 319 770 220 c 0
 770 63 617 -20 400 -20 c 0
 183 -20 30 63 30 220 c 0
310 250 m 0
 310 200 347 160 400 160 c 0
 453 160 490 200 490 250 c 0
 490 300 465 350 400 350 c 0
 335 350 310 300 310 250 c 0
330 600 m 0
 330 546 356 510 400 510 c 0
 444 510 470 546 470 600 c 0
 470 654 441 690 400 690 c 0
 359 690 330 654 330 600 c 0
EndSplineSet
Validated: 1
Layer: 3
SplineSet
30 220 m 0
 30 319 82 392 180 433 c 1
 100 474 60 540 60 620 c 0
 60 755 195 860 400 860 c 0
 605 860 740 755 740 620 c 0
 740 540 700 474 620 433 c 1
 718 392 770 319 770 220 c 0
 770 63 617 -20 400 -20 c 0
 183 -20 30 63 30 220 c 0
310 250 m 0
 310 200 347 160 400 160 c 0
 453 160 490 200 490 250 c 0
 490 300 465 350 400 350 c 0
 335 350 310 300 310 250 c 0
330 600 m 0
 330 546 356 510 400 510 c 0
 444 510 470 546 470 600 c 0
 470 654 441 690 400 690 c 0
 359 690 330 654 330 600 c 0
EndSplineSet
Colour: ffff00
EndChar

StartChar: less
Encoding: 30 60 140
Width: 570
VWidth: 0
Flags: MW
LayerCount: 4
Layer: 2
SplineSet
45 245 m 1
 45 360 l 1
 45 475 l 1
 525 690 l 1
 525 480 l 1
 225 360 l 1
 525 240 l 1
 525 30 l 1
 45 245 l 1
EndSplineSet
Validated: 1
Layer: 3
SplineSet
45 263 m 2
 45 360 l 1
 45 457 l 2
 45 473 61 481 75 487 c 2
 495 677 l 1
 495 677 505 682 513 682 c 0
 521 682 525 674 525 660 c 2
 525 514 l 2
 525 491 511 476 495 470 c 2
 225 360 l 1
 495 250 l 2
 511 244 525 229 525 206 c 2
 525 60 l 2
 525 46 521 38 513 38 c 0
 505 38 495 43 495 43 c 1
 75 233 l 2
 61 239 45 247 45 263 c 2
EndSplineSet
EndChar

StartChar: equal
Encoding: 31 61 141
Width: 640
VWidth: 0
Flags: MW
LayerCount: 4
Layer: 2
SplineSet
50 120 m 1
 50 300 l 1
 590 300 l 1
 590 120 l 1
 50 120 l 1
50 420 m 1
 50 600 l 1
 590 600 l 1
 590 420 l 1
 50 420 l 1
EndSplineSet
Validated: 1
Layer: 3
SplineSet
50 150 m 2
 50 270 l 2
 50 286 64 300 80 300 c 2
 560 300 l 2
 576 300 590 286 590 270 c 2
 590 150 l 2
 590 134 576 120 560 120 c 2
 80 120 l 2
 64 120 50 134 50 150 c 2
50 450 m 2
 50 570 l 2
 50 586 64 600 80 600 c 2
 560 600 l 2
 576 600 590 586 590 570 c 2
 590 450 l 2
 590 434 576 420 560 420 c 2
 80 420 l 2
 64 420 50 434 50 450 c 2
EndSplineSet
Colour: ffff00
EndChar

StartChar: greater
Encoding: 32 62 142
Width: 570
VWidth: 0
Flags: MW
LayerCount: 4
Layer: 2
SplineSet
525 475 m 1
 525 360 l 1
 525 245 l 1
 45 30 l 1
 45 240 l 1
 345 360 l 1
 45 480 l 1
 45 690 l 1
 525 475 l 1
EndSplineSet
Validated: 1
Layer: 3
SplineSet
525 457 m 2
 525 360 l 1
 525 263 l 2
 525 247 509 239 495 233 c 2
 75 43 l 1
 75 43 65 38 57 38 c 0
 49 38 45 46 45 60 c 2
 45 206 l 2
 45 229 59 244 75 250 c 2
 345 360 l 1
 75 470 l 2
 59 476 45 491 45 514 c 2
 45 660 l 2
 45 674 49 682 57 682 c 0
 65 682 75 677 75 677 c 1
 495 487 l 2
 509 481 525 473 525 457 c 2
EndSplineSet
EndChar

StartChar: question
Encoding: 33 63 143
Width: 690
VWidth: 0
Flags: MW
LayerCount: 4
Layer: 2
SplineSet
10 730 m 1
 87 798 195 860 340 860 c 0
 519 860 650 752 650 600 c 0
 650 449 495 375 465 362 c 1
 460 270 l 1
 240 270 l 1
 230 450 l 1
 320 474 380 516 380 560 c 0
 380 595 354 620 310 620 c 0
 256 620 199 586 140 540 c 1
 10 730 l 1
230 0 m 1
 230 200 l 1
 470 200 l 1
 470 0 l 1
 230 0 l 1
EndSplineSet
Validated: 1
Layer: 3
SplineSet
22 725 m 0
 22 738 30 746 40 755 c 0
 90 798 199 860 340 860 c 0
 519 860 650 752 650 600 c 0
 650 448 495 375 465 362 c 1
 462 310 l 1
 462 288 444 270 422 270 c 2
 278 270 l 2
 256 270 238 288 238 310 c 1
 231 435 l 2
 231 447 241 453 255 457 c 0
 322 476 380 516 380 560 c 0
 380 595 354 620 310 620 c 0
 263 620 208 591 173 564 c 0
 166 559 158 555 150 555 c 0
 137 555 126 562 118 573 c 2
 30 700 l 2
 25 707 22 717 22 725 c 0
230 30 m 2
 230 170 l 2
 230 186 244 200 260 200 c 2
 440 200 l 2
 456 200 470 186 470 170 c 2
 470 30 l 2
 470 14 456 0 440 0 c 2
 260 0 l 2
 244 0 230 14 230 30 c 2
EndSplineSet
Colour: ffff00
EndChar

StartChar: at
Encoding: 34 64 144
Width: 1100
VWidth: 0
Flags: MW
LayerCount: 4
Layer: 2
SplineSet
30 340 m 0
 30 622 253 860 550 860 c 0
 847 860 1070 622 1070 340 c 0
 1070 218 1007 92 814 92 c 0
 739 92 668 124 631 187 c 1
 603 135 557 92 482 92 c 0
 340 92 250 203 250 340 c 0
 250 477 340 588 482 588 c 0
 541 588 582 562 610 525 c 1
 610 580 l 1
 808 580 l 1
 808 300 l 2
 808 237 838 200 890 200 c 0
 943 200 980 249 980 340 c 0
 980 572 797 780 550 780 c 0
 303 780 120 572 120 340 c 0
 120 108 303 -100 550 -100 c 0
 638 -100 704 -87 755 -65 c 1
 780 -135 l 1
 718 -161 656 -180 550 -180 c 0
 253 -180 30 58 30 340 c 0
474 340 m 0
 474 276 508 244 546 244 c 0
 577 244 594 259 602 283 c 1
 602 289 602 294 602 300 c 2
 602 398 l 1
 593 421 577 436 546 436 c 0
 508 436 474 404 474 340 c 0
EndSplineSet
Validated: 1
Layer: 3
SplineSet
30 340 m 0
 30 622 253 860 550 860 c 0
 847 860 1070 622 1070 340 c 0
 1070 218 1007 92 814 92 c 0
 739 92 668 124 631 187 c 1
 603 135 557 92 482 92 c 0
 340 92 250 203 250 340 c 0
 250 477 340 588 482 588 c 0
 541 588 582 562 610 525 c 1
 610 550 l 2
 610 566 624 580 640 580 c 2
 778 580 l 2
 794 580 808 566 808 550 c 2
 808 300 l 2
 808 237 838 200 890 200 c 0
 943 200 980 249 980 340 c 0
 980 572 797 780 550 780 c 0
 303 780 120 572 120 340 c 0
 120 108 303 -100 550 -100 c 0
 638 -100 686 -89 730 -75 c 0
 735 -74 739 -72 745 -72 c 0
 755 -72 760 -79 764 -90 c 2
 772 -112 l 2
 773 -115 775 -120 775 -125 c 0
 775 -137 768 -142 757 -145 c 0
 719 -157 665 -180 550 -180 c 0
 253 -180 30 58 30 340 c 0
474 340 m 0
 474 276 508 244 546 244 c 0
 577 244 594 259 602 283 c 1
 602 289 602 294 602 300 c 2
 602 398 l 1
 593 421 577 436 546 436 c 0
 508 436 474 404 474 340 c 0
EndSplineSet
Colour: ffff00
EndChar

StartChar: A
Encoding: 35 65 145
Width: 980
VWidth: 0
Flags: MW
LayerCount: 4
Layer: 2
SplineSet
10 0 m 1
 330 840 l 1
 650 840 l 1
 970 0 l 1
 670 0 l 1
 632 120 l 1
 348 120 l 1
 310 0 l 1
 10 0 l 1
404 300 m 1
 576 300 l 1
 500 540 l 1
 495 570 l 1
 485 570 l 1
 480 540 l 1
 404 300 l 1
EndSplineSet
Validated: 1
Layer: 3
SplineSet
20 25 m 0
 20 29 22 35 25 40 c 1
 315 800 l 1
 318 813 335 840 360 840 c 2
 490 840 l 1
 620 840 l 2
 645 840 662 813 665 800 c 1
 955 40 l 1
 958 35 960 29 960 25 c 0
 960 10 945 0 920 0 c 2
 705 0 l 2
 676 0 663 14 655 40 c 2
 630 120 l 1
 350 120 l 1
 325 40 l 2
 317 14 304 0 275 0 c 2
 60 0 l 2
 35 0 20 10 20 25 c 0
406 300 m 1
 574 300 l 1
 500 540 l 1
 495 570 l 1
 490 570 l 1
 485 570 l 1
 480 540 l 1
 406 300 l 1
EndSplineSet
Colour: ffff00
EndChar

StartChar: B
Encoding: 36 66 146
Width: 880
VWidth: 0
Flags: MW
LayerCount: 4
Layer: 2
SplineSet
60 0 m 1
 60 840 l 1
 480 840 l 2
 704 840 810 745 810 610 c 0
 810 533 774 472 697 434 c 1
 800 394 850 322 850 220 c 0
 850 56 690 0 540 0 c 2
 60 0 l 1
340 180 m 1
 450 180 l 2
 502 180 550 214 550 260 c 0
 550 306 520 350 450 350 c 2
 340 350 l 1
 340 180 l 1
340 500 m 1
 450 500 l 2
 494 500 520 542 520 580 c 0
 520 618 488 660 440 660 c 2
 340 660 l 1
 340 500 l 1
EndSplineSet
Validated: 1
Layer: 3
SplineSet
60 40 m 2
 60 800 l 2
 60 822 78 840 100 840 c 2
 480 840 l 2
 704 840 810 745 810 610 c 0
 810 533 774 472 697 434 c 1
 800 394 850 322 850 220 c 0
 850 56 690 0 540 0 c 2
 100 0 l 2
 78 0 60 18 60 40 c 2
340 180 m 1
 450 180 l 2
 502 180 550 214 550 260 c 0
 550 306 520 350 450 350 c 2
 340 350 l 1
 340 180 l 1
340 500 m 1
 450 500 l 2
 494 500 520 542 520 580 c 0
 520 618 488 660 440 660 c 2
 340 660 l 1
 340 500 l 1
EndSplineSet
Colour: ffff00
EndChar

StartChar: C
Encoding: 37 67 147
Width: 840
VWidth: 0
Flags: MW
LayerCount: 4
Layer: 2
SplineSet
30 420 m 0
 30 658 202 860 500 860 c 0
 699 860 820 760 820 760 c 1
 710 560 l 1
 710 560 643 620 540 620 c 0
 413 620 335 542 335 420 c 0
 335 298 413 220 540 220 c 0
 643 220 710 280 710 280 c 1
 820 80 l 1
 820 80 699 -20 500 -20 c 0
 202 -20 30 182 30 420 c 0
EndSplineSet
Validated: 1
Layer: 3
SplineSet
30 420 m 0
 30 658 202 860 500 860 c 0
 665 860 773 792 785 785 c 0
 800 776 810 767 810 755 c 0
 810 745 807 739 802 730 c 2
 730 600 l 2
 723 587 711 580 700 580 c 0
 693 580 681 582 675 585 c 0
 664 589 618 620 540 620 c 0
 413 620 335 542 335 420 c 0
 335 298 413 220 540 220 c 0
 618 220 664 251 675 255 c 0
 681 258 693 260 700 260 c 0
 711 260 723 253 730 240 c 2
 802 110 l 2
 807 101 810 95 810 85 c 0
 810 73 800 64 785 55 c 0
 773 48 665 -20 500 -20 c 0
 202 -20 30 182 30 420 c 0
EndSplineSet
Colour: ffff00
EndChar

StartChar: D
Encoding: 38 68 148
Width: 900
VWidth: 0
Flags: MW
LayerCount: 4
Layer: 2
SplineSet
60 0 m 1
 60 840 l 1
 400 840 l 2
 708 840 870 658 870 420 c 0
 870 182 708 0 400 0 c 2
 60 0 l 1
340 210 m 1
 390 210 l 2
 508 210 580 301 580 420 c 0
 580 539 508 630 390 630 c 2
 340 630 l 1
 340 210 l 1
EndSplineSet
Validated: 1
Layer: 3
SplineSet
60 40 m 2
 60 800 l 2
 60 822 78 840 100 840 c 2
 400 840 l 2
 708 840 870 658 870 420 c 0
 870 182 708 0 400 0 c 2
 100 0 l 2
 78 0 60 18 60 40 c 2
340 210 m 1
 390 210 l 2
 508 210 580 301 580 420 c 0
 580 539 508 630 390 630 c 2
 340 630 l 1
 340 210 l 1
EndSplineSet
Colour: ffff00
EndChar

StartChar: E
Encoding: 39 69 149
Width: 790
VWidth: 0
Flags: MW
LayerCount: 4
Layer: 2
SplineSet
60 0 m 1
 60 840 l 1
 740 840 l 1
 740 630 l 1
 340 630 l 1
 340 510 l 1
 700 510 l 1
 700 310 l 1
 340 310 l 1
 340 210 l 1
 750 210 l 1
 750 0 l 1
 60 0 l 1
EndSplineSet
Validated: 1
Layer: 3
SplineSet
60 40 m 2
 60 800 l 2
 60 822 78 840 100 840 c 2
 700 840 l 2
 722 840 740 822 740 800 c 2
 740 670 l 2
 740 648 722 630 700 630 c 2
 340 630 l 1
 340 510 l 1
 660 510 l 2
 682 510 700 492 700 470 c 2
 700 350 l 2
 700 328 682 310 660 310 c 2
 340 310 l 1
 340 210 l 1
 710 210 l 2
 732 210 750 192 750 170 c 2
 750 40 l 2
 750 18 732 0 710 0 c 2
 100 0 l 2
 78 0 60 18 60 40 c 2
EndSplineSet
Colour: ffff00
EndChar

StartChar: F
Encoding: 40 70 150
Width: 740
VWidth: 0
Flags: MW
LayerCount: 4
Layer: 2
SplineSet
60 0 m 1
 60 840 l 1
 720 840 l 1
 720 630 l 1
 350 630 l 1
 350 470 l 1
 680 470 l 1
 680 270 l 1
 350 270 l 1
 350 0 l 1
 60 0 l 1
EndSplineSet
Validated: 1
Layer: 3
SplineSet
60 40 m 2
 60 800 l 2
 60 822 78 840 100 840 c 2
 680 840 l 2
 702 840 720 822 720 800 c 2
 720 670 l 2
 720 648 702 630 680 630 c 2
 350 630 l 1
 350 470 l 1
 640 470 l 2
 662 470 680 452 680 430 c 2
 680 310 l 2
 680 288 662 270 640 270 c 2
 350 270 l 1
 350 40 l 2
 350 18 332 0 310 0 c 2
 100 0 l 2
 78 0 60 18 60 40 c 2
EndSplineSet
Colour: ffff00
EndChar

StartChar: G
Encoding: 41 71 151
Width: 920
VWidth: 0
Flags: MW
LayerCount: 4
Layer: 2
SplineSet
30 420 m 0
 30 658 202 860 500 860 c 0
 720 860 840 760 840 760 c 1
 730 560 l 1
 730 560 661 620 540 620 c 0
 413 620 330 542 330 420 c 0
 330 273 413 190 540 190 c 0
 570 190 597 195 620 202 c 1
 620 290 l 1
 480 290 l 1
 480 470 l 1
 820 470 l 2
 865 470 880 457 880 410 c 2
 880 130 l 1
 848 73 711 -20 500 -20 c 0
 202 -20 30 182 30 420 c 0
EndSplineSet
Validated: 1
Layer: 3
SplineSet
30 420 m 0
 30 658 202 860 500 860 c 0
 685 860 794 792 805 785 c 0
 820 776 830 767 830 755 c 0
 830 745 827 739 822 730 c 2
 750 600 l 2
 743 587 731 580 720 580 c 0
 713 580 701 582 695 585 c 0
 687 589 632 620 540 620 c 0
 413 620 330 542 330 420 c 0
 330 273 413 190 540 190 c 0
 570 190 597 195 620 202 c 1
 620 290 l 1
 520 290 l 2
 498 290 480 308 480 330 c 2
 480 430 l 2
 480 452 498 470 520 470 c 2
 820 470 l 2
 865 470 880 457 880 410 c 2
 880 150 l 2
 880 82 711 -20 500 -20 c 0
 202 -20 30 182 30 420 c 0
EndSplineSet
Colour: ffff00
EndChar

StartChar: H
Encoding: 42 72 152
Width: 920
VWidth: 0
Flags: MW
LayerCount: 4
Layer: 2
SplineSet
60 0 m 1
 60 840 l 1
 340 840 l 1
 340 510 l 1
 580 510 l 1
 580 840 l 1
 860 840 l 1
 860 0 l 1
 580 0 l 1
 580 290 l 1
 340 290 l 1
 340 0 l 1
 60 0 l 1
EndSplineSet
Validated: 1
Layer: 3
SplineSet
60 40 m 2
 60 800 l 2
 60 822 78 840 100 840 c 2
 300 840 l 2
 322 840 340 822 340 800 c 2
 340 510 l 1
 580 510 l 1
 580 800 l 2
 580 822 598 840 620 840 c 2
 820 840 l 2
 842 840 860 822 860 800 c 2
 860 40 l 2
 860 18 842 0 820 0 c 2
 620 0 l 2
 598 0 580 18 580 40 c 2
 580 290 l 1
 340 290 l 1
 340 40 l 2
 340 18 322 0 300 0 c 2
 100 0 l 2
 78 0 60 18 60 40 c 2
EndSplineSet
Colour: ffff00
EndChar

StartChar: I
Encoding: 43 73 153
Width: 400
VWidth: 0
Flags: MW
LayerCount: 4
Layer: 2
SplineSet
60 0 m 1
 60 840 l 1
 340 840 l 1
 340 0 l 1
 60 0 l 1
EndSplineSet
Validated: 1
Layer: 3
SplineSet
60 40 m 2
 60 800 l 2
 60 822 78 840 100 840 c 2
 300 840 l 2
 322 840 340 822 340 800 c 2
 340 40 l 2
 340 18 322 0 300 0 c 2
 100 0 l 2
 78 0 60 18 60 40 c 2
EndSplineSet
Colour: ffff00
EndChar

StartChar: J
Encoding: 44 74 154
Width: 580
VWidth: 0
Flags: MW
LayerCount: 4
Layer: 2
SplineSet
-10 80 m 1
 100 240 l 1
 120 222 156 200 190 200 c 0
 215 200 240 213 240 260 c 2
 240 840 l 1
 520 840 l 1
 520 240 l 2
 520 67 389 -10 250 -10 c 0
 111 -10 13 53 -10 80 c 1
EndSplineSet
Validated: 1
Layer: 3
SplineSet
0 85 m 0
 0 91 2 97 5 102 c 2
 82 214 l 2
 87 222 97 226 106 226 c 0
 113 226 119 225 125 221 c 0
 144 210 168 200 190 200 c 0
 215 200 240 213 240 260 c 2
 240 800 l 2
 240 822 258 840 280 840 c 2
 480 840 l 2
 502 840 520 822 520 800 c 2
 520 240 l 2
 520 67 389 -10 250 -10 c 0
 140 -10 55 30 13 60 c 0
 4 66 0 75 0 85 c 0
EndSplineSet
Colour: ffff00
EndChar

StartChar: K
Encoding: 45 75 155
Width: 890
VWidth: 0
Flags: MW
LayerCount: 4
Layer: 2
SplineSet
60 0 m 1
 60 840 l 1
 340 840 l 1
 340 530 l 1
 380 530 l 1
 550 840 l 1
 860 840 l 1
 610 440 l 1
 890 0 l 1
 570 0 l 1
 380 320 l 1
 340 320 l 1
 340 0 l 1
 60 0 l 1
EndSplineSet
Validated: 1
Layer: 3
SplineSet
60 40 m 2
 60 800 l 2
 60 822 78 840 100 840 c 2
 300 840 l 2
 322 840 340 822 340 800 c 2
 340 530 l 1
 380 530 l 1
 530 800 l 2
 546 827 556 840 585 840 c 2
 800 840 l 2
 825 840 840 830 840 815 c 0
 840 811 838 805 835 800 c 2
 610 440 l 1
 865 40 l 2
 868 35 870 29 870 25 c 0
 870 10 855 0 830 0 c 2
 600 0 l 2
 571 0 561 13 545 40 c 2
 380 320 l 1
 340 320 l 1
 340 40 l 2
 340 18 322 0 300 0 c 2
 100 0 l 2
 78 0 60 18 60 40 c 2
EndSplineSet
Colour: ffff00
EndChar

StartChar: L
Encoding: 46 76 156
Width: 660
VWidth: 0
Flags: MW
LayerCount: 4
Layer: 2
SplineSet
60 0 m 1
 60 840 l 1
 340 840 l 1
 340 210 l 1
 640 210 l 1
 640 0 l 1
 60 0 l 1
EndSplineSet
Validated: 1
Layer: 3
SplineSet
60 40 m 2
 60 800 l 2
 60 822 78 840 100 840 c 2
 300 840 l 2
 322 840 340 822 340 800 c 2
 340 210 l 1
 600 210 l 2
 622 210 640 192 640 170 c 2
 640 40 l 2
 640 18 622 0 600 0 c 2
 100 0 l 2
 78 0 60 18 60 40 c 2
EndSplineSet
Colour: ffff00
EndChar

StartChar: M
Encoding: 47 77 157
Width: 1080
VWidth: 0
Flags: MW
LayerCount: 4
Layer: 2
SplineSet
60 0 m 1
 60 840 l 1
 370 840 l 1
 540 510 l 1
 710 840 l 1
 1020 840 l 1
 1020 0 l 1
 740 0 l 1
 740 460 l 1
 590 180 l 1
 490 180 l 1
 340 460 l 1
 340 0 l 1
 60 0 l 1
EndSplineSet
Validated: 1
Layer: 3
SplineSet
60 40 m 2
 60 800 l 2
 60 822 78 840 100 840 c 2
 335 840 l 2
 361 840 375 824 390 800 c 1
 540 510 l 1
 690 800 l 1
 705 824 719 840 745 840 c 2
 980 840 l 2
 1002 840 1020 822 1020 800 c 2
 1020 40 l 2
 1020 18 1002 0 980 0 c 2
 780 0 l 2
 758 0 740 18 740 40 c 2
 740 460 l 1
 610 220 l 1
 599 197 587 180 570 180 c 2
 540 180 l 1
 510 180 l 2
 493 180 481 197 470 220 c 1
 340 460 l 1
 340 40 l 2
 340 18 322 0 300 0 c 2
 100 0 l 2
 78 0 60 18 60 40 c 2
EndSplineSet
Colour: ffff00
EndChar

StartChar: N
Encoding: 48 78 158
Width: 920
VWidth: 0
Flags: MW
LayerCount: 4
Layer: 2
SplineSet
60 0 m 1
 60 840 l 1
 340 840 l 1
 580 420 l 1
 580 840 l 1
 860 840 l 1
 860 0 l 1
 580 0 l 1
 340 390 l 1
 340 0 l 1
 60 0 l 1
EndSplineSet
Validated: 1
Layer: 3
SplineSet
60 40 m 2
 60 800 l 2
 60 822 78 840 100 840 c 2
 310 840 l 2
 336 840 350 824 365 800 c 1
 580 420 l 1
 580 800 l 2
 580 822 598 840 620 840 c 2
 820 840 l 2
 842 840 860 822 860 800 c 2
 860 40 l 2
 860 18 842 0 820 0 c 2
 610 0 l 2
 584 0 570 16 555 40 c 2
 340 390 l 1
 340 40 l 2
 340 18 322 0 300 0 c 2
 100 0 l 2
 78 0 60 18 60 40 c 2
EndSplineSet
Colour: ffff00
EndChar

StartChar: O
Encoding: 49 79 159
Width: 1000
VWidth: 0
Flags: MW
LayerCount: 4
Layer: 2
SplineSet
30 420 m 0
 30 658 202 860 500 860 c 0
 798 860 970 658 970 420 c 0
 970 182 798 -20 500 -20 c 0
 202 -20 30 182 30 420 c 0
325 420 m 0
 325 298 400 220 500 220 c 0
 600 220 675 298 675 420 c 0
 675 542 600 620 500 620 c 0
 400 620 325 542 325 420 c 0
EndSplineSet
Validated: 1
Layer: 3
SplineSet
30 420 m 0
 30 658 202 860 500 860 c 0
 798 860 970 658 970 420 c 0
 970 182 798 -20 500 -20 c 0
 202 -20 30 182 30 420 c 0
325 420 m 0
 325 298 400 220 500 220 c 0
 600 220 675 298 675 420 c 0
 675 542 600 620 500 620 c 0
 400 620 325 542 325 420 c 0
EndSplineSet
Colour: ffff00
EndChar

StartChar: P
Encoding: 50 80 160
Width: 870
VWidth: 0
Flags: MW
LayerCount: 4
Layer: 2
SplineSet
60 0 m 1
 60 840 l 1
 500 840 l 2
 723 840 850 704 850 540 c 0
 850 376 731 240 500 240 c 2
 340 240 l 1
 340 0 l 1
 60 0 l 1
340 440 m 1
 450 440 l 2
 531 440 570 483 570 540 c 0
 570 597 527 640 450 640 c 2
 340 640 l 1
 340 440 l 1
EndSplineSet
Validated: 1
Layer: 3
SplineSet
60 40 m 2
 60 800 l 2
 60 822 78 840 100 840 c 2
 500 840 l 2
 723 840 850 704 850 540 c 0
 850 376 731 240 500 240 c 2
 340 240 l 1
 340 40 l 2
 340 18 322 0 300 0 c 2
 100 0 l 2
 78 0 60 18 60 40 c 2
340 440 m 1
 450 440 l 2
 531 440 570 483 570 540 c 0
 570 597 527 640 450 640 c 2
 340 640 l 1
 340 440 l 1
EndSplineSet
Colour: ffff00
EndChar

StartChar: Q
Encoding: 51 81 161
Width: 1010
VWidth: 0
Flags: MW
LayerCount: 4
Layer: 2
SplineSet
30 420 m 0
 30 658 202 860 500 860 c 0
 798 860 970 658 970 420 c 0
 970 316 937 219 875 143 c 1
 950 70 l 1
 820 -60 l 1
 733 30 l 1
 667 -2 589 -20 500 -20 c 0
 202 -20 30 182 30 420 c 0
325 420 m 0
 325 298 400 220 500 220 c 0
 515 220 529 222 543 225 c 1
 455 315 l 1
 575 435 l 1
 665 347 l 1
 671 369 675 394 675 420 c 0
 675 542 600 620 500 620 c 0
 400 620 325 542 325 420 c 0
EndSplineSet
Validated: 1
Layer: 3
SplineSet
30 420 m 0
 30 658 202 860 500 860 c 0
 798 860 970 658 970 420 c 0
 970 316 937 219 875 142 c 1
 929 90 l 2
 935 85 938 77 938 69 c 0
 938 61 935 53 929 48 c 2
 842 -38 l 2
 836 -44 829 -47 821 -47 c 0
 814 -47 806 -44 800 -38 c 2
 733 30 l 1
 668 -2 590 -20 500 -20 c 0
 202 -20 30 182 30 420 c 0
325 420 m 0
 325 298 400 220 500 220 c 0
 515 220 529 222 543 225 c 1
 476 294 l 2
 470 300 467 308 467 315 c 0
 467 323 470 331 476 337 c 2
 553 415 l 2
 558 420 565 423 573 423 c 0
 580 423 588 420 595 414 c 2
 665 346 l 1
 671 369 675 393 675 420 c 0
 675 542 600 620 500 620 c 0
 400 620 325 542 325 420 c 0
EndSplineSet
Colour: ffff00
EndChar

StartChar: R
Encoding: 52 82 162
Width: 900
VWidth: 0
Flags: MW
LayerCount: 4
Layer: 2
SplineSet
60 0 m 1
 60 840 l 1
 500 840 l 2
 723 840 850 704 850 540 c 0
 850 433 799 338 700 285 c 1
 900 0 l 1
 580 0 l 1
 430 240 l 1
 340 240 l 1
 340 0 l 1
 60 0 l 1
340 440 m 1
 450 440 l 2
 531 440 570 483 570 540 c 0
 570 597 527 640 450 640 c 2
 340 640 l 1
 340 440 l 1
EndSplineSet
Validated: 1
Layer: 3
SplineSet
60 40 m 2
 60 800 l 2
 60 822 78 840 100 840 c 2
 500 840 l 2
 723 840 850 704 850 540 c 0
 850 433 800 338 700 285 c 1
 875 40 l 2
 878 35 880 29 880 25 c 0
 880 10 865 0 840 0 c 2
 610 0 l 2
 581 0 571 13 555 40 c 2
 430 240 l 1
 340 240 l 1
 340 40 l 2
 340 18 322 0 300 0 c 2
 100 0 l 2
 78 0 60 18 60 40 c 2
340 440 m 1
 450 440 l 2
 531 440 570 483 570 540 c 0
 570 597 527 640 450 640 c 2
 340 640 l 1
 340 440 l 1
EndSplineSet
Colour: ffff00
EndChar

StartChar: S
Encoding: 53 83 163
Width: 820
VWidth: 0
Flags: MW
LayerCount: 4
Layer: 2
SplineSet
30 80 m 1
 140 275 l 1
 212 227 320 190 400 190 c 0
 444 190 480 197 480 230 c 0
 480 259 452 274 430 280 c 0
 372 297 276 328 220 355 c 0
 145 391 50 455 50 585 c 0
 50 778 224 860 420 860 c 0
 599 860 740 780 770 760 c 1
 670 580 l 1
 599 630 498 650 430 650 c 0
 392 650 360 644 360 610 c 0
 360 585 386 567 410 560 c 0
 489 536 532 523 590 500 c 0
 673 468 790 413 790 250 c 0
 790 61 606 -20 410 -20 c 0
 213 -20 65 54 30 80 c 1
EndSplineSet
Validated: 1
Layer: 3
SplineSet
40 90 m 0
 40 100 43 106 48 115 c 2
 120 240 l 2
 127 253 139 260 150 260 c 0
 157 260 169 258 175 255 c 0
 244 218 333 190 400 190 c 0
 444 190 480 197 480 230 c 0
 480 259 452 274 430 280 c 0
 372 297 276 328 220 355 c 0
 145 391 50 455 50 585 c 0
 50 778 224 860 420 860 c 0
 558 860 676 811 735 780 c 0
 749 773 760 762 760 750 c 0
 760 740 757 734 752 725 c 2
 690 615 l 2
 683 602 671 595 660 595 c 0
 653 595 641 597 635 600 c 0
 569 634 487 650 430 650 c 0
 392 650 360 644 360 610 c 0
 360 585 386 567 410 560 c 0
 489 536 532 523 590 500 c 0
 673 468 790 413 790 250 c 0
 790 61 606 -20 410 -20 c 0
 256 -20 128 28 65 60 c 0
 51 67 40 78 40 90 c 0
EndSplineSet
Colour: ffff00
EndChar

StartChar: T
Encoding: 54 84 164
Width: 740
VWidth: 0
Flags: MW
LayerCount: 4
Layer: 2
SplineSet
20 630 m 1
 20 840 l 1
 720 840 l 1
 720 630 l 1
 510 630 l 1
 510 0 l 1
 230 0 l 1
 230 630 l 1
 20 630 l 1
EndSplineSet
Validated: 1
Layer: 3
SplineSet
20 670 m 2
 20 800 l 2
 20 822 38 840 60 840 c 2
 680 840 l 2
 702 840 720 822 720 800 c 2
 720 670 l 2
 720 648 702 630 680 630 c 2
 510 630 l 1
 510 40 l 2
 510 18 492 0 470 0 c 2
 270 0 l 2
 248 0 230 18 230 40 c 2
 230 630 l 1
 60 630 l 2
 38 630 20 648 20 670 c 2
EndSplineSet
Colour: ffff00
EndChar

StartChar: U
Encoding: 55 85 165
Width: 920
VWidth: 0
Flags: MW
LayerCount: 4
Layer: 2
SplineSet
60 280 m 2
 60 840 l 1
 340 840 l 1
 340 310 l 2
 340 232 391 190 460 190 c 0
 529 190 580 232 580 310 c 2
 580 840 l 1
 860 840 l 1
 860 280 l 2
 860 92 700 -20 460 -20 c 0
 220 -20 60 92 60 280 c 2
EndSplineSet
Validated: 1
Layer: 3
SplineSet
60 280 m 2
 60 800 l 2
 60 822 78 840 100 840 c 2
 300 840 l 2
 322 840 340 822 340 800 c 2
 340 310 l 2
 340 232 391 190 460 190 c 0
 529 190 580 232 580 310 c 2
 580 800 l 2
 580 822 598 840 620 840 c 2
 820 840 l 2
 842 840 860 822 860 800 c 2
 860 280 l 2
 860 92 700 -20 460 -20 c 0
 220 -20 60 92 60 280 c 2
EndSplineSet
Colour: ffff00
EndChar

StartChar: V
Encoding: 56 86 166
Width: 980
VWidth: 0
Flags: MW
LayerCount: 4
Layer: 2
SplineSet
10 840 m 1
 310 840 l 1
 480 300 l 1
 485 270 l 1
 495 270 l 1
 500 300 l 1
 670 840 l 1
 970 840 l 1
 650 0 l 1
 330 0 l 1
 10 840 l 1
EndSplineSet
Validated: 1
Layer: 3
SplineSet
20 815 m 0
 20 830 35 840 60 840 c 2
 275 840 l 2
 304 840 317 826 325 800 c 2
 480 300 l 1
 485 270 l 1
 490 270 l 1
 495 270 l 1
 500 300 l 1
 655 800 l 2
 663 826 676 840 705 840 c 2
 920 840 l 2
 945 840 960 830 960 815 c 0
 960 811 958 805 955 800 c 1
 665 40 l 1
 662 27 645 0 620 0 c 2
 490 0 l 1
 360 0 l 2
 335 0 318 27 315 40 c 1
 25 800 l 1
 22 805 20 811 20 815 c 0
EndSplineSet
Colour: ffff00
EndChar

StartChar: W
Encoding: 57 87 167
Width: 1370
VWidth: 0
Flags: MW
LayerCount: 4
Layer: 2
SplineSet
10 840 m 1
 330 840 l 1
 440 340 l 1
 445 310 l 1
 455 310 l 1
 460 340 l 1
 590 840 l 1
 780 840 l 1
 910 340 l 1
 915 310 l 1
 925 310 l 1
 930 340 l 1
 1040 840 l 1
 1360 840 l 1
 1090 0 l 1
 780 0 l 1
 685 420 l 1
 590 0 l 1
 280 0 l 1
 10 840 l 1
EndSplineSet
Validated: 1
Layer: 3
SplineSet
20 815 m 0
 20 830 35 840 60 840 c 2
 290 840 l 2
 319 840 335 824 340 800 c 2
 440 340 l 1
 445 310 l 1
 455 310 l 1
 460 340 l 1
 580 800 l 2
 585 824 591 840 620 840 c 2
 685 840 l 1
 750 840 l 2
 779 840 785 824 790 800 c 2
 910 340 l 1
 915 310 l 1
 925 310 l 1
 930 340 l 1
 1030 800 l 2
 1035 824 1051 840 1080 840 c 2
 1310 840 l 2
 1335 840 1350 830 1350 815 c 0
 1350 811 1348 804 1347 800 c 2
 1105 40 l 2
 1102 27 1085 0 1060 0 c 2
 820 0 l 2
 791 0 776 13 770 40 c 2
 685 420 l 1
 600 40 l 2
 594 13 579 0 550 0 c 2
 310 0 l 2
 285 0 268 27 265 40 c 2
 23 800 l 2
 22 804 20 811 20 815 c 0
EndSplineSet
Colour: ffff00
EndChar

StartChar: X
Encoding: 58 88 168
Width: 940
VWidth: 0
Flags: MW
LayerCount: 4
Layer: 2
SplineSet
0 0 m 1
 270 430 l 1
 30 840 l 1
 350 840 l 1
 470 580 l 1
 590 840 l 1
 910 840 l 1
 670 430 l 1
 940 0 l 1
 600 0 l 1
 470 250 l 1
 340 0 l 1
 0 0 l 1
EndSplineSet
Validated: 1
Layer: 3
SplineSet
20 25 m 0
 20 29 22 35 25 40 c 2
 270 430 l 1
 55 800 l 2
 52 805 50 811 50 815 c 0
 50 830 65 840 90 840 c 2
 315 840 l 2
 344 840 354 827 370 800 c 1
 470 580 l 1
 570 800 l 1
 586 827 596 840 625 840 c 2
 850 840 l 2
 875 840 890 830 890 815 c 0
 890 811 888 805 885 800 c 2
 670 430 l 1
 915 40 l 2
 918 35 920 29 920 25 c 0
 920 10 905 0 880 0 c 2
 635 0 l 2
 606 0 596 13 580 40 c 1
 470 250 l 1
 360 40 l 1
 344 13 334 0 305 0 c 2
 60 0 l 2
 35 0 20 10 20 25 c 0
EndSplineSet
Colour: ffff00
EndChar

StartChar: Y
Encoding: 59 89 169
Width: 940
VWidth: 0
Flags: MW
LayerCount: 4
Layer: 2
SplineSet
10 840 m 1
 330 840 l 1
 470 540 l 1
 610 840 l 1
 930 840 l 1
 610 280 l 1
 610 0 l 1
 330 0 l 1
 330 280 l 1
 10 840 l 1
EndSplineSet
Validated: 1
Layer: 3
SplineSet
30 815 m 0
 30 830 45 840 70 840 c 2
 295 840 l 2
 324 840 334 827 350 800 c 1
 470 540 l 1
 590 800 l 1
 606 827 616 840 645 840 c 2
 870 840 l 2
 895 840 910 830 910 815 c 0
 910 811 908 805 905 800 c 2
 610 280 l 1
 610 40 l 2
 610 18 592 0 570 0 c 2
 370 0 l 2
 348 0 330 18 330 40 c 2
 330 280 l 1
 35 800 l 2
 32 805 30 811 30 815 c 0
EndSplineSet
Colour: ffff00
EndChar

StartChar: Z
Encoding: 60 90 170
Width: 830
VWidth: 0
Flags: MW
LayerCount: 4
Layer: 2
SplineSet
30 0 m 1
 30 180 l 1
 420 630 l 1
 60 630 l 1
 60 840 l 1
 770 840 l 1
 770 650 l 1
 410 210 l 1
 800 210 l 1
 800 0 l 1
 30 0 l 1
EndSplineSet
Validated: 1
Layer: 3
SplineSet
30 40 m 2
 30 155 l 2
 30 183 51 202 70 225 c 2
 420 630 l 1
 100 630 l 2
 78 630 60 648 60 670 c 2
 60 800 l 2
 60 822 78 840 100 840 c 2
 730 840 l 2
 752 840 770 822 770 800 c 2
 770 670 l 2
 770 642 749 623 730 600 c 2
 410 210 l 1
 760 210 l 2
 782 210 800 192 800 170 c 2
 800 40 l 2
 800 18 782 0 760 0 c 2
 70 0 l 2
 48 0 30 18 30 40 c 2
EndSplineSet
Colour: ffff00
EndChar

StartChar: bracketleft
Encoding: 61 91 171
Width: 480
VWidth: 0
Flags: MW
LayerCount: 4
Layer: 2
SplineSet
50 -150 m 1
 50 870 l 1
 440 870 l 1
 440 700 l 1
 290 700 l 1
 290 20 l 1
 440 20 l 1
 440 -150 l 1
 50 -150 l 1
EndSplineSet
Validated: 1
Layer: 3
SplineSet
50 -110 m 2
 50 830 l 2
 50 852 68 870 90 870 c 2
 410 870 l 2
 426 870 440 856 440 840 c 2
 440 730 l 2
 440 714 426 700 410 700 c 2
 290 700 l 1
 290 20 l 1
 410 20 l 2
 426 20 440 6 440 -10 c 2
 440 -120 l 2
 440 -136 426 -150 410 -150 c 2
 90 -150 l 2
 68 -150 50 -132 50 -110 c 2
EndSplineSet
Colour: ffff00
EndChar

StartChar: backslash
Encoding: 62 92 172
Width: 600
VWidth: 0
Flags: MW
LayerCount: 4
Layer: 2
SplineSet
30 840 m 1
 240 840 l 1
 570 0 l 1
 360 0 l 1
 30 840 l 1
EndSplineSet
Validated: 1
Layer: 3
SplineSet
37 828 m 0
 37 836 45 840 59 840 c 2
 208 840 l 2
 231 840 246 826 252 810 c 2
 558 30 l 1
 558 30 563 20 563 12 c 0
 563 4 555 0 541 0 c 2
 392 0 l 2
 369 0 354 14 348 30 c 2
 42 810 l 1
 42 810 37 820 37 828 c 0
EndSplineSet
Colour: ffff00
EndChar

StartChar: asciicircum
Encoding: 64 94 174
Width: 600
VWidth: 0
Flags: MW
LayerCount: 4
Layer: 2
SplineSet
0 600 m 1
 0 610 l 1
 215 840 l 1
 300 840 l 1
 385 840 l 1
 600 610 l 1
 600 600 l 1
 425 600 l 1
 300 690 l 1
 175 600 l 1
 0 600 l 1
EndSplineSet
Validated: 1
Layer: 3
SplineSet
20 620 m 0
 20 633 25 638 30 645 c 1
 185 810 l 2
 202 828 215 840 240 840 c 2
 300 840 l 1
 360 840 l 2
 385 840 398 828 415 810 c 2
 570 645 l 1
 575 638 580 633 580 620 c 0
 580 612 574 600 560 600 c 2
 442 600 l 2
 422 600 408 612 386 628 c 2
 300 690 l 1
 214 628 l 2
 192 612 178 600 158 600 c 2
 40 600 l 2
 26 600 20 612 20 620 c 0
EndSplineSet
Colour: ffff00
EndChar

StartChar: underscore
Encoding: 65 95 175
Width: 700
VWidth: 0
Flags: MW
LayerCount: 4
Layer: 2
SplineSet
50 0 m 1
 650 0 l 1
 650 -180 l 1
 50 -180 l 1
 50 0 l 1
EndSplineSet
Validated: 1
Layer: 3
SplineSet
50 -30 m 2
 50 -14 64 0 80 0 c 2
 620 0 l 2
 636 0 650 -14 650 -30 c 2
 650 -150 l 2
 650 -166 636 -180 620 -180 c 2
 80 -180 l 2
 64 -180 50 -166 50 -150 c 2
 50 -30 l 2
EndSplineSet
Colour: ffff00
EndChar

StartChar: grave
Encoding: 66 96 176
Width: 450
VWidth: 0
Flags: MW
LayerCount: 4
Layer: 2
SplineSet
-20 830 m 1
 -20 840 l 1
 230 840 l 1
 430 610 l 1
 430 600 l 1
 260 600 l 1
 -20 830 l 1
EndSplineSet
Validated: 1
Layer: 3
SplineSet
0 820 m 0
 0 829 6 840 20 840 c 2
 205 840 l 2
 228 840 243 826 256 810 c 2
 400 645 l 2
 405 638 410 633 410 620 c 0
 410 612 404 600 390 600 c 2
 280 600 l 2
 260 600 246 612 224 630 c 2
 25 785 l 1
 25 785 0 801 0 820 c 0
EndSplineSet
Colour: ffff00
EndChar

StartChar: v
Encoding: 88 118 177
Width: 780
VWidth: 0
Flags: MW
LayerCount: 4
Layer: 2
SplineSet
10 600 m 1
 300 600 l 1
 380 250 l 1
 385 220 l 1
 395 220 l 1
 400 250 l 1
 480 600 l 1
 770 600 l 1
 550 0 l 1
 230 0 l 1
 10 600 l 1
EndSplineSet
Validated: 1
Layer: 3
SplineSet
20 575 m 0
 20 590 35 600 60 600 c 2
 260 600 l 2
 289 600 303 587 310 560 c 1
 380 250 l 1
 385 220 l 1
 390 220 l 1
 395 220 l 1
 400 250 l 1
 470 560 l 1
 477 587 491 600 520 600 c 2
 720 600 l 2
 745 600 760 590 760 575 c 0
 760 571 758 565 755 560 c 1
 565 40 l 1
 562 27 545 0 520 0 c 2
 390 0 l 1
 260 0 l 2
 235 0 218 27 215 40 c 1
 25 560 l 1
 22 565 20 571 20 575 c 0
EndSplineSet
Colour: ffff00
EndChar

StartChar: w
Encoding: 89 119 178
Width: 1050
VWidth: 0
Flags: MW
LayerCount: 4
Layer: 2
SplineSet
10 600 m 1
 295 600 l 1
 350 270 l 1
 355 230 l 1
 365 230 l 1
 370 270 l 1
 450 600 l 1
 525 600 l 1
 600 600 l 1
 680 270 l 1
 685 230 l 1
 695 230 l 1
 700 270 l 1
 755 600 l 1
 1040 600 l 1
 870 0 l 1
 590 0 l 1
 525 250 l 1
 460 0 l 1
 180 0 l 1
 10 600 l 1
EndSplineSet
Validated: 1
Layer: 3
SplineSet
15 580 m 0
 15 595 30 600 60 600 c 2
 260 600 l 2
 289 600 300 587 305 560 c 2
 350 270 l 1
 355 230 l 1
 365 230 l 1
 370 270 l 1
 440 560 l 2
 445 584 451 600 480 600 c 2
 525 600 l 1
 570 600 l 2
 599 600 605 584 610 560 c 2
 680 270 l 1
 685 230 l 1
 695 230 l 1
 700 270 l 1
 745 560 l 2
 750 587 761 600 790 600 c 2
 990 600 l 2
 1020 600 1035 595 1035 580 c 0
 1035 575 1032 565 1030 560 c 2
 880 40 l 2
 874 19 865 0 835 0 c 2
 625 0 l 2
 598 0 588 16 580 40 c 1
 525 250 l 1
 470 40 l 1
 462 16 452 0 425 0 c 2
 215 0 l 2
 185 0 176 19 170 40 c 2
 20 560 l 2
 18 565 15 575 15 580 c 0
EndSplineSet
Colour: ffff00
EndChar

StartChar: x
Encoding: 90 120 179
Width: 760
VWidth: 0
Flags: MW
LayerCount: 4
Layer: 2
SplineSet
0 0 m 1
 200 310 l 1
 20 600 l 1
 310 600 l 1
 380 420 l 1
 450 600 l 1
 740 600 l 1
 560 310 l 1
 760 0 l 1
 460 0 l 1
 380 180 l 1
 300 0 l 1
 0 0 l 1
EndSplineSet
Validated: 1
Layer: 3
SplineSet
20 25 m 0
 20 29 22 35 25 40 c 2
 200 310 l 1
 45 560 l 2
 42 565 40 571 40 575 c 0
 40 590 55 600 80 600 c 2
 275 600 l 2
 304 600 314 587 325 560 c 2
 380 420 l 1
 435 560 l 2
 446 587 456 600 485 600 c 2
 680 600 l 2
 705 600 720 590 720 575 c 0
 720 571 718 565 715 560 c 2
 560 310 l 1
 735 40 l 2
 738 35 740 29 740 25 c 0
 740 10 725 0 700 0 c 2
 490 0 l 2
 461 0 452 13 440 40 c 2
 380 180 l 1
 320 40 l 2
 308 13 299 0 270 0 c 2
 60 0 l 2
 35 0 20 10 20 25 c 0
EndSplineSet
Colour: ffff00
EndChar

StartChar: y
Encoding: 91 121 180
Width: 780
VWidth: 0
Flags: MW
LayerCount: 4
Layer: 2
SplineSet
10 600 m 1
 300 600 l 1
 380 250 l 1
 385 220 l 1
 390 220 l 1
 395 220 l 1
 400 250 l 1
 480 600 l 1
 770 600 l 1
 550 0 l 1
 492 -210 369 -260 250 -260 c 0
 165 -260 94 -240 50 -220 c 1
 110 -60 l 1
 110 -60 154 -90 210 -90 c 0
 275 -90 292 -54 309 -3 c 1
 256 9 215 41 185 120 c 2
 10 600 l 1
EndSplineSet
Validated: 1
Layer: 3
SplineSet
20 575 m 0
 20 590 35 600 60 600 c 2
 260 600 l 2
 289 600 303 587 310 560 c 1
 380 250 l 1
 385 220 l 1
 390 220 l 1
 395 220 l 1
 400 250 l 1
 470 560 l 1
 477 587 491 600 520 600 c 2
 720 600 l 2
 745 600 760 590 760 575 c 0
 760 571 758 565 755 560 c 1
 550 0 l 1
 492 -210 369 -260 250 -260 c 0
 184 -260 132 -247 105 -240 c 0
 85 -235 55 -221 55 -205 c 0
 55 -193 61 -184 65 -175 c 2
 98 -90 l 2
 103 -78 109 -65 120 -65 c 0
 140 -65 163 -90 210 -90 c 0
 275 -90 292 -54 309 -3 c 1
 256 9 215 41 185 120 c 2
 25 560 l 1
 22 565 20 571 20 575 c 0
EndSplineSet
Colour: ffff00
EndChar

StartChar: braceleft
Encoding: 93 123 181
Width: 480
VWidth: 0
Flags: MW
LayerCount: 4
Layer: 2
SplineSet
10 330 m 1
 10 360 l 1
 10 390 l 1
 10 390 120 420 120 540 c 2
 120 720 l 2
 120 816 186 870 280 870 c 2
 450 870 l 1
 450 700 l 1
 400 700 l 2
 364 700 360 685 360 640 c 2
 360 510 l 2
 360 395 280 360 280 360 c 1
 280 360 360 325 360 210 c 2
 360 80 l 2
 360 35 364 20 400 20 c 2
 450 20 l 1
 450 -150 l 1
 280 -150 l 2
 186 -150 120 -96 120 0 c 2
 120 180 l 2
 120 300 10 330 10 330 c 1
EndSplineSet
Validated: 1
Layer: 3
SplineSet
10 345 m 2
 10 360 l 1
 10 375 l 2
 10 391 26 399 40 405 c 0
 53 410 120 445 120 540 c 2
 120 720 l 2
 120 816 186 870 280 870 c 2
 420 870 l 2
 436 870 450 856 450 840 c 2
 450 730 l 2
 450 714 436 700 420 700 c 2
 400 700 l 2
 364 700 360 685 360 640 c 2
 360 510 l 2
 360 395 280 360 280 360 c 1
 280 360 360 325 360 210 c 2
 360 80 l 2
 360 35 364 20 400 20 c 2
 420 20 l 2
 436 20 450 6 450 -10 c 2
 450 -120 l 2
 450 -136 436 -150 420 -150 c 2
 280 -150 l 2
 186 -150 120 -96 120 0 c 2
 120 180 l 2
 120 275 53 310 40 315 c 0
 26 321 10 329 10 345 c 2
EndSplineSet
Colour: ffff00
EndChar

StartChar: bar
Encoding: 94 124 182
Width: 360
VWidth: 0
Flags: MW
LayerCount: 4
Layer: 2
SplineSet
75 -150 m 1
 75 870 l 1
 285 870 l 1
 285 -150 l 1
 75 -150 l 1
EndSplineSet
Validated: 1
Layer: 3
SplineSet
75 -120 m 2
 75 840 l 2
 75 856 89 870 105 870 c 2
 255 870 l 2
 271 870 285 856 285 840 c 2
 285 -120 l 2
 285 -136 271 -150 255 -150 c 2
 105 -150 l 2
 89 -150 75 -136 75 -120 c 2
EndSplineSet
Colour: ffff00
EndChar

StartChar: asciitilde
Encoding: 96 126 184
Width: 650
VWidth: 0
Flags: MW
LayerCount: 4
Layer: 2
SplineSet
40 300 m 1
 64 437 140 480 220 480 c 0
 267 480 295 466 330 450 c 1
 371 433 397 420 430 420 c 0
 458 420 476 443 490 480 c 1
 610 420 l 1
 586 283 510 240 430 240 c 0
 383 240 355 254 320 270 c 1
 279 287 253 300 220 300 c 0
 192 300 174 277 160 240 c 1
 40 300 l 1
EndSplineSet
Validated: 1
Layer: 3
SplineSet
45 316 m 0
 45 362 88 480 220 480 c 0
 267 480 295 465 330 450 c 0
 371 432 397 420 430 420 c 0
 458 420 472 443 482 460 c 0
 487 468 493 475 502 475 c 0
 513 475 520 470 520 470 c 1
 590 433 l 2
 603 426 605 414 605 404 c 0
 605 358 562 240 430 240 c 0
 383 240 355 255 320 270 c 0
 279 288 253 300 220 300 c 0
 192 300 178 277 168 260 c 0
 163 252 157 245 148 245 c 0
 137 245 130 250 130 250 c 1
 60 287 l 2
 47 294 45 306 45 316 c 0
EndSplineSet
Colour: ffff00
EndChar

StartChar: Euro
Encoding: 681 8364 185
Width: 840
VWidth: 0
UnlinkRmOvrlpSave: 1
Flags: MW
LayerCount: 4
Layer: 2
SplineSet
530 860 m 0
 729 860 820 760 820 760 c 1
 710 590 l 1
 710 590 663 650 570 650 c 0
 491 650 433 625 399 570 c 1
 590 570 l 1
 590 450 l 1
 366 450 l 1
 365 440 365 430 365 420 c 0
 365 410 365 400 366 390 c 1
 590 390 l 1
 590 270 l 1
 399 270 l 1
 433 215 491 190 570 190 c 0
 663 190 710 250 710 250 c 1
 820 80 l 1
 820 80 729 -20 530 -20 c 0
 298 -20 167 103 120 270 c 1
 40 270 l 1
 40 390 l 1
 101 390 l 1
 101 400 100 410 100 420 c 0
 100 430 101 440 101 450 c 1
 40 450 l 1
 40 570 l 1
 120 570 l 1
 167 737 298 860 530 860 c 0
EndSplineSet
Layer: 3
SplineSet
530 860 m 0
 659 860 747 816 790 787 c 0
 805 777 813 769 813 757 c 0
 813 747 810 741 805 732 c 2
 735 625 l 2
 728 612 716 605 705 605 c 0
 698 605 686 612 680 615 c 0
 672 619 626 650 570 650 c 0
 491 650 433 625 399 570 c 1
 560 570 l 2
 576 570 590 556 590 540 c 2
 590 480 l 2
 590 464 576 450 560 450 c 2
 366 450 l 1
 365 440 365 430 365 420 c 0
 365 410 365 400 366 390 c 1
 560 390 l 2
 576 390 590 376 590 360 c 2
 590 300 l 2
 590 284 576 270 560 270 c 2
 399 270 l 1
 433 215 491 190 570 190 c 0
 626 190 672 221 680 225 c 0
 686 228 698 235 705 235 c 0
 716 235 728 228 735 215 c 2
 805 108 l 2
 810 99 813 93 813 83 c 0
 813 71 805 63 790 53 c 0
 747 24 659 -20 530 -20 c 0
 298 -20 167 103 120 270 c 1
 70 270 l 2
 54 270 40 284 40 300 c 2
 40 360 l 2
 40 376 54 390 70 390 c 2
 101 390 l 1
 101 400 100 410 100 420 c 0
 100 430 101 440 101 450 c 1
 70 450 l 2
 54 450 40 464 40 480 c 2
 40 540 l 2
 40 556 54 570 70 570 c 2
 120 570 l 1
 167 737 298 860 530 860 c 0
EndSplineSet
Colour: ff0000
EndChar

StartChar: bullet
Encoding: 644 8226 190
Width: 480
VWidth: 0
Flags: MW
LayerCount: 4
Layer: 2
SplineSet
90 360 m 0
 90 443 157 510 240 510 c 0
 323 510 390 443 390 360 c 0
 390 277 323 210 240 210 c 0
 157 210 90 277 90 360 c 0
EndSplineSet
Validated: 1
Layer: 3
SplineSet
90 360 m 0
 90 443 157 510 240 510 c 0
 323 510 390 443 390 360 c 0
 390 277 323 210 240 210 c 0
 157 210 90 277 90 360 c 0
EndSplineSet
Colour: ffff00
EndChar

StartChar: endash
Encoding: 633 8211 191
Width: 770
VWidth: 0
Flags: MW
LayerCount: 4
Layer: 2
SplineSet
45 270 m 1
 45 450 l 1
 725 450 l 1
 725 270 l 1
 45 270 l 1
EndSplineSet
Validated: 1
Layer: 3
SplineSet
45 300 m 2
 45 420 l 2
 45 436 59 450 75 450 c 2
 695 450 l 2
 711 450 725 436 725 420 c 2
 725 300 l 2
 725 284 711 270 695 270 c 2
 75 270 l 2
 59 270 45 284 45 300 c 2
EndSplineSet
Colour: ffff00
EndChar

StartChar: emdash
Encoding: 634 8212 192
Width: 1100
VWidth: 0
Flags: MW
LayerCount: 4
Layer: 2
SplineSet
45 270 m 1
 45 450 l 1
 1055 450 l 1
 1055 270 l 1
 45 270 l 1
EndSplineSet
Validated: 1
Layer: 3
SplineSet
45 300 m 2
 45 420 l 2
 45 436 59 450 75 450 c 2
 1025 450 l 2
 1041 450 1055 436 1055 420 c 2
 1055 300 l 2
 1055 284 1041 270 1025 270 c 2
 75 270 l 2
 59 270 45 284 45 300 c 2
EndSplineSet
Colour: ffff00
EndChar

StartChar: .notdef
Encoding: 769 -1 194
Width: 720
VWidth: 0
Flags: MW
LayerCount: 4
Layer: 2
SplineSet
195 540 m 1
 195 60 l 1
 525 60 l 1
 525 540 l 1
 195 540 l 1
105 600 m 1
 615 600 l 1
 615 0 l 1
 105 0 l 1
 105 600 l 1
EndSplineSet
Validated: 1
Layer: 3
SplineSet
195 540 m 1
 195 60 l 1
 525 60 l 1
 525 540 l 1
 195 540 l 1
150 600 m 2
 570 600 l 0
 597 600 615 583 615 570 c 0
 615 30 l 0
 615 12 589 0 570 0 c 0
 150 0 l 0
 123 0 105 17 105 30 c 0
 105 570 l 0
 105 588 131 600 150 600 c 2
EndSplineSet
Colour: ff0000
EndChar

StartChar: uni25CC
Encoding: 730 9676 228
Width: 720
VWidth: 0
Flags: MW
LayerCount: 4
Layer: 2
SplineSet
40 270 m 1
 40 330 l 1
 100 330 l 1
 100 270 l 1
 40 270 l 1
53 205 m 1
 108 228 l 1
 131 173 l 1
 76 150 l 1
 53 205 l 1
53 395 m 1
 76 450 l 1
 131 427 l 1
 108 372 l 1
 53 395 l 1
113 95 m 1
 155 137 l 1
 197 95 l 1
 155 53 l 1
 113 95 l 1
113 505 m 1
 155 547 l 1
 197 505 l 1
 155 463 l 1
 113 505 l 1
210 16 m 1
 233 71 l 1
 288 48 l 1
 265 -7 l 1
 210 16 l 1
210 584 m 1
 265 607 l 1
 288 552 l 1
 233 529 l 1
 210 584 l 1
330 -20 m 1
 330 40 l 1
 390 40 l 1
 390 -20 l 1
 330 -20 l 1
330 560 m 1
 330 620 l 1
 390 620 l 1
 390 560 l 1
 330 560 l 1
432 48 m 1
 487 71 l 1
 510 16 l 1
 455 -7 l 1
 432 48 l 1
432 552 m 1
 455 607 l 1
 510 584 l 1
 487 529 l 1
 432 552 l 1
523 95 m 1
 565 137 l 1
 607 95 l 1
 565 53 l 1
 523 95 l 1
523 505 m 1
 565 547 l 1
 607 505 l 1
 565 463 l 1
 523 505 l 1
589 173 m 1
 612 228 l 1
 667 205 l 1
 644 150 l 1
 589 173 l 1
589 427 m 1
 644 450 l 1
 667 395 l 1
 612 372 l 1
 589 427 l 1
620 270 m 1
 620 330 l 1
 680 330 l 1
 680 270 l 1
 620 270 l 1
EndSplineSet
Validated: 1
Layer: 3
SplineSet
40 300 m 0
 40 319 56 335 75 335 c 0
 94 335 110 319 110 300 c 0
 110 281 94 265 75 265 c 0
 56 265 40 281 40 300 c 0
62 191 m 0
 62 210 78 226 97 226 c 0
 116 226 132 210 132 191 c 0
 132 172 116 156 97 156 c 0
 78 156 62 172 62 191 c 0
62 409 m 0
 62 428 78 444 97 444 c 0
 116 444 132 428 132 409 c 0
 132 390 116 374 97 374 c 0
 78 374 62 390 62 409 c 0
123 98 m 0
 123 117 139 133 158 133 c 0
 177 133 193 117 193 98 c 0
 193 79 177 63 158 63 c 0
 139 63 123 79 123 98 c 0
123 502 m 0
 123 521 139 537 158 537 c 0
 177 537 193 521 193 502 c 0
 193 483 177 467 158 467 c 0
 139 467 123 483 123 502 c 0
216 37 m 0
 216 56 232 72 251 72 c 0
 270 72 286 56 286 37 c 0
 286 18 270 2 251 2 c 0
 232 2 216 18 216 37 c 0
216 563 m 0
 216 582 232 598 251 598 c 0
 270 598 286 582 286 563 c 0
 286 544 270 528 251 528 c 0
 232 528 216 544 216 563 c 0
325 15 m 0
 325 34 341 50 360 50 c 0
 379 50 395 34 395 15 c 0
 395 -4 379 -20 360 -20 c 0
 341 -20 325 -4 325 15 c 0
325 585 m 0
 325 604 341 620 360 620 c 0
 379 620 395 604 395 585 c 0
 395 566 379 550 360 550 c 0
 341 550 325 566 325 585 c 0
434 37 m 0
 434 56 450 72 469 72 c 0
 488 72 504 56 504 37 c 0
 504 18 488 2 469 2 c 0
 450 2 434 18 434 37 c 0
434 563 m 0
 434 582 450 598 469 598 c 0
 488 598 504 582 504 563 c 0
 504 544 488 528 469 528 c 0
 450 528 434 544 434 563 c 0
527 98 m 0
 527 117 543 133 562 133 c 0
 581 133 597 117 597 98 c 0
 597 79 581 63 562 63 c 0
 543 63 527 79 527 98 c 0
527 502 m 0
 527 521 543 537 562 537 c 0
 581 537 597 521 597 502 c 0
 597 483 581 467 562 467 c 0
 543 467 527 483 527 502 c 0
588 191 m 0
 588 210 604 226 623 226 c 0
 642 226 658 210 658 191 c 0
 658 172 642 156 623 156 c 0
 604 156 588 172 588 191 c 0
588 409 m 0
 588 428 604 444 623 444 c 0
 642 444 658 428 658 409 c 0
 658 390 642 374 623 374 c 0
 604 374 588 390 588 409 c 0
610 300 m 0
 610 319 626 335 645 335 c 0
 664 335 680 319 680 300 c 0
 680 281 664 265 645 265 c 0
 626 265 610 281 610 300 c 0
EndSplineSet
Colour: ffff00
EndChar

StartChar: uni0E4F.extra
Encoding: 731 63616 235
Width: 760
VWidth: 0
Flags: MW
LayerCount: 4
Layer: 2
SplineSet
145 960 m 1
 345 960 l 1
 295 690 l 1
 195 690 l 1
 145 960 l 1
415 960 m 1
 615 960 l 1
 565 690 l 1
 465 690 l 1
 415 960 l 1
EndSplineSet
Refer: 76 3663 N 1 0 0 1 0 0 2
Validated: 1
Layer: 3
SplineSet
180 960 m 2
 310 960 l 2
 326 960 340 946 340 930 c 2
 300 710 l 2
 296 698 290 690 279 690 c 2
 211 690 l 2
 200 690 194 698 190 710 c 2
 150 930 l 2
 150 946 164 960 180 960 c 2
450 960 m 2
 580 960 l 2
 596 960 610 946 610 930 c 2
 570 710 l 2
 566 698 560 690 549 690 c 2
 481 690 l 2
 470 690 464 698 460 710 c 2
 420 930 l 2
 420 946 434 960 450 960 c 2
EndSplineSet
Refer: 76 3663 S 1 0 0 1 0 0 2
Colour: ff0000
EndChar

StartChar: uni0E240E45.liga
Encoding: 732 63617 236
Width: 1170
VWidth: 0
UnlinkRmOvrlpSave: 1
Flags: MW
LayerCount: 4
Layer: 2
SplineSet
20 520 m 1
 20 520 178 620 380 620 c 0
 493 620 584 596 645 550 c 1
 676 569 754 610 880 610 c 0
 1046 610 1120 532 1120 380 c 2
 1120 -240 l 1
 840 -240 l 1
 840 360 l 2
 840 398 826 410 790 410 c 0
 772 410 749 406 728 400 c 1
 729 390 730 380 730 370 c 2
 730 -240 l 1
 460 -240 l 1
 460 370 l 2
 460 418 438 440 380 440 c 0
 366 440 344 439 318 436 c 1
 336 419 350 394 350 360 c 2
 350 150 l 1
 410 150 l 1
 410 0 l 1
 200 0 l 2
 120 0 90 42 90 90 c 2
 90 370 l 2
 90 389 86 396 79 397 c 0
 69 395 59 392 50 390 c 1
 20 520 l 1
EndSplineSet
Layer: 3
SplineSet
20 505 m 0
 20 517 27 527 40 535 c 1
 40 535 192 620 380 620 c 0
 493 620 584 597 645 550 c 1
 649 553 654 556 660 560 c 2
 660 560 745 610 880 610 c 0
 1046 610 1120 532 1120 380 c 2
 1120 -200 l 2
 1120 -222 1102 -240 1080 -240 c 2
 880 -240 l 2
 858 -240 840 -222 840 -200 c 2
 840 360 l 2
 840 398 826 410 790 410 c 0
 768 410 748 405 729 398 c 1
 730 389 730 380 730 370 c 2
 730 -200 l 2
 730 -222 712 -240 690 -240 c 2
 500 -240 l 2
 478 -240 460 -222 460 -200 c 2
 460 370 l 2
 460 418 438 440 380 440 c 0
 364 440 343 439 318 436 c 1
 336 420 350 394 350 360 c 2
 350 150 l 1
 380 150 l 2
 396 150 410 136 410 120 c 2
 410 30 l 2
 410 14 396 0 380 0 c 2
 200 0 l 2
 120 0 90 42 90 90 c 2
 90 370 l 2
 90 390 86 397 79 397 c 0
 73 396 67 395 65 395 c 0
 54 395 49 403 45 415 c 2
 25 480 l 1
 25 480 20 497 20 505 c 0
EndSplineSet
EndChar

StartChar: uni0E260E45.liga
Encoding: 733 63618 237
Width: 1170
VWidth: 0
UnlinkRmOvrlpSave: 1
Flags: MW
LayerCount: 4
Layer: 2
SplineSet
20 520 m 1
 20 520 178 620 380 620 c 0
 493 620 584 596 645 550 c 1
 676 569 754 610 880 610 c 0
 1046 610 1120 532 1120 380 c 2
 1120 -240 l 1
 840 -240 l 1
 840 360 l 2
 840 398 826 410 790 410 c 0
 772 410 749 406 728 400 c 1
 729 390 730 380 730 370 c 2
 730 -240 l 1
 460 -240 l 1
 460 370 l 2
 460 418 438 440 380 440 c 0
 367 440 349 439 327 437 c 1
 346 420 360 394 360 360 c 2
 360 90 l 2
 360 42 330 0 250 0 c 2
 40 0 l 1
 40 150 l 1
 100 150 l 1
 100 370 l 2
 100 391 96 399 87 399 c 0
 74 396 62 393 50 390 c 1
 20 520 l 1
EndSplineSet
Layer: 3
SplineSet
20 505 m 0
 20 517 27 527 40 535 c 1
 40 535 192 620 380 620 c 0
 493 620 584 597 645 550 c 1
 649 553 654 556 660 560 c 2
 660 560 745 610 880 610 c 0
 1046 610 1120 532 1120 380 c 2
 1120 -200 l 2
 1120 -222 1102 -240 1080 -240 c 2
 880 -240 l 2
 858 -240 840 -222 840 -200 c 2
 840 360 l 2
 840 398 826 410 790 410 c 0
 768 410 748 405 729 398 c 1
 730 389 730 380 730 370 c 2
 730 -200 l 2
 730 -222 712 -240 690 -240 c 2
 500 -240 l 2
 478 -240 460 -222 460 -200 c 2
 460 370 l 2
 460 418 438 440 380 440 c 0
 366 440 348 439 327 437 c 1
 346 420 360 395 360 360 c 2
 360 90 l 2
 360 42 330 0 250 0 c 2
 70 0 l 2
 54 0 40 14 40 30 c 2
 40 120 l 2
 40 136 54 150 70 150 c 2
 100 150 l 1
 100 370 l 2
 100 391 95 399 87 399 c 0
 81 398 69 395 65 395 c 0
 54 395 49 403 45 415 c 2
 25 480 l 1
 25 480 20 497 20 505 c 0
EndSplineSet
EndChar

StartChar: uni0E31.sl
Encoding: 734 63620 238
Width: 0
VWidth: 0
Flags: MW
LayerCount: 4
Layer: 2
SplineSet
-800 780 m 0
 -800 836 -765 900 -765 900 c 1
 -575 900 l 1
 -595 840 l 1
 -380 840 l 1
 -380 690 l 1
 -690 690 l 2
 -751 690 -800 722 -800 780 c 0
EndSplineSet
Validated: 1
Layer: 3
SplineSet
-800 780 m 0
 -800 821 -779 870 -779 870 c 1
 -773 886 -759 900 -739 900 c 2
 -605 900 l 2
 -589 900 -579 887 -585 870 c 2
 -595 840 l 1
 -410 840 l 2
 -394 840 -380 826 -380 810 c 2
 -380 720 l 2
 -380 704 -394 690 -410 690 c 2
 -690 690 l 2
 -751 690 -800 722 -800 780 c 0
EndSplineSet
EndChar

StartChar: uni0E34.sl
Encoding: 735 63621 239
Width: 0
VWidth: 0
Flags: MW
LayerCount: 4
Layer: 2
SplineSet
-810 690 m 1
 -810 840 l 1
 -390 840 l 1
 -390 690 l 1
 -810 690 l 1
EndSplineSet
Validated: 1
Layer: 3
SplineSet
-810 720 m 2
 -810 810 l 2
 -810 826 -796 840 -780 840 c 2
 -420 840 l 2
 -404 840 -390 826 -390 810 c 2
 -390 720 l 2
 -390 704 -404 690 -420 690 c 2
 -780 690 l 2
 -796 690 -810 704 -810 720 c 2
EndSplineSet
EndChar

StartChar: uni0E35.sl
Encoding: 736 63622 240
Width: 0
VWidth: 0
Flags: MW
LayerCount: 4
Layer: 2
SplineSet
-820 690 m 1
 -820 840 l 1
 -640 840 l 2
 -584 840 -560 800 -560 800 c 1
 -560 920 l 1
 -370 920 l 1
 -370 690 l 1
 -820 690 l 1
EndSplineSet
Validated: 1
Layer: 3
SplineSet
-820 720 m 2
 -820 810 l 2
 -820 826 -806 840 -790 840 c 2
 -640 840 l 2
 -584 840 -560 800 -560 800 c 1
 -560 890 l 2
 -560 906 -546 920 -530 920 c 2
 -400 920 l 2
 -384 920 -370 906 -370 890 c 2
 -370 720 l 2
 -370 704 -384 690 -400 690 c 2
 -790 690 l 2
 -806 690 -820 704 -820 720 c 2
EndSplineSet
EndChar

StartChar: uni0E36.sl
Encoding: 737 63623 241
Width: 0
VWidth: 0
Flags: MW
LayerCount: 4
Layer: 2
SplineSet
-830 690 m 1
 -830 840 l 1
 -680 840 l 2
 -654 840 -633 819 -619 798 c 1
 -620 802 -620 806 -620 810 c 0
 -620 882 -566 930 -490 930 c 0
 -414 930 -360 882 -360 810 c 0
 -360 738 -414 690 -490 690 c 2
 -830 690 l 1
-525 810 m 0
 -525 784 -511 770 -490 770 c 0
 -469 770 -455 784 -455 810 c 0
 -455 836 -469 850 -490 850 c 0
 -511 850 -525 836 -525 810 c 0
EndSplineSet
Validated: 1
Layer: 3
SplineSet
-830 720 m 2
 -830 810 l 2
 -830 826 -816 840 -800 840 c 2
 -680 840 l 2
 -654 840 -633 819 -619 798 c 1
 -620 802 -620 806 -620 810 c 0
 -620 882 -566 930 -490 930 c 0
 -414 930 -360 882 -360 810 c 0
 -360 738 -414 690 -490 690 c 2
 -800 690 l 2
 -816 690 -830 704 -830 720 c 2
-525 810 m 0
 -525 784 -511 770 -490 770 c 0
 -469 770 -455 784 -455 810 c 0
 -455 836 -469 850 -490 850 c 0
 -511 850 -525 836 -525 810 c 0
EndSplineSet
EndChar

StartChar: uni0E37.sl
Encoding: 738 63624 242
Width: 0
VWidth: 0
Flags: MW
LayerCount: 4
Layer: 2
SplineSet
-830 690 m 1
 -830 840 l 1
 -750 840 l 2
 -699 840 -680 800 -680 800 c 1
 -680 920 l 1
 -550 920 l 1
 -550 790 l 1
 -500 790 l 1
 -500 920 l 1
 -370 920 l 1
 -370 690 l 1
 -830 690 l 1
EndSplineSet
Validated: 1
Layer: 3
SplineSet
-830 720 m 2
 -830 810 l 2
 -830 826 -816 840 -800 840 c 2
 -750 840 l 2
 -699 840 -680 800 -680 800 c 1
 -680 900 l 2
 -680 911 -671 920 -660 920 c 2
 -570 920 l 2
 -559 920 -550 911 -550 900 c 2
 -550 790 l 1
 -500 790 l 1
 -500 900 l 2
 -500 911 -491 920 -480 920 c 2
 -390 920 l 2
 -379 920 -370 911 -370 900 c 2
 -370 720 l 2
 -370 704 -384 690 -400 690 c 2
 -800 690 l 2
 -816 690 -830 704 -830 720 c 2
EndSplineSet
EndChar

StartChar: uni0E0D.rd
Encoding: 756 63642 244
Width: 1150
VWidth: -360
Flags: MW
LayerCount: 4
Layer: 2
SplineSet
20 520 m 1
 20 520 178 620 380 620 c 0
 594 620 730 536 730 370 c 2
 730 220 l 2
 730 179 745 160 780 160 c 0
 815 160 830 179 830 220 c 2
 830 600 l 1
 1100 600 l 1
 1100 210 l 2
 1100 83 1012 -20 780 -20 c 0
 548 -20 460 83 460 210 c 2
 460 370 l 2
 460 418 438 440 380 440 c 0
 366 440 344 439 318 436 c 1
 336 419 350 394 350 360 c 2
 350 150 l 1
 410 150 l 1
 410 0 l 1
 200 0 l 2
 120 0 90 42 90 90 c 2
 90 370 l 2
 90 389 86 396 79 397 c 1
 69 395 59 392 50 390 c 1
 20 520 l 1
EndSplineSet
Validated: 1
Layer: 3
SplineSet
20 505 m 0
 20 517 27 527 40 535 c 1
 40 535 192 620 380 620 c 0
 594 620 730 536 730 370 c 2
 730 220 l 2
 730 179 745 160 780 160 c 0
 815 160 830 179 830 220 c 2
 830 560 l 2
 830 582 848 600 870 600 c 2
 1060 600 l 2
 1082 600 1100 582 1100 560 c 2
 1100 210 l 2
 1100 83 1012 -20 780 -20 c 0
 548 -20 460 83 460 210 c 2
 460 370 l 2
 460 418 438 440 380 440 c 0
 364 440 343 439 318 436 c 1
 336 420 350 394 350 360 c 2
 350 150 l 1
 380 150 l 2
 396 150 410 136 410 120 c 2
 410 30 l 2
 410 14 396 0 380 0 c 2
 200 0 l 2
 120 0 90 42 90 90 c 2
 90 370 l 2
 90 390 86 397 78 397 c 1
 73 396 67 395 65 395 c 0
 54 395 49 403 45 415 c 2
 25 480 l 1
 25 480 20 497 20 505 c 0
EndSplineSet
EndChar

StartChar: uni0E10.rd
Encoding: 760 63646 245
Width: 740
VWidth: 0
Flags: MW
LayerCount: 4
Layer: 2
SplineSet
20 550 m 1
 20 550 138 620 340 620 c 0
 396 620 437 608 466 595 c 1
 530 635 623 680 720 680 c 1
 720 510 l 1
 668 510 629 505 600 498 c 1
 636 462 680 397 680 320 c 0
 680 149 555 -10 370 -10 c 0
 240 -10 190 0 190 0 c 1
 110 190 l 1
 50 190 l 1
 50 340 l 1
 240 340 l 2
 282 340 299 320 310 290 c 2
 353 168 l 1
 386 186 410 233 410 310 c 0
 410 395 360 440 270 440 c 0
 198 440 124 416 80 400 c 1
 20 550 l 1
EndSplineSet
Validated: 1
Layer: 3
SplineSet
30 535 m 0
 30 550 35 558 50 565 c 0
 62 570 164 620 340 620 c 0
 396 620 438 608 467 595 c 1
 525 633 614 678 690 678 c 0
 706 678 720 664 720 648 c 2
 720 540 l 2
 720 524 706 510 690 510 c 0
 653 510 623 506 599 499 c 1
 635 463 680 398 680 320 c 0
 680 149 555 -10 370 -10 c 0
 289 -10 267 -7 218 -3 c 0
 193 -1 178 27 173 40 c 2
 110 190 l 1
 80 190 l 2
 64 190 50 204 50 220 c 2
 50 310 l 2
 50 326 64 340 80 340 c 2
 240 340 l 2
 282 340 299 320 310 290 c 2
 353 168 l 1
 386 186 410 233 410 310 c 0
 410 395 360 440 270 440 c 0
 214 440 162 427 140 420 c 0
 127 416 104 405 91 405 c 0
 76 405 71 423 66 435 c 2
 35 510 l 1
 35 510 30 522 30 535 c 0
EndSplineSet
EndChar

StartChar: uni0E48.sd
Encoding: 741 63627 250
Width: 0
VWidth: 0
Flags: MW
LayerCount: 4
Layer: 2
SplineSet
-290 690 m 1
 -290 920 l 1
 -90 920 l 1
 -90 690 l 1
 -290 690 l 1
EndSplineSet
Validated: 1
Layer: 3
SplineSet
-290 720 m 2
 -290 890 l 2
 -290 906 -276 920 -260 920 c 2
 -120 920 l 2
 -104 920 -90 906 -90 890 c 2
 -90 720 l 2
 -90 704 -104 690 -120 690 c 2
 -260 690 l 2
 -276 690 -290 704 -290 720 c 2
EndSplineSet
EndChar

StartChar: uni0E49.sd
Encoding: 744 63630 253
Width: 0
VWidth: 0
Flags: MW
LayerCount: 4
Layer: 2
SplineSet
-460 730 m 0
 -460 747 -448 759 -435 770 c 1
 -380 810 l 1
 -440 810 l 1
 -440 920 l 1
 -230 920 l 2
 -204 920 -190 898 -190 880 c 0
 -190 861 -200 848 -210 840 c 2
 -245 810 l 1
 -70 810 l 1
 -70 690 l 1
 -420 690 l 2
 -445 690 -460 709 -460 730 c 0
EndSplineSet
Validated: 1
Layer: 3
SplineSet
-460 730 m 0
 -460 747 -448 759 -435 770 c 1
 -380 810 l 1
 -410 810 l 2
 -426 810 -440 824 -440 840 c 2
 -440 890 l 2
 -440 906 -426 920 -410 920 c 2
 -230 920 l 2
 -204 920 -190 898 -190 880 c 0
 -190 861 -200 848 -210 840 c 2
 -245 810 l 1
 -100 810 l 2
 -84 810 -70 796 -70 780 c 2
 -70 720 l 2
 -70 704 -84 690 -100 690 c 2
 -420 690 l 2
 -445 690 -460 709 -460 730 c 0
EndSplineSet
EndChar

StartChar: uni0E4A.sd
Encoding: 747 63633 256
Width: 0
VWidth: 0
Flags: MW
LayerCount: 4
Layer: 2
SplineSet
-560 780 m 0
 -560 869 -503 930 -425 930 c 0
 -378 930 -344 892 -320 851 c 1
 -320 920 l 1
 -150 920 l 1
 -150 790 l 1
 -70 790 l 1
 -70 690 l 1
 -320 690 l 1
 -320 763 l 1
 -334 789 -352 810 -365 810 c 0
 -385 810 -390 782 -390 760 c 0
 -390 729 -380 701 -375 690 c 1
 -545 690 l 1
 -551 707 -560 742 -560 780 c 0
EndSplineSet
Validated: 1
Layer: 3
SplineSet
-560 780 m 0
 -560 869 -503 930 -425 930 c 0
 -378 930 -344 892 -320 851 c 1
 -320 890 l 2
 -320 906 -306 920 -290 920 c 2
 -180 920 l 2
 -164 920 -150 906 -150 890 c 2
 -150 790 l 1
 -100 790 l 2
 -84 790 -70 776 -70 760 c 2
 -70 720 l 2
 -70 704 -84 690 -100 690 c 2
 -290 690 l 2
 -306 690 -320 704 -320 720 c 2
 -320 763 l 1
 -334 789 -352 810 -365 810 c 0
 -385 810 -390 782 -390 760 c 0
 -390 742 -388 728 -385 720 c 0
 -383 715 -381 709 -381 705 c 0
 -381 695 -394 690 -405 690 c 2
 -520 690 l 2
 -539 690 -551 709 -554 725 c 0
 -556 737 -560 757 -560 780 c 0
EndSplineSet
EndChar

StartChar: uni0E4A.sdl
Encoding: 748 63634 257
Width: 0
VWidth: 0
Flags: MW
LayerCount: 4
Layer: 2
SplineSet
-800 780 m 0
 -800 869 -753 930 -675 930 c 0
 -626 930 -598 887 -580 844 c 1
 -580 920 l 1
 -430 920 l 1
 -430 790 l 1
 -360 790 l 1
 -360 690 l 1
 -580 690 l 1
 -580 746 l 1
 -592 782 -610 815 -625 815 c 0
 -645 815 -650 791 -650 760 c 0
 -650 729 -640 701 -635 690 c 1
 -785 690 l 1
 -791 707 -800 742 -800 780 c 0
EndSplineSet
Validated: 1
Layer: 3
SplineSet
-800 780 m 0
 -800 869 -753 930 -675 930 c 0
 -626 930 -598 887 -580 844 c 1
 -580 890 l 2
 -580 906 -566 920 -550 920 c 2
 -460 920 l 2
 -444 920 -430 906 -430 890 c 2
 -430 790 l 1
 -390 790 l 2
 -374 790 -360 776 -360 760 c 2
 -360 720 l 2
 -360 704 -374 690 -390 690 c 2
 -550 690 l 2
 -566 690 -580 704 -580 720 c 2
 -580 746 l 1
 -592 782 -610 815 -625 815 c 0
 -645 815 -650 791 -650 760 c 0
 -650 742 -648 728 -645 720 c 0
 -643 715 -641 709 -641 705 c 0
 -641 695 -654 690 -665 690 c 2
 -760 690 l 2
 -779 690 -791 709 -794 725 c 0
 -796 737 -800 757 -800 780 c 0
EndSplineSet
EndChar

StartChar: uni0E4B.sd
Encoding: 750 63636 259
Width: 0
VWidth: 0
Flags: MW
LayerCount: 4
Layer: 2
SplineSet
-370 755 m 1
 -370 855 l 1
 -285 855 l 1
 -285 920 l 1
 -115 920 l 1
 -115 855 l 1
 -30 855 l 1
 -30 755 l 1
 -115 755 l 1
 -115 690 l 1
 -285 690 l 1
 -285 755 l 1
 -370 755 l 1
EndSplineSet
Validated: 1
Layer: 3
SplineSet
-370 785 m 2
 -370 825 l 2
 -370 841 -356 855 -340 855 c 2
 -285 855 l 1
 -285 890 l 2
 -285 906 -271 920 -255 920 c 2
 -145 920 l 2
 -129 920 -115 906 -115 890 c 2
 -115 855 l 1
 -60 855 l 2
 -44 855 -30 841 -30 825 c 2
 -30 785 l 2
 -30 769 -44 755 -60 755 c 2
 -115 755 l 1
 -115 720 l 2
 -115 704 -129 690 -145 690 c 2
 -255 690 l 2
 -271 690 -285 704 -285 720 c 2
 -285 755 l 1
 -340 755 l 2
 -356 755 -370 769 -370 785 c 2
EndSplineSet
EndChar

StartChar: uni0E4C.sd
Encoding: 753 63639 262
Width: 0
VWidth: 0
Flags: MW
LayerCount: 4
Layer: 2
SplineSet
-380 820 m 0
 -380 878 -331 910 -270 910 c 2
 -40 910 l 1
 -40 770 l 1
 -195 770 l 1
 -170 710 l 1
 -345 710 l 1
 -345 710 -380 764 -380 820 c 0
EndSplineSet
Validated: 1
Layer: 3
SplineSet
-380 820 m 0
 -380 878 -331 910 -270 910 c 2
 -70 910 l 2
 -54 910 -40 896 -40 880 c 2
 -40 800 l 2
 -40 784 -54 770 -70 770 c 2
 -195 770 l 1
 -183 740 l 1
 -183 740 -178 729 -178 725 c 0
 -178 715 -191 710 -202 710 c 2
 -325 710 l 2
 -341 710 -352 724 -361 740 c 1
 -361 740 -380 774 -380 820 c 0
EndSplineSet
EndChar

StartChar: uni0E4D.su
Encoding: 761 63648 265
Width: 0
VWidth: 300
Flags: MW
LayerCount: 4
Layer: 2
SplineSet
-370 1035 m 0
 -370 1100 -315 1150 -220 1150 c 0
 -125 1150 -70 1100 -70 1035 c 0
 -70 970 -125 920 -220 920 c 0
 -315 920 -370 970 -370 1035 c 0
-255 1035 m 0
 -255 1011 -242 995 -220 995 c 0
 -198 995 -185 1011 -185 1035 c 0
 -185 1059 -198 1075 -220 1075 c 0
 -242 1075 -255 1059 -255 1035 c 0
EndSplineSet
Validated: 1
Layer: 3
SplineSet
-370 1035 m 0
 -370 1100 -315 1150 -220 1150 c 0
 -125 1150 -70 1100 -70 1035 c 0
 -70 970 -125 920 -220 920 c 0
 -315 920 -370 970 -370 1035 c 0
-255 1035 m 0
 -255 1011 -242 995 -220 995 c 0
 -198 995 -185 1011 -185 1035 c 0
 -185 1059 -198 1075 -220 1075 c 0
 -242 1075 -255 1059 -255 1035 c 0
EndSplineSet
EndChar

StartChar: uni0E47.su
Encoding: 763 63650 267
Width: 0
VWidth: 0
Flags: MW
LayerCount: 4
Layer: 2
SplineSet
-420 1075 m 0
 -420 1153 -362 1200 -275 1200 c 2
 -50 1200 l 1
 -50 1105 l 1
 -245 1105 l 2
 -270 1105 -285 1095 -285 1075 c 0
 -285 1055 -270 1045 -245 1045 c 0
 -211 1045 -195 1058 -195 1080 c 1
 -90 1080 l 1
 -40 970 l 1
 -40 960 l 1
 -150 960 l 1
 -168 1008 l 1
 -187 979 -221 951 -275 950 c 0
 -362 950 -420 997 -420 1075 c 0
EndSplineSet
Validated: 1
Layer: 3
SplineSet
-200 1061 m 0
 -192 1074 -187 1080 -175 1080 c 2
 -110 1080 l 2
 -92 1080 -88 1075 -83 1064 c 2
 -45 980 l 2
 -44 976 -43 973 -43 970 c 0
 -43 964 -47 960 -55 960 c 2
 -130 960 l 2
 -143 960 -152 964 -156 976 c 2
 -168 1008 l 1
 -187 979 -221 951 -275 950 c 0
 -362 950 -420 997 -420 1075 c 0
 -420 1153 -362 1200 -275 1200 c 2
 -80 1200 l 2
 -64 1200 -50 1186 -50 1170 c 2
 -50 1135 l 2
 -50 1119 -64 1105 -80 1105 c 2
 -245 1105 l 2
 -270 1105 -285 1095 -285 1075 c 0
 -285 1055 -270 1045 -245 1045 c 0
 -222 1045 -207 1050 -200 1061 c 0
EndSplineSet
Colour: ff0000
EndChar

StartChar: FontUni
Encoding: 770 -1 269
Width: 840
VWidth: -300
Flags: MW
LayerCount: 4
Layer: 2
SplineSet
0 0 m 1
 0 840 l 1
 840 840 l 1
 840 0 l 1
 672 0 l 1
 672 420 l 2
 672 561 561 672 420 672 c 0
 279 672 168 561 168 420 c 0
 168 279 279 168 420 168 c 0
 438 168 456 170 472 173 c 1
 472 0 l 1
 0 0 l 1
315 420 m 0
 315 479 361 525 420 525 c 0
 479 525 525 479 525 420 c 0
 525 361 479 315 420 315 c 0
 361 315 315 361 315 420 c 0
EndSplineSet
Validated: 1
Layer: 3
SplineSet
0 40 m 2
 0 800 l 2
 0 822 18 840 40 840 c 2
 800 840 l 2
 822 840 840 822 840 800 c 2
 840 40 l 2
 840 18 822 0 800 0 c 2
 672 0 l 1
 672 420 l 2
 672 561 561 672 420 672 c 0
 279 672 168 561 168 420 c 0
 168 279 279 168 420 168 c 0
 438 168 456 170 472 173 c 1
 472 0 l 1
 40 0 l 2
 18 0 0 18 0 40 c 2
315 420 m 0
 315 479 361 525 420 525 c 0
 479 525 525 479 525 420 c 0
 525 361 479 315 420 315 c 0
 361 315 315 361 315 420 c 0
EndSplineSet
EndChar

StartChar: uni0261
Encoding: 343 609 270
Width: 790
VWidth: 0
Flags: MW
LayerCount: 4
Layer: 2
SplineSet
30 300 m 0
 30 471 142 610 320 610 c 0
 401 610 455 571 490 518 c 1
 490 600 l 1
 740 600 l 1
 740 20 l 2
 740 -156 642 -260 410 -260 c 0
 306 -260 233 -239 170 -220 c 1
 220 -50 l 1
 254 -68 306 -80 370 -80 c 0
 428 -80 480 -59 480 0 c 2
 480 68 l 1
 445 23 394 -10 320 -10 c 0
 142 -10 30 129 30 300 c 0
310 300 m 0
 310 220 352 180 400 180 c 0
 438 180 459 198 470 228 c 1
 470 372 l 1
 459 402 438 420 400 420 c 0
 352 420 310 380 310 300 c 0
EndSplineSet
Validated: 1
Layer: 3
SplineSet
30 300 m 0
 30 471 142 610 320 610 c 0
 401 610 455 571 490 518 c 1
 490 560 l 2
 490 582 508 600 530 600 c 2
 700 600 l 2
 722 600 740 582 740 560 c 2
 740 20 l 2
 740 -156 642 -260 410 -260 c 0
 278 -260 217 -234 205 -230 c 0
 193 -226 175 -217 175 -205 c 0
 175 -198 180 -185 180 -185 c 1
 211 -75 l 2
 215 -63 220 -55 231 -55 c 0
 240 -55 257 -65 280 -70 c 0
 308 -76 344 -80 370 -80 c 0
 428 -80 480 -59 480 0 c 2
 480 68 l 1
 445 23 394 -10 320 -10 c 0
 142 -10 30 129 30 300 c 0
310 300 m 0
 310 220 352 180 400 180 c 0
 438 180 459 198 470 228 c 1
 470 372 l 1
 459 402 438 420 400 420 c 0
 352 420 310 380 310 300 c 0
EndSplineSet
EndChar

StartChar: uni0251
Encoding: 341 593 271
Width: 790
VWidth: 0
Flags: MW
LayerCount: 4
Layer: 2
SplineSet
30 300 m 0
 30 471 142 610 320 610 c 0
 401 610 455 571 490 518 c 1
 490 600 l 1
 740 600 l 1
 740 0 l 1
 490 0 l 1
 490 82 l 1
 455 29 401 -10 320 -10 c 0
 142 -10 30 129 30 300 c 0
310 300 m 0
 310 220 352 180 400 180 c 0
 438 180 459 198 470 228 c 1
 470 372 l 1
 459 402 438 420 400 420 c 0
 352 420 310 380 310 300 c 0
EndSplineSet
Validated: 1
Layer: 3
SplineSet
30 300 m 0
 30 471 142 610 320 610 c 0
 401 610 455 571 490 518 c 1
 490 560 l 2
 490 582 508 600 530 600 c 2
 700 600 l 2
 722 600 740 582 740 560 c 2
 740 40 l 2
 740 18 722 0 700 0 c 2
 530 0 l 2
 508 0 490 18 490 40 c 2
 490 82 l 1
 455 29 401 -10 320 -10 c 0
 142 -10 30 129 30 300 c 0
310 300 m 0
 310 220 352 180 400 180 c 0
 438 180 459 198 470 228 c 1
 470 372 l 1
 459 402 438 420 400 420 c 0
 352 420 310 380 310 300 c 0
EndSplineSet
EndChar

StartChar: uni0259
Encoding: 342 601 272
Width: 730
VWidth: 0
Flags: MW
LayerCount: 4
Layer: 2
SplineSet
700 300 m 0
 700 123 564 -20 350 -20 c 0
 177 -20 30 82 30 280 c 0
 30 325 40 360 40 360 c 1
 440 360 l 1
 422 411 378 440 310 440 c 0
 219 440 172 414 150 400 c 1
 90 540 l 1
 90 540 170 620 350 620 c 0
 564 620 700 477 700 300 c 0
446 250 m 1
 270 250 l 1
 270 198 298 160 350 160 c 0
 401 160 434 191 446 250 c 1
EndSplineSet
Validated: 1
Layer: 3
SplineSet
700 300 m 0
 700 123 564 -20 350 -20 c 0
 177 -20 30 82 30 280 c 0
 30 325 39 360 70 360 c 2
 440 360 l 1
 422 411 378 440 310 440 c 0
 261 440 233 433 220 430 c 0
 187 422 176 410 160 410 c 0
 146 410 140 423 135 435 c 2
 105 500 l 2
 101 509 95 518 95 530 c 0
 95 548 117 559 135 570 c 0
 152 580 220 620 350 620 c 0
 564 620 700 477 700 300 c 0
446 250 m 1
 270 250 l 1
 270 198 298 160 350 160 c 0
 401 160 434 191 446 250 c 1
EndSplineSet
EndChar

StartChar: exclamdown
Encoding: 98 161 276
Width: 400
VWidth: 0
Flags: MW
LayerCount: 4
Layer: 2
SplineSet
60 -240 m 1
 90 330 l 1
 310 330 l 1
 340 -240 l 1
 60 -240 l 1
80 600 m 1
 320 600 l 1
 320 400 l 1
 80 400 l 1
 80 600 l 1
EndSplineSet
Validated: 1
Layer: 3
SplineSet
338 -200 m 1
 338 -222 322 -240 300 -240 c 2
 100 -240 l 2
 78 -240 62 -222 62 -200 c 1
 88 290 l 1
 88 312 105 330 127 330 c 2
 273 330 l 2
 295 330 312 312 312 290 c 1
 338 -200 l 1
320 570 m 2
 320 430 l 2
 320 414 306 400 290 400 c 2
 110 400 l 2
 94 400 80 414 80 430 c 2
 80 570 l 2
 80 586 94 600 110 600 c 2
 290 600 l 2
 306 600 320 586 320 570 c 2
EndSplineSet
EndChar

StartChar: cent
Encoding: 99 162 277
Width: 650
VWidth: 0
Flags: MW
LayerCount: 4
Layer: 2
SplineSet
260 117 m 1
 116 160 30 279 30 420 c 0
 30 561 116 680 260 723 c 1
 260 840 l 1
 470 840 l 1
 470 733 l 1
 578 715 630 670 630 670 c 1
 550 510 l 1
 528 524 499 540 430 540 c 0
 361 540 310 493 310 420 c 0
 310 347 361 300 430 300 c 0
 499 300 528 316 550 330 c 1
 630 170 l 1
 630 170 578 125 470 107 c 1
 470 0 l 1
 260 0 l 1
 260 117 l 1
EndSplineSet
Validated: 1
Layer: 3
SplineSet
290 840 m 2
 440 840 l 2
 456 840 470 826 470 810 c 2
 470 733 l 1
 534 723 568 705 580 700 c 0
 599 692 620 678 620 660 c 0
 620 648 614 639 610 630 c 2
 570 540 l 2
 565 528 559 515 545 515 c 0
 529 515 518 527 485 535 c 0
 472 538 454 540 430 540 c 0
 361 540 310 493 310 420 c 0
 310 347 361 300 430 300 c 0
 454 300 472 302 485 305 c 0
 518 313 529 325 545 325 c 0
 559 325 565 312 570 300 c 2
 610 210 l 2
 614 201 620 192 620 180 c 0
 620 162 599 148 580 140 c 0
 568 135 534 117 470 107 c 1
 470 30 l 2
 470 14 456 0 440 0 c 2
 290 0 l 2
 274 0 260 14 260 30 c 2
 260 117 l 1
 116 160 30 279 30 420 c 0
 30 561 116 680 260 723 c 1
 260 810 l 2
 260 826 274 840 290 840 c 2
EndSplineSet
EndChar

StartChar: sterling
Encoding: 100 163 278
Width: 720
VWidth: 0
Flags: MW
LayerCount: 4
Layer: 2
SplineSet
45 340 m 1
 45 500 l 1
 145 500 l 1
 145 590 l 2
 145 716 223 860 431 860 c 0
 556 860 641 798 673 760 c 1
 557 620 l 1
 538 637 516 660 475 660 c 0
 421 660 409 618 409 570 c 2
 409 500 l 1
 585 500 l 1
 585 340 l 1
 409 340 l 1
 409 281 376 223 325 190 c 1
 695 190 l 1
 695 0 l 1
 45 0 l 1
 45 180 l 1
 103 217 145 270 145 340 c 1
 45 340 l 1
EndSplineSet
Validated: 1
Layer: 3
SplineSet
555 340 m 2
 409 340 l 1
 409 281 376 223 325 190 c 1
 665 190 l 2
 681 190 695 176 695 160 c 2
 695 30 l 2
 695 14 681 0 665 0 c 2
 75 0 l 2
 59 0 45 14 45 30 c 2
 45 160 l 2
 45 176 57 186 75 200 c 0
 118 235 145 282 145 340 c 1
 75 340 l 2
 59 340 45 354 45 370 c 2
 45 470 l 2
 45 486 59 500 75 500 c 2
 145 500 l 1
 145 590 l 2
 145 716 223 860 431 860 c 0
 540 860 611 822 650 785 c 0
 659 777 663 768 663 760 c 0
 663 753 660 746 655 740 c 2
 581 640 l 2
 573 632 564 628 555 628 c 0
 548 628 541 630 535 635 c 0
 519 649 501 660 475 660 c 0
 421 660 409 618 409 570 c 2
 409 500 l 1
 555 500 l 2
 571 500 585 486 585 470 c 2
 585 370 l 2
 585 354 571 340 555 340 c 2
EndSplineSet
EndChar

StartChar: currency
Encoding: 101 164 279
Width: 900
VWidth: 0
Flags: MW
LayerCount: 4
Layer: 2
SplineSet
184 7 m 1
 36 155 l 1
 144 263 l 1
 118 311 105 365 105 420 c 0
 105 475 118 529 144 577 c 1
 36 686 l 1
 184 834 l 1
 299 720 l 1
 343 739 393 750 450 750 c 0
 507 750 557 739 601 720 c 1
 715 834 l 1
 863 686 l 1
 755 578 l 1
 781 530 795 475 795 420 c 0
 795 365 781 311 755 263 c 1
 863 155 l 1
 715 7 l 1
 602 120 l 1
 558 101 507 90 450 90 c 0
 393 90 342 102 298 121 c 1
 184 7 l 1
450 270 m 0
 526 270 575 326 575 420 c 0
 575 514 526 570 450 570 c 0
 374 570 325 514 325 420 c 0
 325 326 374 270 450 270 c 0
EndSplineSet
Validated: 1
Layer: 3
SplineSet
57 706 m 2
 164 813 l 2
 170 819 177 821 185 821 c 0
 193 821 200 819 206 813 c 2
 299 720 l 1
 343 739 393 750 450 750 c 0
 507 750 557 739 601 720 c 1
 694 813 l 2
 700 819 707 821 715 821 c 0
 723 821 730 819 736 813 c 2
 842 706 l 2
 848 700 850 693 850 685 c 0
 850 677 848 670 842 664 c 2
 755 577 l 1
 781 529 795 475 795 420 c 1
 795 365 781 311 755 263 c 1
 842 176 l 2
 848 170 850 163 850 155 c 0
 850 147 848 140 842 134 c 2
 736 28 l 2
 730 22 723 20 715 20 c 0
 707 20 700 22 694 28 c 2
 602 120 l 1
 558 101 507 90 450 90 c 1
 393 90 342 101 298 120 c 1
 206 28 l 2
 200 22 193 20 185 20 c 0
 177 20 170 22 164 28 c 2
 57 134 l 2
 51 140 49 147 49 155 c 0
 49 163 51 170 57 176 c 2
 144 263 l 1
 118 311 105 365 105 420 c 1
 105 475 118 529 144 577 c 1
 57 664 l 2
 51 670 49 677 49 685 c 0
 49 693 51 700 57 706 c 2
450 570 m 0
 374 570 325 514 325 420 c 0
 325 326 374 270 450 270 c 0
 526 270 575 326 575 420 c 0
 575 514 526 570 450 570 c 0
EndSplineSet
EndChar

StartChar: yen
Encoding: 102 165 280
Width: 840
Flags: MW
LayerCount: 4
Layer: 2
SplineSet
-10 840 m 1
 310 840 l 1
 420 540 l 1
 530 840 l 1
 850 840 l 1
 679 510 l 1
 770 510 l 1
 770 390 l 1
 617 390 l 1
 586 330 l 1
 770 330 l 1
 770 210 l 1
 560 210 l 1
 560 0 l 1
 280 0 l 1
 280 210 l 1
 70 210 l 1
 70 330 l 1
 254 330 l 1
 223 390 l 1
 70 390 l 1
 70 510 l 1
 161 510 l 1
 -10 840 l 1
EndSplineSet
Validated: 1
Layer: 3
SplineSet
5 815 m 0
 5 830 20 840 45 840 c 2
 270 840 l 2
 299 840 309 827 325 800 c 1
 420 540 l 1
 515 800 l 1
 531 827 541 840 570 840 c 2
 795 840 l 2
 820 840 835 830 835 815 c 0
 835 811 833 805 830 800 c 2
 679 510 l 1
 740 510 l 2
 756 510 770 496 770 480 c 2
 770 420 l 2
 770 404 756 390 740 390 c 2
 617 390 l 1
 586 330 l 1
 740 330 l 2
 756 330 770 316 770 300 c 2
 770 240 l 2
 770 224 756 210 740 210 c 2
 560 210 l 1
 560 40 l 2
 560 18 542 0 520 0 c 2
 320 0 l 2
 298 0 280 18 280 40 c 2
 280 210 l 1
 100 210 l 2
 84 210 70 224 70 240 c 2
 70 300 l 2
 70 316 84 330 100 330 c 2
 254 330 l 1
 223 390 l 1
 100 390 l 2
 84 390 70 404 70 420 c 2
 70 480 l 2
 70 496 84 510 100 510 c 2
 161 510 l 1
 10 800 l 2
 7 805 5 811 5 815 c 0
EndSplineSet
EndChar

StartChar: brokenbar
Encoding: 103 166 281
Width: 360
VWidth: 0
Flags: MW
LayerCount: 4
Layer: 2
SplineSet
75 900 m 1
 285 900 l 1
 285 450 l 1
 75 450 l 1
 75 900 l 1
75 270 m 1
 285 270 l 1
 285 -180 l 1
 75 -180 l 1
 75 270 l 1
EndSplineSet
Validated: 1
Layer: 3
SplineSet
75 -150 m 2
 75 240 l 2
 75 256 89 270 105 270 c 2
 255 270 l 2
 271 270 285 256 285 240 c 2
 285 -150 l 2
 285 -166 271 -180 255 -180 c 2
 105 -180 l 2
 89 -180 75 -166 75 -150 c 2
75 480 m 2
 75 870 l 2
 75 886 89 900 105 900 c 2
 255 900 l 2
 271 900 285 886 285 870 c 2
 285 480 l 2
 285 464 271 450 255 450 c 2
 105 450 l 2
 89 450 75 464 75 480 c 2
EndSplineSet
EndChar

StartChar: section
Encoding: 104 167 282
Width: 660
VWidth: 0
Flags: MW
LayerCount: 4
Layer: 2
SplineSet
531 243 m 1
 553 218 570 186 570 145 c 0
 570 19 451 -60 300 -60 c 0
 175 -60 90 -21 40 10 c 1
 130 145 l 1
 151 129 205 100 270 100 c 0
 307 100 340 112 340 135 c 0
 340 158 299 173 285 180 c 0
 271 187 171 234 140 250 c 0
 102 270 30 309 30 400 c 0
 30 470 68 523 130 557 c 1
 107 582 90 614 90 655 c 0
 90 781 209 860 360 860 c 0
 485 860 570 821 620 790 c 1
 530 655 l 1
 509 671 455 700 390 700 c 0
 353 700 320 688 320 665 c 0
 320 642 361 627 375 620 c 0
 389 613 489 566 520 550 c 0
 558 530 630 491 630 400 c 0
 630 330 593 277 531 243 c 1
242 481 m 1
 234 473 230 462 230 450 c 0
 230 409 276 389 295 380 c 0
 309 373 379 339 418 319 c 1
 426 327 430 338 430 350 c 0
 430 391 384 411 365 420 c 0
 351 427 281 461 242 481 c 1
EndSplineSet
Validated: 1
Layer: 3
SplineSet
360 860 m 0
 464 860 542 833 593 805 c 0
 602 800 607 789 607 779 c 0
 607 773 605 768 602 763 c 2
 545 678 l 2
 539 670 530 666 521 666 c 0
 516 666 510 667 505 670 c 0
 478 685 435 700 390 700 c 0
 353 700 320 688 320 665 c 0
 320 642 361 627 375 620 c 0
 389 613 489 566 520 550 c 0
 558 530 630 491 630 400 c 0
 630 330 593 277 531 243 c 1
 553 218 570 186 570 145 c 0
 570 19 451 -60 300 -60 c 0
 196 -60 118 -33 67 -5 c 0
 58 0 53 11 53 21 c 0
 53 27 55 32 58 37 c 2
 114 122 l 2
 120 130 129 134 138 134 c 0
 143 134 149 133 154 130 c 0
 181 115 224 100 270 100 c 0
 307 100 340 112 340 135 c 0
 340 158 299 173 285 180 c 0
 271 187 171 234 140 250 c 0
 102 270 30 309 30 400 c 0
 30 470 68 523 130 557 c 1
 107 582 90 614 90 655 c 0
 90 781 209 860 360 860 c 0
242 481 m 1
 234 473 230 462 230 450 c 0
 230 409 276 389 295 380 c 0
 309 373 379 339 418 319 c 1
 426 327 430 338 430 350 c 0
 430 391 384 411 365 420 c 0
 351 427 281 461 242 481 c 1
EndSplineSet
EndChar

StartChar: copyright
Encoding: 106 169 284
Width: 1200
VWidth: 0
Flags: MW
LayerCount: 4
Layer: 2
SplineSet
600 960 m 0
 913 960 1140 712 1140 420 c 0
 1140 128 913 -120 600 -120 c 0
 287 -120 60 128 60 420 c 0
 60 712 287 960 600 960 c 0
600 880 m 0
 333 880 145 660 145 420 c 0
 145 180 333 -40 600 -40 c 0
 867 -40 1055 180 1055 420 c 0
 1055 660 867 880 600 880 c 0
300 420 m 0
 300 577 425 710 641 710 c 0
 785 710 874 644 874 644 c 1
 794 512 l 1
 794 512 745 552 670 552 c 0
 578 552 522 501 522 420 c 0
 522 339 578 288 670 288 c 0
 745 288 794 328 794 328 c 1
 874 196 l 1
 874 196 785 130 641 130 c 0
 425 130 300 263 300 420 c 0
EndSplineSet
Validated: 1
Layer: 3
SplineSet
600 960 m 0
 913 960 1140 712 1140 420 c 0
 1140 128 913 -120 600 -120 c 0
 287 -120 60 128 60 420 c 0
 60 712 287 960 600 960 c 0
600 880 m 0
 333 880 145 660 145 420 c 0
 145 180 333 -40 600 -40 c 0
 867 -40 1055 180 1055 420 c 0
 1055 660 867 880 600 880 c 0
300 420 m 0
 300 577 425 710 641 710 c 0
 761 710 839 666 848 661 c 0
 859 655 866 649 866 641 c 0
 866 634 864 631 860 625 c 2
 808 539 l 2
 803 530 794 526 786 526 c 0
 781 526 772 527 768 529 c 0
 760 532 727 552 670 552 c 0
 578 552 521 501 521 420 c 0
 521 339 578 288 670 288 c 0
 727 288 760 308 768 311 c 0
 772 313 781 314 786 314 c 0
 794 314 803 310 808 301 c 2
 860 215 l 2
 864 209 866 206 866 199 c 0
 866 191 859 185 848 179 c 0
 839 174 761 130 641 130 c 0
 425 130 300 263 300 420 c 0
EndSplineSet
EndChar

StartChar: ordfeminine
Encoding: 107 170 285
Width: 400
VWidth: 0
Flags: MW
LayerCount: 4
Layer: 2
SplineSet
166 630 m 4
 166 612 179 606 191 606 c 4
 204 606 213 609 222 616 c 5
 222 644 l 5
 213 651 204 656 191 656 c 4
 179 656 166 648 166 630 c 4
18 630 m 4
 18 684 56 726 131 726 c 4
 179 726 208 709 222 697 c 5
 222 720 l 6
 222 750 201 760 158 760 c 4
 115 760 80 748 56 740 c 5
 24 816 l 5
 24 816 86 850 197 850 c 4
 315 850 370 809 370 726 c 6
 370 540 l 5
 232 540 l 5
 232 576 l 5
 232 576 206 536 131 536 c 4
 56 536 18 576 18 630 c 4
50 390 m 5
 50 480 l 5
 350 480 l 5
 350 390 l 5
 50 390 l 5
EndSplineSet
Validated: 1
Layer: 3
SplineSet
166 630 m 4
 166 612 179 606 191 606 c 4
 204 606 213 609 222 616 c 5
 222 644 l 5
 213 651 204 656 191 656 c 4
 179 656 166 648 166 630 c 4
18 630 m 4
 18 684 56 726 131 726 c 4
 179 726 208 709 222 697 c 5
 222 720 l 6
 222 750 201 760 158 760 c 4
 131 760 107 754 90 748 c 4
 83 746 70 740 63 740 c 4
 55 740 52 750 49 756 c 6
 32 796 l 5
 32 796 29 802 29 808 c 4
 29 816 32 819 40 823 c 4
 47 825 100 850 197 850 c 4
 315 850 370 809 370 726 c 6
 370 560 l 6
 370 549 360 540 348 540 c 6
 254 540 l 6
 242 540 232 549 232 560 c 6
 232 576 l 5
 232 576 206 536 131 536 c 4
 56 536 18 576 18 630 c 4
50 420 m 6
 50 450 l 6
 50 466 64 480 80 480 c 6
 320 480 l 6
 336 480 350 466 350 450 c 6
 350 420 l 6
 350 404 336 390 320 390 c 6
 80 390 l 6
 64 390 50 404 50 420 c 6
EndSplineSet
EndChar

StartChar: logicalnot
Encoding: 109 172 287
Width: 560
Flags: MW
LayerCount: 4
Layer: 2
SplineSet
40 600 m 1
 520 600 l 1
 520 360 l 1
 340 360 l 1
 340 460 l 1
 40 460 l 1
 40 600 l 1
EndSplineSet
Validated: 1
Layer: 3
SplineSet
490 360 m 2
 370 360 l 2
 354 360 340 374 340 390 c 2
 340 460 l 1
 70 460 l 2
 54 460 40 474 40 490 c 2
 40 570 l 2
 40 586 54 600 70 600 c 2
 490 600 l 2
 506 600 520 586 520 570 c 2
 520 390 l 2
 520 374 506 360 490 360 c 2
EndSplineSet
EndChar

StartChar: uni00AD
Encoding: 110 173 288
Width: 520
VWidth: 0
Flags: MW
LayerCount: 4
Layer: 2
SplineSet
50 270 m 1
 50 450 l 1
 470 450 l 1
 470 270 l 1
 50 270 l 1
EndSplineSet
Validated: 1
Layer: 3
SplineSet
50 300 m 2
 50 420 l 2
 50 436 64 450 80 450 c 2
 440 450 l 2
 456 450 470 436 470 420 c 2
 470 300 l 2
 470 284 456 270 440 270 c 2
 80 270 l 2
 64 270 50 284 50 300 c 2
EndSplineSet
EndChar

StartChar: registered
Encoding: 111 174 289
Width: 960
VWidth: 0
Flags: MW
LayerCount: 4
Layer: 2
SplineSet
480 1118 m 0
 266 1118 116 942 116 750 c 0
 116 558 266 382 480 382 c 0
 694 382 844 558 844 750 c 0
 844 942 694 1118 480 1118 c 0
480 1182 m 0
 731 1182 912 984 912 750 c 0
 912 516 731 318 480 318 c 0
 229 318 48 516 48 750 c 0
 48 984 229 1182 480 1182 c 0
280 540 m 1
 280 960 l 1
 522 960 l 2
 645 960 715 892 715 810 c 0
 715 756 686 708 632 682 c 1
 742 540 l 1
 566 540 l 1
 483 660 l 1
 434 660 l 1
 434 540 l 1
 280 540 l 1
434 760 m 1
 495 760 l 2
 540 760 561 782 561 810 c 0
 561 838 537 860 495 860 c 2
 434 860 l 1
 434 760 l 1
EndSplineSet
Validated: 1
Layer: 3
SplineSet
480 1118 m 0
 266 1118 116 942 116 750 c 0
 116 558 266 382 480 382 c 0
 694 382 844 558 844 750 c 0
 844 942 694 1118 480 1118 c 0
480 1182 m 0
 731 1182 912 984 912 750 c 0
 912 516 731 318 480 318 c 0
 229 318 48 516 48 750 c 0
 48 984 229 1182 480 1182 c 0
280 560 m 2
 280 940 l 2
 280 951 290 960 302 960 c 2
 522 960 l 2
 645 960 715 892 715 810 c 0
 715 756 687 708 632 682 c 1
 729 560 l 2
 731 558 732 554 732 552 c 0
 732 544 724 540 710 540 c 2
 583 540 l 2
 567 540 562 546 553 560 c 2
 484 660 l 1
 434 660 l 1
 434 560 l 2
 434 549 424 540 412 540 c 2
 302 540 l 2
 290 540 280 549 280 560 c 2
434 760 m 1
 495 760 l 2
 540 760 561 782 561 810 c 0
 561 838 537 860 495 860 c 2
 434 860 l 1
 434 760 l 1
EndSplineSet
EndChar

StartChar: degree
Encoding: 113 176 291
Width: 360
Flags: MW
LayerCount: 4
Layer: 2
SplineSet
180 960 m 0
 275 960 345 887 345 800 c 0
 345 713 275 640 180 640 c 0
 85 640 15 713 15 800 c 0
 15 887 85 960 180 960 c 0
180 860 m 0
 150 860 125 836 125 800 c 0
 125 764 150 740 180 740 c 0
 210 740 235 764 235 800 c 0
 235 836 210 860 180 860 c 0
EndSplineSet
Validated: 1
Layer: 3
SplineSet
180 960 m 0
 275 960 345 887 345 800 c 0
 345 713 275 640 180 640 c 0
 85 640 15 713 15 800 c 0
 15 887 85 960 180 960 c 0
180 860 m 0
 150 860 125 836 125 800 c 0
 125 764 150 740 180 740 c 0
 210 740 235 764 235 800 c 0
 235 836 210 860 180 860 c 0
EndSplineSet
EndChar

